SplineFontDB: 3.0
FontName: PathwayGothicOne-Book
FullName: Pathway Gothic One Regular
FamilyName: Pathway Gothic One
Weight: Light
Copyright: Copyright (c) 2013, Eduardo Tunni (http://www.tipo.net.ar edu@tipo.net.ar), with Reserved Font Name 'Pathway'
Version: 1.001
ItalicAngle: 0
UnderlinePosition: -50
UnderlineWidth: 50
Ascent: 800
Descent: 200
sfntRevision: 0x00010042
LayerCount: 2
Layer: 0 1 "Back"  1
Layer: 1 1 "Fore"  0
XUID: [1021 13 1121013269 9209517]
FSType: 0
OS2Version: 3
OS2_WeightWidthSlopeOnly: 0
OS2_UseTypoMetrics: 1
CreationTime: 1360521960
ModificationTime: 1369838869
PfmFamily: 17
TTFWeight: 300
TTFWidth: 5
LineGap: 0
VLineGap: 0
Panose: 2 0 5 6 5 0 0 2 0 4
OS2TypoAscent: 740
OS2TypoAOffset: 0
OS2TypoDescent: -180
OS2TypoDOffset: 0
OS2TypoLinegap: 0
OS2WinAscent: 954
OS2WinAOffset: 0
OS2WinDescent: 198
OS2WinDOffset: 0
HheadAscent: 954
HheadAOffset: 0
HheadDescent: -198
HheadDOffset: 0
OS2SubXSize: 650
OS2SubYSize: 600
OS2SubXOff: 0
OS2SubYOff: 75
OS2SupXSize: 650
OS2SupYSize: 600
OS2SupXOff: 0
OS2SupYOff: 350
OS2StrikeYSize: 50
OS2StrikeYPos: 324
OS2Vendor: 'TIPO'
OS2CodePages: 20000001.00000000
OS2UnicodeRanges: 00000003.00000000.00000000.00000000
Lookup: 258 0 0 "'kern' Horizontal Kerning in Latin lookup 0"  {"'kern' Horizontal Kerning in Latin lookup 0 per glyph data 0"  "'kern' Horizontal Kerning in Latin lookup 0 per glyph data 1"  "'kern' Horizontal Kerning in Latin lookup 0 kerning class 2"  } ['kern' ('latn' <'dflt' > ) ]
DEI: 91125
KernClass2: 5+ 12 "'kern' Horizontal Kerning in Latin lookup 0 kerning class 2" 
 50 A Agrave Aacute Acircumflex Atilde Adieresis Aring
 18 Y Yacute Ydieresis
 8 L Lslash
 22 quoteleft quotedblleft
 20 quotedbl quotesingle
 18 Y Yacute Ydieresis
 20 quotedbl quotesingle
 24 quoteright quotedblright
 22 v w y yacute ydieresis
 50 A Agrave Aacute Acircumflex Atilde Adieresis Aring
 116 c d e o q s ccedilla egrave eacute ecircumflex edieresis ograve oacute ocircumflex otilde odieresis oslash oe scaron

StartChar: exclam
Encoding: 33 33 4
Width: 200
GlyphClass: 2
Flags: W
LayerCount: 2
Fore
SplineSet
73 167 m 1,0,-1
 56 700 l 1,1,-1
 144 700 l 1,2,-1
 129 167 l 1,3,-1
 73 167 l 1,0,-1
61 0 m 1,4,-1
 61 92 l 1,5,-1
 140 92 l 1,6,-1
 140 0 l 1,7,-1
 61 0 l 1,4,-1
EndSplineSet
EndChar

StartChar: quotedbl
Encoding: 34 34 5
Width: 301
GlyphClass: 2
Flags: W
LayerCount: 2
Fore
SplineSet
62 496 m 1,0,-1
 48 740 l 1,1,-1
 129 740 l 1,2,-1
 115 496 l 1,3,-1
 62 496 l 1,0,-1
187 496 m 1,4,-1
 172 740 l 1,5,-1
 253 740 l 1,6,-1
 238 496 l 1,7,-1
 187 496 l 1,4,-1
EndSplineSet
EndChar

StartChar: numbersign
Encoding: 35 35 6
Width: 489
GlyphClass: 2
Flags: W
LayerCount: 2
Fore
SplineSet
249 -15 m 1,0,-1
 283 211 l 1,1,-1
 161 211 l 1,2,-1
 127 -15 l 1,3,-1
 65 -15 l 1,4,-1
 99 211 l 1,5,-1
 27 211 l 1,6,-1
 40 273 l 1,7,-1
 109 273 l 1,8,-1
 132 427 l 1,9,-1
 58 427 l 1,10,-1
 69 489 l 1,11,-1
 142 489 l 1,12,-1
 177 715 l 1,13,-1
 238 715 l 1,14,-1
 204 489 l 1,15,-1
 326 489 l 1,16,-1
 361 715 l 1,17,-1
 424 715 l 1,18,-1
 389 489 l 1,19,-1
 462 489 l 1,20,-1
 449 427 l 1,21,-1
 379 427 l 1,22,-1
 356 273 l 1,23,-1
 430 273 l 1,24,-1
 417 211 l 1,25,-1
 346 211 l 1,26,-1
 312 -15 l 1,27,-1
 249 -15 l 1,0,-1
194 427 m 1,28,-1
 171 273 l 1,29,-1
 293 273 l 1,30,-1
 316 427 l 1,31,-1
 194 427 l 1,28,-1
EndSplineSet
EndChar

StartChar: dollar
Encoding: 36 36 7
Width: 384
GlyphClass: 2
Flags: W
LayerCount: 2
Fore
SplineSet
172 -112 m 1,0,-1
 172 10 l 1,1,2
 116 16 116 16 83 60 c 128,-1,3
 50 104 50 104 42 205 c 1,4,-1
 116 218 l 1,5,6
 123 74 123 74 193 74 c 0,7,8
 267 74 267 74 267 170 c 0,9,10
 267 240 267 240 214 282 c 1,11,-1
 139 338 l 1,12,13
 98 367 98 367 76 408 c 128,-1,14
 54 449 54 449 54 515 c 0,15,16
 54 676 54 676 172 689 c 1,17,-1
 172 812 l 1,18,-1
 225 812 l 1,19,-1
 225 688 l 1,20,21
 274 682 274 682 303.5 644 c 128,-1,22
 333 606 333 606 342 523 c 1,23,-1
 266 505 l 1,24,25
 263 623 263 623 196 623 c 0,26,27
 131 623 131 623 131 525 c 0,28,29
 131 481 131 481 140.5 455 c 128,-1,30
 150 429 150 429 178 407 c 2,31,-1
 254 349 l 1,32,33
 281 330 281 330 297 313.5 c 128,-1,34
 313 297 313 297 328 260 c 128,-1,35
 343 223 343 223 343 173 c 0,36,37
 343 27 343 27 225 11 c 1,38,-1
 225 -112 l 1,39,-1
 172 -112 l 1,0,-1
EndSplineSet
EndChar

StartChar: percent
Encoding: 37 37 8
Width: 693
GlyphClass: 2
Flags: W
LayerCount: 2
Fore
SplineSet
220 -15 m 1,0,-1
 403 715 l 1,1,-1
 460 715 l 1,2,-1
 277 -15 l 1,3,-1
 220 -15 l 1,0,-1
251 581 m 2,4,-1
 251 411 l 2,5,6
 251 335 251 335 223.5 306 c 128,-1,7
 196 277 196 277 145 277 c 128,-1,8
 94 277 94 277 66.5 306 c 128,-1,9
 39 335 39 335 39 411 c 2,10,-1
 39 581 l 2,11,12
 39 657 39 657 66.5 686 c 128,-1,13
 94 715 94 715 145 715 c 128,-1,14
 196 715 196 715 223.5 686 c 128,-1,15
 251 657 251 657 251 581 c 2,4,-1
187 402 m 2,16,-1
 187 590 l 2,17,18
 187 666 187 666 144.5 666 c 128,-1,19
 102 666 102 666 102 590 c 2,20,-1
 102 402 l 2,21,22
 102 326 102 326 144.5 326 c 128,-1,23
 187 326 187 326 187 402 c 2,16,-1
654 289 m 2,24,-1
 654 119 l 2,25,26
 654 43 654 43 626.5 14 c 128,-1,27
 599 -15 599 -15 548 -15 c 128,-1,28
 497 -15 497 -15 469.5 14 c 128,-1,29
 442 43 442 43 442 119 c 2,30,-1
 442 289 l 2,31,32
 442 365 442 365 469.5 394 c 128,-1,33
 497 423 497 423 548 423 c 128,-1,34
 599 423 599 423 626.5 394 c 128,-1,35
 654 365 654 365 654 289 c 2,24,-1
590 110 m 2,36,-1
 590 298 l 2,37,38
 590 374 590 374 547.5 374 c 128,-1,39
 505 374 505 374 505 298 c 2,40,-1
 505 110 l 2,41,42
 505 34 505 34 547.5 34 c 128,-1,43
 590 34 590 34 590 110 c 2,36,-1
EndSplineSet
EndChar

StartChar: ampersand
Encoding: 38 38 9
Width: 421
GlyphClass: 2
Flags: W
LayerCount: 2
Fore
SplineSet
26 164 m 2,0,-1
 26 196 l 2,1,2
 26 267 26 267 51.5 304 c 128,-1,3
 77 341 77 341 125 359 c 1,4,5
 77 445 77 445 77 547 c 0,6,7
 77 715 77 715 216 715 c 0,8,9
 278 715 278 715 313 674.5 c 128,-1,10
 348 634 348 634 357 532 c 1,11,-1
 286 521 l 1,12,13
 281 596 281 596 265 623 c 128,-1,14
 249 650 249 650 217.5 650 c 128,-1,15
 186 650 186 650 169.5 627.5 c 128,-1,16
 153 605 153 605 153 538 c 128,-1,17
 153 471 153 471 192 398 c 2,18,-1
 285 226 l 1,19,20
 295 291 295 291 299 365 c 1,21,-1
 365 365 l 1,22,23
 354 218 354 218 332 141 c 1,24,-1
 409 0 l 1,25,-1
 323 0 l 1,26,-1
 294 53 l 1,27,28
 250 -15 250 -15 162 -15 c 0,29,30
 99 -15 99 -15 62.5 24 c 128,-1,31
 26 63 26 63 26 164 c 2,0,-1
174 50 m 0,32,33
 231 50 231 50 258 117 c 1,34,-1
 157 301 l 1,35,36
 103 271 103 271 103 196 c 2,37,-1
 103 163 l 2,38,39
 103 98 103 98 122 74 c 128,-1,40
 141 50 141 50 174 50 c 0,32,33
EndSplineSet
EndChar

StartChar: quotesingle
Encoding: 39 39 10
Width: 177
GlyphClass: 2
Flags: W
LayerCount: 2
Fore
SplineSet
62 496 m 1,0,-1
 48 740 l 1,1,-1
 129 740 l 1,2,-1
 115 496 l 1,3,-1
 62 496 l 1,0,-1
EndSplineSet
EndChar

StartChar: parenleft
Encoding: 40 40 11
Width: 260
GlyphClass: 2
Flags: W
LayerCount: 2
Fore
SplineSet
52 148 m 128,-1,1
 42 237 42 237 42 360.5 c 128,-1,2
 42 484 42 484 52 567 c 128,-1,3
 62 650 62 650 77.5 696.5 c 128,-1,4
 93 743 93 743 120 767.5 c 128,-1,5
 147 792 147 792 172 798.5 c 128,-1,6
 197 805 197 805 236 805 c 1,7,-1
 236 740 l 1,8,9
 213 740 213 740 199 736 c 128,-1,10
 185 732 185 732 168 711.5 c 128,-1,11
 151 691 151 691 142 652 c 0,12,13
 121 561 121 561 121 406.5 c 128,-1,14
 121 252 121 252 127 174 c 128,-1,15
 133 96 133 96 142 54.5 c 128,-1,16
 151 13 151 13 168 -9 c 128,-1,17
 185 -31 185 -31 198.5 -35.5 c 128,-1,18
 212 -40 212 -40 236 -40 c 1,19,-1
 236 -105 l 1,20,21
 197 -105 197 -105 172 -98.5 c 128,-1,22
 147 -92 147 -92 120 -65.5 c 128,-1,23
 93 -39 93 -39 77.5 10 c 128,-1,0
 62 59 62 59 52 148 c 128,-1,1
EndSplineSet
EndChar

StartChar: parenright
Encoding: 41 41 12
Width: 260
GlyphClass: 2
Flags: W
LayerCount: 2
Fore
SplineSet
190 567 m 128,-1,1
 200 484 200 484 200 360.5 c 128,-1,2
 200 237 200 237 190 148 c 128,-1,3
 180 59 180 59 164.5 10 c 128,-1,4
 149 -39 149 -39 122 -65.5 c 128,-1,5
 95 -92 95 -92 70 -98.5 c 128,-1,6
 45 -105 45 -105 6 -105 c 1,7,-1
 6 -40 l 1,8,9
 30 -40 30 -40 43.5 -35.5 c 128,-1,10
 57 -31 57 -31 74 -9 c 128,-1,11
 91 13 91 13 100 54 c 0,12,13
 121 151 121 151 121 365 c 0,14,15
 121 655 121 655 74 712 c 0,16,17
 57 732 57 732 43 736 c 128,-1,18
 29 740 29 740 6 740 c 1,19,-1
 6 805 l 1,20,21
 45 805 45 805 70 798.5 c 128,-1,22
 95 792 95 792 122 767.5 c 128,-1,23
 149 743 149 743 164.5 696.5 c 128,-1,0
 180 650 180 650 190 567 c 128,-1,1
EndSplineSet
EndChar

StartChar: asterisk
Encoding: 42 42 13
Width: 391
GlyphClass: 2
Flags: W
LayerCount: 2
Fore
SplineSet
309 421 m 1,0,-1
 222 515 l 1,1,-1
 226 359 l 1,2,-1
 165 359 l 1,3,-1
 168 515 l 1,4,-1
 82 421 l 1,5,-1
 48 467 l 1,6,-1
 149 565 l 1,7,-1
 48 663 l 1,8,-1
 82 710 l 1,9,-1
 168 614 l 1,10,-1
 165 772 l 1,11,-1
 226 772 l 1,12,-1
 222 614 l 1,13,-1
 309 710 l 1,14,-1
 343 663 l 1,15,-1
 241 565 l 1,16,-1
 343 467 l 1,17,-1
 309 421 l 1,0,-1
EndSplineSet
EndChar

StartChar: plus
Encoding: 43 43 14
Width: 377
GlyphClass: 2
Flags: W
LayerCount: 2
Fore
SplineSet
56 319 m 1,0,-1
 56 381 l 1,1,-1
 159 381 l 1,2,-1
 159 529 l 1,3,-1
 218 529 l 1,4,-1
 218 381 l 1,5,-1
 320 381 l 1,6,-1
 320 319 l 1,7,-1
 218 319 l 1,8,-1
 218 171 l 1,9,-1
 159 171 l 1,10,-1
 159 319 l 1,11,-1
 56 319 l 1,0,-1
EndSplineSet
EndChar

StartChar: comma
Encoding: 44 44 15
Width: 163
GlyphClass: 2
Flags: W
LayerCount: 2
Fore
SplineSet
42 0 m 1,0,-1
 42 92 l 1,1,-1
 121 92 l 1,2,-1
 121 4 l 1,3,-1
 82 -120 l 1,4,-1
 52 -114 l 1,5,-1
 64 0 l 1,6,-1
 42 0 l 1,0,-1
EndSplineSet
EndChar

StartChar: hyphen
Encoding: 45 45 16
Width: 252
GlyphClass: 2
Flags: W
LayerCount: 2
Fore
SplineSet
30 274 m 1,0,-1
 30 336 l 1,1,-1
 222 336 l 1,2,-1
 222 274 l 1,3,-1
 30 274 l 1,0,-1
EndSplineSet
EndChar

StartChar: period
Encoding: 46 46 17
Width: 163
GlyphClass: 2
Flags: W
LayerCount: 2
Fore
SplineSet
42 0 m 1,0,-1
 42 92 l 1,1,-1
 121 92 l 1,2,-1
 121 0 l 1,3,-1
 42 0 l 1,0,-1
EndSplineSet
EndChar

StartChar: slash
Encoding: 47 47 18
Width: 290
GlyphClass: 2
Flags: W
LayerCount: 2
Fore
SplineSet
33 -52 m 1,0,-1
 205 752 l 1,1,-1
 257 752 l 1,2,-1
 85 -52 l 1,3,-1
 33 -52 l 1,0,-1
EndSplineSet
EndChar

StartChar: zero
Encoding: 48 48 19
Width: 411
GlyphClass: 2
Flags: W
LayerCount: 2
Fore
SplineSet
362 491 m 2,0,-1
 362 209 l 2,1,2
 362 82 362 82 321.5 33.5 c 128,-1,3
 281 -15 281 -15 205.5 -15 c 128,-1,4
 130 -15 130 -15 89.5 33.5 c 128,-1,5
 49 82 49 82 49 209 c 2,6,-1
 49 491 l 2,7,8
 49 618 49 618 89.5 666.5 c 128,-1,9
 130 715 130 715 205.5 715 c 128,-1,10
 281 715 281 715 321.5 666.5 c 128,-1,11
 362 618 362 618 362 491 c 2,0,-1
283 194 m 2,12,-1
 283 506 l 2,13,14
 283 650 283 650 206 650 c 0,15,16
 169 650 169 650 148.5 619 c 128,-1,17
 128 588 128 588 128 506 c 2,18,-1
 128 194 l 2,19,20
 128 112 128 112 148.5 81 c 128,-1,21
 169 50 169 50 206 50 c 0,22,23
 283 50 283 50 283 194 c 2,12,-1
EndSplineSet
EndChar

StartChar: one
Encoding: 49 49 20
Width: 235
GlyphClass: 2
Flags: W
LayerCount: 2
Fore
SplineSet
172 700 m 1,0,-1
 172 0 l 1,1,-1
 92 0 l 1,2,-1
 92 611 l 1,3,-1
 6 611 l 1,4,-1
 6 657 l 1,5,-1
 128 700 l 1,6,-1
 172 700 l 1,0,-1
EndSplineSet
EndChar

StartChar: two
Encoding: 50 50 21
Width: 400
GlyphClass: 2
Flags: W
LayerCount: 2
Fore
SplineSet
98 675 m 128,-1,1
 135 715 135 715 204 715 c 128,-1,2
 273 715 273 715 312.5 678.5 c 128,-1,3
 352 642 352 642 352 547.5 c 128,-1,4
 352 453 352 453 290 353 c 2,5,-1
 110 64 l 1,6,-1
 350 64 l 1,7,-1
 350 0 l 1,8,-1
 51 0 l 1,9,-1
 51 48 l 2,10,11
 51 99 51 99 67.5 139 c 128,-1,12
 84 179 84 179 141 269 c 2,13,-1
 224 399 l 1,14,15
 273 467 273 467 273 549 c 0,16,17
 273 607 273 607 254 630 c 128,-1,18
 235 653 235 653 200.5 653 c 128,-1,19
 166 653 166 653 147 624.5 c 128,-1,20
 128 596 128 596 122 521 c 1,21,-1
 52 532 l 1,22,0
 61 635 61 635 98 675 c 128,-1,1
EndSplineSet
EndChar

StartChar: three
Encoding: 51 51 22
Width: 408
GlyphClass: 2
Flags: W
LayerCount: 2
Fore
SplineSet
197 50 m 0,0,1
 279 50 279 50 279 163 c 2,2,-1
 279 191 l 2,3,4
 279 268 279 268 257.5 295.5 c 128,-1,5
 236 323 236 323 195 323 c 2,6,-1
 148 323 l 1,7,-1
 148 385 l 1,8,-1
 196 385 l 1,9,10
 231 387 231 387 251 413.5 c 128,-1,11
 271 440 271 440 271 505 c 2,12,-1
 271 535 l 2,13,14
 271 653 271 653 200 653 c 0,15,16
 165 653 165 653 145.5 624.5 c 128,-1,17
 126 596 126 596 121 521 c 1,18,-1
 50 532 l 1,19,20
 59 635 59 635 96 675 c 128,-1,21
 133 715 133 715 202 715 c 128,-1,22
 271 715 271 715 309.5 673.5 c 128,-1,23
 348 632 348 632 348 518 c 128,-1,24
 348 404 348 404 290 364 c 1,25,26
 359 323 359 323 359 181 c 0,27,28
 359 73 359 73 315.5 29 c 128,-1,29
 272 -15 272 -15 200.5 -15 c 128,-1,30
 129 -15 129 -15 92 25 c 128,-1,31
 55 65 55 65 47 168 c 1,32,-1
 118 178 l 1,33,34
 124 103 124 103 142.5 76.5 c 128,-1,35
 161 50 161 50 197 50 c 0,0,1
EndSplineSet
EndChar

StartChar: four
Encoding: 52 52 23
Width: 379
GlyphClass: 2
Flags: W
LayerCount: 2
Fore
SplineSet
231 0 m 1,0,-1
 231 164 l 1,1,-1
 7 164 l 1,2,-1
 7 202 l 1,3,-1
 175 700 l 1,4,-1
 310 700 l 1,5,-1
 310 228 l 1,6,-1
 351 228 l 1,7,-1
 351 164 l 1,8,-1
 310 164 l 1,9,-1
 310 0 l 1,10,-1
 231 0 l 1,0,-1
231 228 m 1,11,-1
 231 644 l 1,12,-1
 89 228 l 1,13,-1
 231 228 l 1,11,-1
EndSplineSet
EndChar

StartChar: five
Encoding: 53 53 24
Width: 378
GlyphClass: 2
Flags: W
LayerCount: 2
Fore
SplineSet
61 334 m 1,0,-1
 61 700 l 1,1,-1
 331 700 l 1,2,-1
 331 636 l 1,3,-1
 134 636 l 1,4,-1
 134 396 l 1,5,-1
 187 396 l 2,6,7
 263 396 263 396 303 355.5 c 128,-1,8
 343 315 343 315 343 197.5 c 128,-1,9
 343 80 343 80 302.5 32.5 c 128,-1,10
 262 -15 262 -15 193 -15 c 128,-1,11
 124 -15 124 -15 87 25.5 c 128,-1,12
 50 66 50 66 42 168 c 1,13,-1
 112 177 l 1,14,15
 118 102 118 102 136 76 c 128,-1,16
 154 50 154 50 189.5 50 c 128,-1,17
 225 50 225 50 245.5 80.5 c 128,-1,18
 266 111 266 111 266 191 c 2,19,-1
 266 213 l 2,20,21
 266 281 266 281 246 307.5 c 128,-1,22
 226 334 226 334 187 334 c 2,23,-1
 61 334 l 1,0,-1
EndSplineSet
EndChar

StartChar: six
Encoding: 54 54 25
Width: 404
GlyphClass: 2
Flags: W
LayerCount: 2
Fore
SplineSet
323 364 m 128,-1,1
 362 318 362 318 362 197.5 c 128,-1,2
 362 77 362 77 321 31 c 128,-1,3
 280 -15 280 -15 205 -15 c 128,-1,4
 130 -15 130 -15 89.5 31 c 128,-1,5
 49 77 49 77 49 199 c 2,6,-1
 49 486 l 2,7,8
 49 616 49 616 90 665.5 c 128,-1,9
 131 715 131 715 199.5 715 c 128,-1,10
 268 715 268 715 304.5 679.5 c 128,-1,11
 341 644 341 644 349 553 c 1,12,-1
 276 535 l 1,13,14
 272 600 272 600 254.5 625 c 128,-1,15
 237 650 237 650 202.5 650 c 128,-1,16
 168 650 168 650 148 618.5 c 128,-1,17
 128 587 128 587 128 503 c 2,18,-1
 128 373 l 1,19,20
 162 410 162 410 223 410 c 128,-1,0
 284 410 284 410 323 364 c 128,-1,1
286 185 m 2,21,-1
 286 210 l 2,22,23
 286 348 286 348 207.5 348 c 128,-1,24
 129 348 129 348 128 218 c 1,25,-1
 128 185 l 2,26,27
 128 47 128 47 207 47 c 128,-1,28
 286 47 286 47 286 185 c 2,21,-1
EndSplineSet
EndChar

StartChar: seven
Encoding: 55 55 26
Width: 333
GlyphClass: 2
Flags: W
LayerCount: 2
Fore
SplineSet
19 636 m 1,0,-1
 19 700 l 1,1,-1
 310 700 l 1,2,-1
 310 662 l 1,3,-1
 148 0 l 1,4,-1
 67 0 l 1,5,-1
 231 636 l 1,6,-1
 19 636 l 1,0,-1
EndSplineSet
EndChar

StartChar: eight
Encoding: 56 56 27
Width: 417
GlyphClass: 2
Flags: W
LayerCount: 2
Fore
SplineSet
355 532 m 0,0,1
 355 395 355 395 281 362 c 1,2,3
 368 327 368 327 368 179 c 0,4,5
 368 69 368 69 326.5 27 c 128,-1,6
 285 -15 285 -15 208 -15 c 128,-1,7
 131 -15 131 -15 90 27 c 128,-1,8
 49 69 49 69 49 179 c 0,9,10
 49 330 49 330 135 362 c 1,11,12
 63 396 63 396 63 532 c 0,13,14
 63 636 63 636 100.5 675.5 c 128,-1,15
 138 715 138 715 208.5 715 c 128,-1,16
 279 715 279 715 317 675.5 c 128,-1,17
 355 636 355 636 355 532 c 0,0,1
289 173 m 2,18,-1
 289 204 l 2,19,20
 289 275 289 275 268 302.5 c 128,-1,21
 247 330 247 330 208.5 330 c 128,-1,22
 170 330 170 330 149 302.5 c 128,-1,23
 128 275 128 275 128 204 c 2,24,-1
 128 173 l 2,25,26
 128 102 128 102 149 74.5 c 128,-1,27
 170 47 170 47 208.5 47 c 128,-1,28
 247 47 247 47 268 74.5 c 128,-1,29
 289 102 289 102 289 173 c 2,18,-1
278 504 m 2,30,-1
 278 540 l 2,31,32
 278 605 278 605 260 629 c 128,-1,33
 242 653 242 653 208.5 653 c 128,-1,34
 175 653 175 653 157 629 c 128,-1,35
 139 605 139 605 139 540 c 2,36,-1
 139 504 l 2,37,38
 139 439 139 439 157 415 c 128,-1,39
 175 391 175 391 208.5 391 c 128,-1,40
 242 391 242 391 260 415 c 128,-1,41
 278 439 278 439 278 504 c 2,30,-1
EndSplineSet
EndChar

StartChar: nine
Encoding: 57 57 28
Width: 404
GlyphClass: 2
Flags: W
LayerCount: 2
Fore
SplineSet
314.5 34 m 128,-1,1
 274 -15 274 -15 202.5 -15 c 128,-1,2
 131 -15 131 -15 93 25 c 128,-1,3
 55 65 55 65 45 168 c 1,4,-1
 115 178 l 1,5,6
 123 103 123 103 142 76.5 c 128,-1,7
 161 50 161 50 198.5 50 c 128,-1,8
 236 50 236 50 256.5 81.5 c 128,-1,9
 277 113 277 113 277 197 c 2,10,-1
 277 327 l 1,11,12
 244 290 244 290 182.5 290 c 128,-1,13
 121 290 121 290 81.5 336 c 128,-1,14
 42 382 42 382 42 502.5 c 128,-1,15
 42 623 42 623 83.5 669 c 128,-1,16
 125 715 125 715 200 715 c 128,-1,17
 275 715 275 715 315 669 c 128,-1,18
 355 623 355 623 355 501 c 2,19,-1
 355 214 l 2,20,0
 355 83 355 83 314.5 34 c 128,-1,1
118 515 m 2,21,-1
 118 490 l 2,22,23
 118 352 118 352 198 352 c 0,24,25
 234 352 234 352 255 380.5 c 128,-1,26
 276 409 276 409 277 482 c 1,27,-1
 277 515 l 2,28,29
 277 653 277 653 197.5 653 c 128,-1,30
 118 653 118 653 118 515 c 2,21,-1
EndSplineSet
EndChar

StartChar: colon
Encoding: 58 58 29
Width: 163
GlyphClass: 2
Flags: W
LayerCount: 2
Fore
SplineSet
42 0 m 1,0,-1
 42 92 l 1,1,-1
 121 92 l 1,2,-1
 121 0 l 1,3,-1
 42 0 l 1,0,-1
42 408 m 1,4,-1
 42 500 l 1,5,-1
 121 500 l 1,6,-1
 121 408 l 1,7,-1
 42 408 l 1,4,-1
EndSplineSet
EndChar

StartChar: semicolon
Encoding: 59 59 30
Width: 163
GlyphClass: 2
Flags: W
LayerCount: 2
Fore
SplineSet
42 0 m 1,0,-1
 42 92 l 1,1,-1
 121 92 l 1,2,-1
 121 4 l 1,3,-1
 82 -120 l 1,4,-1
 52 -114 l 1,5,-1
 64 0 l 1,6,-1
 42 0 l 1,0,-1
42 408 m 1,7,-1
 42 500 l 1,8,-1
 121 500 l 1,9,-1
 121 408 l 1,10,-1
 42 408 l 1,7,-1
EndSplineSet
EndChar

StartChar: less
Encoding: 60 60 31
Width: 379
GlyphClass: 2
Flags: W
LayerCount: 2
Fore
SplineSet
56 317 m 1,0,-1
 56 383 l 1,1,-1
 322 533 l 1,2,-1
 322 467 l 1,3,-1
 126 350 l 1,4,-1
 322 233 l 1,5,-1
 322 167 l 1,6,-1
 56 317 l 1,0,-1
EndSplineSet
EndChar

StartChar: equal
Encoding: 61 61 32
Width: 377
GlyphClass: 2
Flags: W
LayerCount: 2
Fore
SplineSet
56 419 m 1,0,-1
 56 481 l 1,1,-1
 320 481 l 1,2,-1
 320 419 l 1,3,-1
 56 419 l 1,0,-1
56 219 m 1,4,-1
 56 281 l 1,5,-1
 320 281 l 1,6,-1
 320 219 l 1,7,-1
 56 219 l 1,4,-1
EndSplineSet
EndChar

StartChar: greater
Encoding: 62 62 33
Width: 379
GlyphClass: 2
Flags: W
LayerCount: 2
Fore
SplineSet
322 383 m 1,0,-1
 322 317 l 1,1,-1
 56 167 l 1,2,-1
 56 233 l 1,3,-1
 253 350 l 1,4,-1
 56 467 l 1,5,-1
 56 533 l 1,6,-1
 322 383 l 1,0,-1
EndSplineSet
EndChar

StartChar: question
Encoding: 63 63 34
Width: 358
GlyphClass: 2
Flags: W
LayerCount: 2
Fore
SplineSet
196 168 m 1,0,-1
 136 168 l 1,1,2
 136 287 136 287 183.5 384 c 128,-1,3
 231 481 231 481 231 543 c 128,-1,4
 231 605 231 605 214.5 627.5 c 128,-1,5
 198 650 198 650 167.5 650 c 128,-1,6
 137 650 137 650 120.5 622.5 c 128,-1,7
 104 595 104 595 98 521 c 1,8,-1
 27 532 l 1,9,10
 35 634 35 634 70.5 674.5 c 128,-1,11
 106 715 106 715 171 715 c 128,-1,12
 236 715 236 715 272.5 678 c 128,-1,13
 309 641 309 641 309 552.5 c 128,-1,14
 309 464 309 464 252.5 357.5 c 128,-1,15
 196 251 196 251 196 168 c 1,0,-1
127 0 m 1,16,-1
 127 92 l 1,17,-1
 206 92 l 1,18,-1
 206 0 l 1,19,-1
 127 0 l 1,16,-1
EndSplineSet
EndChar

StartChar: at
Encoding: 64 64 35
Width: 616
GlyphClass: 2
Flags: W
LayerCount: 2
Fore
SplineSet
567 130 m 1,0,-1
 370 130 l 1,1,-1
 359 217 l 1,2,3
 345 115 345 115 270 115 c 0,4,5
 224 115 224 115 200 150 c 128,-1,6
 176 185 176 185 176 277 c 2,7,-1
 176 393 l 2,8,9
 176 485 176 485 200.5 520 c 128,-1,10
 225 555 225 555 270 555 c 0,11,12
 346 555 346 555 362 458 c 1,13,-1
 377 540 l 1,14,-1
 427 540 l 1,15,-1
 427 183 l 1,16,-1
 526 183 l 1,17,-1
 526 389 l 2,18,19
 526 558 526 558 463 620 c 0,20,21
 432 650 432 650 395 662.5 c 128,-1,22
 358 675 358 675 307.5 675 c 128,-1,23
 257 675 257 675 220 662.5 c 128,-1,24
 183 650 183 650 152 620 c 1,25,26
 90 557 90 557 90 389 c 2,27,-1
 90 281 l 2,28,29
 90 113 90 113 152 50 c 1,30,31
 183 20 183 20 220 7.5 c 128,-1,32
 257 -5 257 -5 308 -5 c 0,33,34
 393 -5 393 -5 441 31 c 1,35,-1
 458 -11 l 1,36,37
 402 -55 402 -55 308 -55 c 0,38,39
 248 -55 248 -55 204 -40.5 c 128,-1,40
 160 -26 160 -26 124 10 c 1,41,42
 49 82 49 82 49 281 c 2,43,-1
 49 389 l 2,44,45
 49 587 49 587 124 660 c 0,46,47
 160 696 160 696 204 710.5 c 128,-1,48
 248 725 248 725 308 725 c 128,-1,49
 368 725 368 725 412 710.5 c 128,-1,50
 456 696 456 696 492 660 c 0,51,52
 567 587 567 587 567 389 c 2,53,-1
 567 130 l 1,0,-1
345 234 m 128,-1,55
 353 270 353 270 353 349.5 c 128,-1,56
 353 429 353 429 338 461 c 128,-1,57
 323 493 323 493 294 493 c 0,58,59
 254 493 254 493 254 405 c 2,60,-1
 254 265 l 2,61,62
 254 216 254 216 265 196.5 c 128,-1,63
 276 177 276 177 295.5 177 c 128,-1,64
 315 177 315 177 326 187.5 c 128,-1,54
 337 198 337 198 345 234 c 128,-1,55
EndSplineSet
EndChar

StartChar: A
Encoding: 65 65 36
Width: 394
GlyphClass: 2
Flags: W
LayerCount: 2
Fore
SplineSet
298 0 m 1,0,-1
 267 182 l 1,1,-1
 126 182 l 1,2,-1
 96 0 l 1,3,-1
 16 0 l 1,4,-1
 144 700 l 1,5,-1
 250 700 l 1,6,-1
 378 0 l 1,7,-1
 298 0 l 1,0,-1
197 599 m 1,8,-1
 137 246 l 1,9,-1
 256 246 l 1,10,-1
 197 599 l 1,8,-1
EndSplineSet
EndChar

StartChar: B
Encoding: 66 66 37
Width: 382
GlyphClass: 2
Flags: W
LayerCount: 2
Fore
SplineSet
63 0 m 1,0,-1
 63 700 l 1,1,-1
 177 700 l 2,2,3
 252 700 252 700 292.5 658 c 128,-1,4
 333 616 333 616 333 511 c 0,5,6
 333 389 333 389 248 361 c 1,7,8
 348 339 348 339 348 200 c 0,9,10
 348 89 348 89 307 44.5 c 128,-1,11
 266 0 266 0 193 0 c 2,12,-1
 63 0 l 1,0,-1
270 181 m 2,13,-1
 270 208 l 2,14,15
 270 333 270 333 191 333 c 2,16,-1
 143 333 l 1,17,-1
 143 63 l 1,18,-1
 191 63 l 2,19,20
 229 63 229 63 249.5 89 c 128,-1,21
 270 115 270 115 270 181 c 2,13,-1
259 503 m 2,22,-1
 259 527 l 2,23,24
 259 590 259 590 239 613.5 c 128,-1,25
 219 637 219 637 182 637 c 2,26,-1
 143 637 l 1,27,-1
 143 386 l 1,28,-1
 182 386 l 2,29,30
 259 386 259 386 259 503 c 2,22,-1
EndSplineSet
EndChar

StartChar: C
Encoding: 67 67 38
Width: 374
GlyphClass: 2
Flags: W
LayerCount: 2
Fore
SplineSet
147 80.5 m 128,-1,1
 166 50 166 50 201 50 c 128,-1,2
 236 50 236 50 253.5 76.5 c 128,-1,3
 271 103 271 103 277 177 c 1,4,-1
 347 168 l 1,5,6
 338 66 338 66 301.5 25.5 c 128,-1,7
 265 -15 265 -15 197 -15 c 128,-1,8
 129 -15 129 -15 89 34 c 128,-1,9
 49 83 49 83 49 214 c 2,10,-1
 49 486 l 2,11,12
 49 617 49 617 89 666 c 128,-1,13
 129 715 129 715 196.5 715 c 128,-1,14
 264 715 264 715 299.5 680 c 128,-1,15
 335 645 335 645 343 555 c 1,16,-1
 270 537 l 1,17,18
 264 601 264 601 247.5 625.5 c 128,-1,19
 231 650 231 650 198.5 650 c 128,-1,20
 166 650 166 650 147 618.5 c 128,-1,21
 128 587 128 587 128 503 c 2,22,-1
 128 193 l 2,23,0
 128 111 128 111 147 80.5 c 128,-1,1
EndSplineSet
EndChar

StartChar: D
Encoding: 68 68 39
Width: 406
GlyphClass: 2
Flags: W
LayerCount: 2
Fore
SplineSet
63 0 m 1,0,-1
 63 700 l 1,1,-1
 199 700 l 2,2,3
 275 700 275 700 316 651.5 c 128,-1,4
 357 603 357 603 357 476 c 2,5,-1
 357 224 l 2,6,7
 357 97 357 97 316 48.5 c 128,-1,8
 275 0 275 0 199 0 c 2,9,-1
 63 0 l 1,0,-1
278 206 m 2,10,-1
 278 493 l 2,11,12
 278 636 278 636 199 636 c 2,13,-1
 143 636 l 1,14,-1
 143 63 l 1,15,-1
 199 63 l 2,16,17
 278 63 278 63 278 206 c 2,10,-1
EndSplineSet
EndChar

StartChar: E
Encoding: 69 69 40
Width: 359
GlyphClass: 2
Flags: W
LayerCount: 2
Fore
SplineSet
143 317 m 1,0,-1
 143 64 l 1,1,-1
 317 64 l 1,2,-1
 317 0 l 1,3,-1
 63 0 l 1,4,-1
 63 700 l 1,5,-1
 314 700 l 1,6,-1
 314 636 l 1,7,-1
 143 636 l 1,8,-1
 143 381 l 1,9,-1
 299 381 l 1,10,-1
 299 317 l 1,11,-1
 143 317 l 1,0,-1
EndSplineSet
EndChar

StartChar: F
Encoding: 70 70 41
Width: 323
GlyphClass: 2
Flags: W
LayerCount: 2
Fore
SplineSet
143 317 m 1,0,-1
 143 0 l 1,1,-1
 63 0 l 1,2,-1
 63 700 l 1,3,-1
 303 700 l 1,4,-1
 303 636 l 1,5,-1
 143 636 l 1,6,-1
 143 381 l 1,7,-1
 288 381 l 1,8,-1
 288 317 l 1,9,-1
 143 317 l 1,0,-1
EndSplineSet
PairPos2: "'kern' Horizontal Kerning in Latin lookup 0 per glyph data 1" AE dx=0 dy=0 dh=-32 dv=0 dx=0 dy=0 dh=0 dv=0
PairPos2: "'kern' Horizontal Kerning in Latin lookup 0 per glyph data 1" Aring dx=0 dy=0 dh=-22 dv=0 dx=0 dy=0 dh=0 dv=0
PairPos2: "'kern' Horizontal Kerning in Latin lookup 0 per glyph data 1" Adieresis dx=0 dy=0 dh=-22 dv=0 dx=0 dy=0 dh=0 dv=0
PairPos2: "'kern' Horizontal Kerning in Latin lookup 0 per glyph data 1" Atilde dx=0 dy=0 dh=-22 dv=0 dx=0 dy=0 dh=0 dv=0
PairPos2: "'kern' Horizontal Kerning in Latin lookup 0 per glyph data 1" Acircumflex dx=0 dy=0 dh=-22 dv=0 dx=0 dy=0 dh=0 dv=0
PairPos2: "'kern' Horizontal Kerning in Latin lookup 0 per glyph data 1" Aacute dx=0 dy=0 dh=-22 dv=0 dx=0 dy=0 dh=0 dv=0
PairPos2: "'kern' Horizontal Kerning in Latin lookup 0 per glyph data 1" Agrave dx=0 dy=0 dh=-22 dv=0 dx=0 dy=0 dh=0 dv=0
PairPos2: "'kern' Horizontal Kerning in Latin lookup 0 per glyph data 1" A dx=0 dy=0 dh=-22 dv=0 dx=0 dy=0 dh=0 dv=0
EndChar

StartChar: G
Encoding: 71 71 42
Width: 408
GlyphClass: 2
Flags: W
LayerCount: 2
Fore
SplineSet
195 307 m 1,0,-1
 195 371 l 1,1,-1
 352 371 l 1,2,-1
 352 1 l 1,3,-1
 303 1 l 1,4,-1
 289 66 l 1,5,6
 259 -15 259 -15 181 -15 c 0,7,8
 118 -15 118 -15 83.5 33.5 c 128,-1,9
 49 82 49 82 49 209 c 2,10,-1
 49 486 l 2,11,12
 49 617 49 617 89 666 c 128,-1,13
 129 715 129 715 196.5 715 c 128,-1,14
 264 715 264 715 299.5 680 c 128,-1,15
 335 645 335 645 343 555 c 1,16,-1
 270 537 l 1,17,18
 264 601 264 601 247.5 625.5 c 128,-1,19
 231 650 231 650 198.5 650 c 128,-1,20
 166 650 166 650 147 618.5 c 128,-1,21
 128 587 128 587 128 503 c 2,22,-1
 128 194 l 2,23,24
 128 112 128 112 146.5 81 c 128,-1,25
 165 50 165 50 199 50 c 0,26,27
 275 50 275 50 277 185 c 1,28,-1
 277 307 l 1,29,-1
 195 307 l 1,0,-1
EndSplineSet
EndChar

StartChar: H
Encoding: 72 72 43
Width: 436
GlyphClass: 2
Flags: W
LayerCount: 2
Fore
SplineSet
294 0 m 1,0,-1
 294 317 l 1,1,-1
 143 317 l 1,2,-1
 143 0 l 1,3,-1
 63 0 l 1,4,-1
 63 700 l 1,5,-1
 143 700 l 1,6,-1
 143 381 l 1,7,-1
 294 381 l 1,8,-1
 294 700 l 1,9,-1
 373 700 l 1,10,-1
 373 0 l 1,11,-1
 294 0 l 1,0,-1
EndSplineSet
EndChar

StartChar: I
Encoding: 73 73 44
Width: 206
GlyphClass: 2
Flags: W
LayerCount: 2
Fore
SplineSet
63 0 m 1,0,-1
 63 700 l 1,1,-1
 143 700 l 1,2,-1
 143 0 l 1,3,-1
 63 0 l 1,0,-1
EndSplineSet
EndChar

StartChar: J
Encoding: 74 74 45
Width: 295
GlyphClass: 2
Flags: W
LayerCount: 2
Fore
SplineSet
96.5 64.5 m 128,-1,1
 107 48 107 48 125 48 c 0,2,3
 163 48 163 48 163 141 c 2,4,-1
 163 700 l 1,5,-1
 242 700 l 1,6,-1
 242 157 l 2,7,8
 242 -15 242 -15 121 -15 c 0,9,10
 81 -15 81 -15 48.5 15.5 c 128,-1,11
 16 46 16 46 10 118 c 1,12,-1
 82 128 l 1,13,0
 86 81 86 81 96.5 64.5 c 128,-1,1
EndSplineSet
EndChar

StartChar: K
Encoding: 75 75 46
Width: 381
GlyphClass: 2
Flags: W
LayerCount: 2
Fore
SplineSet
143 0 m 1,0,-1
 63 0 l 1,1,-1
 63 700 l 1,2,-1
 143 700 l 1,3,-1
 143 404 l 1,4,-1
 290 700 l 1,5,-1
 370 700 l 1,6,-1
 217 399 l 1,7,-1
 376 0 l 1,8,-1
 296 0 l 1,9,-1
 175 315 l 1,10,-1
 143 252 l 1,11,-1
 143 0 l 1,0,-1
EndSplineSet
EndChar

StartChar: L
Encoding: 76 76 47
Width: 313
GlyphClass: 2
Flags: W
LayerCount: 2
Fore
SplineSet
63 0 m 1,0,-1
 63 700 l 1,1,-1
 143 700 l 1,2,-1
 143 64 l 1,3,-1
 298 64 l 1,4,-1
 298 0 l 1,5,-1
 63 0 l 1,0,-1
EndSplineSet
EndChar

StartChar: M
Encoding: 77 77 48
Width: 541
GlyphClass: 2
Flags: W
LayerCount: 2
Fore
SplineSet
141 0 m 1,0,-1
 63 0 l 1,1,-1
 63 700 l 1,2,-1
 185 700 l 1,3,-1
 270 215 l 1,4,-1
 356 700 l 1,5,-1
 478 700 l 1,6,-1
 478 0 l 1,7,-1
 400 0 l 1,8,-1
 400 632 l 1,9,-1
 315 150 l 1,10,-1
 226 150 l 1,11,-1
 141 632 l 1,12,-1
 141 0 l 1,0,-1
EndSplineSet
EndChar

StartChar: N
Encoding: 78 78 49
Width: 450
GlyphClass: 2
Flags: W
LayerCount: 2
Fore
SplineSet
141 0 m 1,0,-1
 63 0 l 1,1,-1
 63 700 l 1,2,-1
 146 700 l 1,3,-1
 309 188 l 1,4,-1
 309 700 l 1,5,-1
 387 700 l 1,6,-1
 387 0 l 1,7,-1
 304 0 l 1,8,-1
 141 511 l 1,9,-1
 141 0 l 1,0,-1
EndSplineSet
EndChar

StartChar: O
Encoding: 79 79 50
Width: 411
GlyphClass: 2
Flags: W
LayerCount: 2
Fore
SplineSet
362 491 m 2,0,-1
 362 209 l 2,1,2
 362 82 362 82 321.5 33.5 c 128,-1,3
 281 -15 281 -15 205.5 -15 c 128,-1,4
 130 -15 130 -15 89.5 33.5 c 128,-1,5
 49 82 49 82 49 209 c 2,6,-1
 49 491 l 2,7,8
 49 618 49 618 89.5 666.5 c 128,-1,9
 130 715 130 715 205.5 715 c 128,-1,10
 281 715 281 715 321.5 666.5 c 128,-1,11
 362 618 362 618 362 491 c 2,0,-1
283 194 m 2,12,-1
 283 506 l 2,13,14
 283 650 283 650 206 650 c 0,15,16
 169 650 169 650 148.5 619 c 128,-1,17
 128 588 128 588 128 506 c 2,18,-1
 128 194 l 2,19,20
 128 112 128 112 148.5 81 c 128,-1,21
 169 50 169 50 206 50 c 0,22,23
 283 50 283 50 283 194 c 2,12,-1
EndSplineSet
EndChar

StartChar: P
Encoding: 80 80 51
Width: 363
GlyphClass: 2
Flags: W
LayerCount: 2
Fore
SplineSet
63 0 m 1,0,-1
 63 700 l 1,1,-1
 187 700 l 2,2,3
 262 700 262 700 302.5 651.5 c 128,-1,4
 343 603 343 603 343 476 c 2,5,-1
 343 471 l 2,6,7
 343 344 343 344 302.5 296 c 128,-1,8
 262 248 262 248 187 248 c 2,9,-1
 143 248 l 1,10,-1
 143 0 l 1,11,-1
 63 0 l 1,0,-1
264 458 m 2,12,-1
 264 489 l 2,13,14
 264 636 264 636 187 636 c 2,15,-1
 143 636 l 1,16,-1
 143 311 l 1,17,-1
 187 311 l 2,18,19
 264 311 264 311 264 458 c 2,12,-1
EndSplineSet
PairPos2: "'kern' Horizontal Kerning in Latin lookup 0 per glyph data 1" AE dx=0 dy=0 dh=-32 dv=0 dx=0 dy=0 dh=0 dv=0
PairPos2: "'kern' Horizontal Kerning in Latin lookup 0 per glyph data 1" Aring dx=0 dy=0 dh=-22 dv=0 dx=0 dy=0 dh=0 dv=0
PairPos2: "'kern' Horizontal Kerning in Latin lookup 0 per glyph data 1" Adieresis dx=0 dy=0 dh=-22 dv=0 dx=0 dy=0 dh=0 dv=0
PairPos2: "'kern' Horizontal Kerning in Latin lookup 0 per glyph data 1" Atilde dx=0 dy=0 dh=-22 dv=0 dx=0 dy=0 dh=0 dv=0
PairPos2: "'kern' Horizontal Kerning in Latin lookup 0 per glyph data 1" Acircumflex dx=0 dy=0 dh=-22 dv=0 dx=0 dy=0 dh=0 dv=0
PairPos2: "'kern' Horizontal Kerning in Latin lookup 0 per glyph data 1" Aacute dx=0 dy=0 dh=-22 dv=0 dx=0 dy=0 dh=0 dv=0
PairPos2: "'kern' Horizontal Kerning in Latin lookup 0 per glyph data 1" Agrave dx=0 dy=0 dh=-22 dv=0 dx=0 dy=0 dh=0 dv=0
PairPos2: "'kern' Horizontal Kerning in Latin lookup 0 per glyph data 1" A dx=0 dy=0 dh=-22 dv=0 dx=0 dy=0 dh=0 dv=0
EndChar

StartChar: Q
Encoding: 81 81 52
Width: 411
GlyphClass: 2
Flags: W
LayerCount: 2
Fore
SplineSet
362 491 m 2,0,-1
 362 259 l 2,1,2
 362 111 362 111 299 61 c 1,3,-1
 340 -56 l 1,4,-1
 268 -56 l 1,5,-1
 236 37 l 1,6,7
 226 35 226 35 206 35 c 0,8,9
 130 35 130 35 89.5 83.5 c 128,-1,10
 49 132 49 132 49 259 c 2,11,-1
 49 491 l 2,12,13
 49 618 49 618 89.5 666.5 c 128,-1,14
 130 715 130 715 205.5 715 c 128,-1,15
 281 715 281 715 321.5 666.5 c 128,-1,16
 362 618 362 618 362 491 c 2,0,-1
283 244 m 2,17,-1
 283 506 l 2,18,19
 283 650 283 650 206 650 c 0,20,21
 169 650 169 650 148.5 619 c 128,-1,22
 128 588 128 588 128 506 c 2,23,-1
 128 244 l 2,24,25
 128 162 128 162 148.5 131 c 128,-1,26
 169 100 169 100 206 100 c 2,27,-1
 214 100 l 1,28,-1
 162 254 l 1,29,-1
 232 254 l 1,30,-1
 269 146 l 1,31,32
 283 180 283 180 283 244 c 2,17,-1
EndSplineSet
EndChar

StartChar: R
Encoding: 82 82 53
Width: 386
GlyphClass: 2
Flags: W
LayerCount: 2
Fore
SplineSet
63 0 m 1,0,-1
 63 700 l 1,1,-1
 187 700 l 2,2,3
 261 700 261 700 302 653 c 128,-1,4
 343 606 343 606 343 484 c 2,5,-1
 343 479 l 2,6,7
 343 327 343 327 269 286 c 1,8,-1
 352 0 l 1,9,-1
 270 0 l 1,10,-1
 192 268 l 1,11,-1
 143 268 l 1,12,-1
 143 0 l 1,13,-1
 63 0 l 1,0,-1
264 469 m 2,14,-1
 264 499 l 2,15,16
 264 576 264 576 243.5 606 c 128,-1,17
 223 636 223 636 187 636 c 2,18,-1
 143 636 l 1,19,-1
 143 331 l 1,20,-1
 187 331 l 2,21,22
 264 331 264 331 264 469 c 2,14,-1
EndSplineSet
EndChar

StartChar: S
Encoding: 83 83 54
Width: 398
GlyphClass: 2
Flags: W
LayerCount: 2
Fore
SplineSet
278 157 m 0,0,1
 278 237 278 237 224 280 c 1,2,-1
 144 339 l 1,3,4
 54 403 54 403 54 528 c 0,5,6
 54 632 54 632 93.5 673.5 c 128,-1,7
 133 715 133 715 201.5 715 c 128,-1,8
 270 715 270 715 308 676.5 c 128,-1,9
 346 638 346 638 354 537 c 1,10,-1
 278 520 l 1,11,12
 274 648 274 648 203.5 648 c 128,-1,13
 133 648 133 648 133 539 c 0,14,15
 133 491 133 491 143.5 461 c 128,-1,16
 154 431 154 431 184 407 c 1,17,-1
 263 348 l 2,18,19
 291 328 291 328 308 310 c 128,-1,20
 325 292 325 292 340.5 252.5 c 128,-1,21
 356 213 356 213 356 159 c 0,22,23
 356 63 356 63 314.5 24 c 128,-1,24
 273 -15 273 -15 202 -15 c 128,-1,25
 131 -15 131 -15 91 31 c 128,-1,26
 51 77 51 77 42 195 c 1,27,-1
 117 208 l 1,28,29
 121 123 121 123 141.5 87 c 128,-1,30
 162 51 162 51 199 51 c 0,31,32
 278 51 278 51 278 157 c 0,0,1
EndSplineSet
EndChar

StartChar: T
Encoding: 84 84 55
Width: 299
GlyphClass: 2
Flags: W
LayerCount: 2
Fore
SplineSet
13 636 m 1,0,-1
 13 700 l 1,1,-1
 286 700 l 1,2,-1
 286 636 l 1,3,-1
 189 636 l 1,4,-1
 189 0 l 1,5,-1
 110 0 l 1,6,-1
 110 636 l 1,7,-1
 13 636 l 1,0,-1
EndSplineSet
PairPos2: "'kern' Horizontal Kerning in Latin lookup 0 per glyph data 1" ellipsis dx=0 dy=0 dh=-43 dv=0 dx=0 dy=0 dh=0 dv=0
PairPos2: "'kern' Horizontal Kerning in Latin lookup 0 per glyph data 1" quotedblbase dx=0 dy=0 dh=-43 dv=0 dx=0 dy=0 dh=0 dv=0
PairPos2: "'kern' Horizontal Kerning in Latin lookup 0 per glyph data 1" quotesinglbase dx=0 dy=0 dh=-43 dv=0 dx=0 dy=0 dh=0 dv=0
PairPos2: "'kern' Horizontal Kerning in Latin lookup 0 per glyph data 1" scaron dx=0 dy=0 dh=-29 dv=0 dx=0 dy=0 dh=0 dv=0
PairPos2: "'kern' Horizontal Kerning in Latin lookup 0 per glyph data 1" oe dx=0 dy=0 dh=-29 dv=0 dx=0 dy=0 dh=0 dv=0
PairPos2: "'kern' Horizontal Kerning in Latin lookup 0 per glyph data 1" dotlessi dx=0 dy=0 dh=-22 dv=0 dx=0 dy=0 dh=0 dv=0
PairPos2: "'kern' Horizontal Kerning in Latin lookup 0 per glyph data 1" udieresis dx=0 dy=0 dh=-22 dv=0 dx=0 dy=0 dh=0 dv=0
PairPos2: "'kern' Horizontal Kerning in Latin lookup 0 per glyph data 1" ucircumflex dx=0 dy=0 dh=-22 dv=0 dx=0 dy=0 dh=0 dv=0
PairPos2: "'kern' Horizontal Kerning in Latin lookup 0 per glyph data 1" uacute dx=0 dy=0 dh=-22 dv=0 dx=0 dy=0 dh=0 dv=0
PairPos2: "'kern' Horizontal Kerning in Latin lookup 0 per glyph data 1" ugrave dx=0 dy=0 dh=-22 dv=0 dx=0 dy=0 dh=0 dv=0
PairPos2: "'kern' Horizontal Kerning in Latin lookup 0 per glyph data 1" oslash dx=0 dy=0 dh=-29 dv=0 dx=0 dy=0 dh=0 dv=0
PairPos2: "'kern' Horizontal Kerning in Latin lookup 0 per glyph data 1" odieresis dx=0 dy=0 dh=-29 dv=0 dx=0 dy=0 dh=0 dv=0
PairPos2: "'kern' Horizontal Kerning in Latin lookup 0 per glyph data 1" otilde dx=0 dy=0 dh=-29 dv=0 dx=0 dy=0 dh=0 dv=0
PairPos2: "'kern' Horizontal Kerning in Latin lookup 0 per glyph data 1" ocircumflex dx=0 dy=0 dh=-29 dv=0 dx=0 dy=0 dh=0 dv=0
PairPos2: "'kern' Horizontal Kerning in Latin lookup 0 per glyph data 1" oacute dx=0 dy=0 dh=-29 dv=0 dx=0 dy=0 dh=0 dv=0
PairPos2: "'kern' Horizontal Kerning in Latin lookup 0 per glyph data 1" ograve dx=0 dy=0 dh=-29 dv=0 dx=0 dy=0 dh=0 dv=0
PairPos2: "'kern' Horizontal Kerning in Latin lookup 0 per glyph data 1" ntilde dx=0 dy=0 dh=-22 dv=0 dx=0 dy=0 dh=0 dv=0
PairPos2: "'kern' Horizontal Kerning in Latin lookup 0 per glyph data 1" edieresis dx=0 dy=0 dh=-29 dv=0 dx=0 dy=0 dh=0 dv=0
PairPos2: "'kern' Horizontal Kerning in Latin lookup 0 per glyph data 1" ecircumflex dx=0 dy=0 dh=-29 dv=0 dx=0 dy=0 dh=0 dv=0
PairPos2: "'kern' Horizontal Kerning in Latin lookup 0 per glyph data 1" eacute dx=0 dy=0 dh=-29 dv=0 dx=0 dy=0 dh=0 dv=0
PairPos2: "'kern' Horizontal Kerning in Latin lookup 0 per glyph data 1" egrave dx=0 dy=0 dh=-29 dv=0 dx=0 dy=0 dh=0 dv=0
PairPos2: "'kern' Horizontal Kerning in Latin lookup 0 per glyph data 1" ccedilla dx=0 dy=0 dh=-29 dv=0 dx=0 dy=0 dh=0 dv=0
PairPos2: "'kern' Horizontal Kerning in Latin lookup 0 per glyph data 1" ae dx=0 dy=0 dh=-29 dv=0 dx=0 dy=0 dh=0 dv=0
PairPos2: "'kern' Horizontal Kerning in Latin lookup 0 per glyph data 1" aring dx=0 dy=0 dh=-29 dv=0 dx=0 dy=0 dh=0 dv=0
PairPos2: "'kern' Horizontal Kerning in Latin lookup 0 per glyph data 1" adieresis dx=0 dy=0 dh=-29 dv=0 dx=0 dy=0 dh=0 dv=0
PairPos2: "'kern' Horizontal Kerning in Latin lookup 0 per glyph data 1" atilde dx=0 dy=0 dh=-29 dv=0 dx=0 dy=0 dh=0 dv=0
PairPos2: "'kern' Horizontal Kerning in Latin lookup 0 per glyph data 1" acircumflex dx=0 dy=0 dh=-29 dv=0 dx=0 dy=0 dh=0 dv=0
PairPos2: "'kern' Horizontal Kerning in Latin lookup 0 per glyph data 1" aacute dx=0 dy=0 dh=-29 dv=0 dx=0 dy=0 dh=0 dv=0
PairPos2: "'kern' Horizontal Kerning in Latin lookup 0 per glyph data 1" agrave dx=0 dy=0 dh=-29 dv=0 dx=0 dy=0 dh=0 dv=0
PairPos2: "'kern' Horizontal Kerning in Latin lookup 0 per glyph data 1" AE dx=0 dy=0 dh=-36 dv=0 dx=0 dy=0 dh=0 dv=0
PairPos2: "'kern' Horizontal Kerning in Latin lookup 0 per glyph data 1" Aring dx=0 dy=0 dh=-29 dv=0 dx=0 dy=0 dh=0 dv=0
PairPos2: "'kern' Horizontal Kerning in Latin lookup 0 per glyph data 1" Adieresis dx=0 dy=0 dh=-29 dv=0 dx=0 dy=0 dh=0 dv=0
PairPos2: "'kern' Horizontal Kerning in Latin lookup 0 per glyph data 1" Atilde dx=0 dy=0 dh=-29 dv=0 dx=0 dy=0 dh=0 dv=0
PairPos2: "'kern' Horizontal Kerning in Latin lookup 0 per glyph data 1" Acircumflex dx=0 dy=0 dh=-29 dv=0 dx=0 dy=0 dh=0 dv=0
PairPos2: "'kern' Horizontal Kerning in Latin lookup 0 per glyph data 1" Aacute dx=0 dy=0 dh=-29 dv=0 dx=0 dy=0 dh=0 dv=0
PairPos2: "'kern' Horizontal Kerning in Latin lookup 0 per glyph data 1" Agrave dx=0 dy=0 dh=-29 dv=0 dx=0 dy=0 dh=0 dv=0
PairPos2: "'kern' Horizontal Kerning in Latin lookup 0 per glyph data 1" mu dx=0 dy=0 dh=-22 dv=0 dx=0 dy=0 dh=0 dv=0
PairPos2: "'kern' Horizontal Kerning in Latin lookup 0 per glyph data 1" z dx=0 dy=0 dh=-22 dv=0 dx=0 dy=0 dh=0 dv=0
PairPos2: "'kern' Horizontal Kerning in Latin lookup 0 per glyph data 1" u dx=0 dy=0 dh=-22 dv=0 dx=0 dy=0 dh=0 dv=0
PairPos2: "'kern' Horizontal Kerning in Latin lookup 0 per glyph data 1" t dx=0 dy=0 dh=-22 dv=0 dx=0 dy=0 dh=0 dv=0
PairPos2: "'kern' Horizontal Kerning in Latin lookup 0 per glyph data 1" s dx=0 dy=0 dh=-29 dv=0 dx=0 dy=0 dh=0 dv=0
PairPos2: "'kern' Horizontal Kerning in Latin lookup 0 per glyph data 1" r dx=0 dy=0 dh=-22 dv=0 dx=0 dy=0 dh=0 dv=0
PairPos2: "'kern' Horizontal Kerning in Latin lookup 0 per glyph data 1" q dx=0 dy=0 dh=-29 dv=0 dx=0 dy=0 dh=0 dv=0
PairPos2: "'kern' Horizontal Kerning in Latin lookup 0 per glyph data 1" p dx=0 dy=0 dh=-22 dv=0 dx=0 dy=0 dh=0 dv=0
PairPos2: "'kern' Horizontal Kerning in Latin lookup 0 per glyph data 1" o dx=0 dy=0 dh=-29 dv=0 dx=0 dy=0 dh=0 dv=0
PairPos2: "'kern' Horizontal Kerning in Latin lookup 0 per glyph data 1" n dx=0 dy=0 dh=-22 dv=0 dx=0 dy=0 dh=0 dv=0
PairPos2: "'kern' Horizontal Kerning in Latin lookup 0 per glyph data 1" m dx=0 dy=0 dh=-22 dv=0 dx=0 dy=0 dh=0 dv=0
PairPos2: "'kern' Horizontal Kerning in Latin lookup 0 per glyph data 1" e dx=0 dy=0 dh=-29 dv=0 dx=0 dy=0 dh=0 dv=0
PairPos2: "'kern' Horizontal Kerning in Latin lookup 0 per glyph data 1" d dx=0 dy=0 dh=-29 dv=0 dx=0 dy=0 dh=0 dv=0
PairPos2: "'kern' Horizontal Kerning in Latin lookup 0 per glyph data 1" c dx=0 dy=0 dh=-29 dv=0 dx=0 dy=0 dh=0 dv=0
PairPos2: "'kern' Horizontal Kerning in Latin lookup 0 per glyph data 1" a dx=0 dy=0 dh=-29 dv=0 dx=0 dy=0 dh=0 dv=0
PairPos2: "'kern' Horizontal Kerning in Latin lookup 0 per glyph data 1" A dx=0 dy=0 dh=-29 dv=0 dx=0 dy=0 dh=0 dv=0
PairPos2: "'kern' Horizontal Kerning in Latin lookup 0 per glyph data 1" period dx=0 dy=0 dh=-43 dv=0 dx=0 dy=0 dh=0 dv=0
PairPos2: "'kern' Horizontal Kerning in Latin lookup 0 per glyph data 1" comma dx=0 dy=0 dh=-43 dv=0 dx=0 dy=0 dh=0 dv=0
EndChar

StartChar: U
Encoding: 85 85 56
Width: 422
GlyphClass: 2
Flags: W
LayerCount: 2
Fore
SplineSet
287 700 m 1,0,-1
 366 700 l 1,1,-1
 366 209 l 2,2,3
 366 82 366 82 325.5 33.5 c 128,-1,4
 285 -15 285 -15 211 -15 c 128,-1,5
 137 -15 137 -15 96.5 33.5 c 128,-1,6
 56 82 56 82 56 209 c 2,7,-1
 56 700 l 1,8,-1
 135 700 l 1,9,-1
 135 194 l 2,10,11
 135 113 135 113 155 81.5 c 128,-1,12
 175 50 175 50 210.5 50 c 128,-1,13
 246 50 246 50 266.5 81.5 c 128,-1,14
 287 113 287 113 287 194 c 2,15,-1
 287 700 l 1,0,-1
EndSplineSet
EndChar

StartChar: V
Encoding: 86 86 57
Width: 392
GlyphClass: 2
Flags: W
LayerCount: 2
Fore
SplineSet
96 700 m 1,0,-1
 196 116 l 1,1,-1
 296 700 l 1,2,-1
 376 700 l 1,3,-1
 246 0 l 1,4,-1
 146 0 l 1,5,-1
 16 700 l 1,6,-1
 96 700 l 1,0,-1
EndSplineSet
PairPos2: "'kern' Horizontal Kerning in Latin lookup 0 per glyph data 1" ellipsis dx=0 dy=0 dh=-36 dv=0 dx=0 dy=0 dh=0 dv=0
PairPos2: "'kern' Horizontal Kerning in Latin lookup 0 per glyph data 1" quotedblbase dx=0 dy=0 dh=-36 dv=0 dx=0 dy=0 dh=0 dv=0
PairPos2: "'kern' Horizontal Kerning in Latin lookup 0 per glyph data 1" quotesinglbase dx=0 dy=0 dh=-36 dv=0 dx=0 dy=0 dh=0 dv=0
PairPos2: "'kern' Horizontal Kerning in Latin lookup 0 per glyph data 1" scaron dx=0 dy=0 dh=-22 dv=0 dx=0 dy=0 dh=0 dv=0
PairPos2: "'kern' Horizontal Kerning in Latin lookup 0 per glyph data 1" oe dx=0 dy=0 dh=-22 dv=0 dx=0 dy=0 dh=0 dv=0
PairPos2: "'kern' Horizontal Kerning in Latin lookup 0 per glyph data 1" oslash dx=0 dy=0 dh=-22 dv=0 dx=0 dy=0 dh=0 dv=0
PairPos2: "'kern' Horizontal Kerning in Latin lookup 0 per glyph data 1" odieresis dx=0 dy=0 dh=-22 dv=0 dx=0 dy=0 dh=0 dv=0
PairPos2: "'kern' Horizontal Kerning in Latin lookup 0 per glyph data 1" otilde dx=0 dy=0 dh=-22 dv=0 dx=0 dy=0 dh=0 dv=0
PairPos2: "'kern' Horizontal Kerning in Latin lookup 0 per glyph data 1" ocircumflex dx=0 dy=0 dh=-22 dv=0 dx=0 dy=0 dh=0 dv=0
PairPos2: "'kern' Horizontal Kerning in Latin lookup 0 per glyph data 1" oacute dx=0 dy=0 dh=-22 dv=0 dx=0 dy=0 dh=0 dv=0
PairPos2: "'kern' Horizontal Kerning in Latin lookup 0 per glyph data 1" ograve dx=0 dy=0 dh=-22 dv=0 dx=0 dy=0 dh=0 dv=0
PairPos2: "'kern' Horizontal Kerning in Latin lookup 0 per glyph data 1" edieresis dx=0 dy=0 dh=-22 dv=0 dx=0 dy=0 dh=0 dv=0
PairPos2: "'kern' Horizontal Kerning in Latin lookup 0 per glyph data 1" ecircumflex dx=0 dy=0 dh=-22 dv=0 dx=0 dy=0 dh=0 dv=0
PairPos2: "'kern' Horizontal Kerning in Latin lookup 0 per glyph data 1" eacute dx=0 dy=0 dh=-22 dv=0 dx=0 dy=0 dh=0 dv=0
PairPos2: "'kern' Horizontal Kerning in Latin lookup 0 per glyph data 1" egrave dx=0 dy=0 dh=-22 dv=0 dx=0 dy=0 dh=0 dv=0
PairPos2: "'kern' Horizontal Kerning in Latin lookup 0 per glyph data 1" ccedilla dx=0 dy=0 dh=-22 dv=0 dx=0 dy=0 dh=0 dv=0
PairPos2: "'kern' Horizontal Kerning in Latin lookup 0 per glyph data 1" AE dx=0 dy=0 dh=-29 dv=0 dx=0 dy=0 dh=0 dv=0
PairPos2: "'kern' Horizontal Kerning in Latin lookup 0 per glyph data 1" Aring dx=0 dy=0 dh=-22 dv=0 dx=0 dy=0 dh=0 dv=0
PairPos2: "'kern' Horizontal Kerning in Latin lookup 0 per glyph data 1" Adieresis dx=0 dy=0 dh=-22 dv=0 dx=0 dy=0 dh=0 dv=0
PairPos2: "'kern' Horizontal Kerning in Latin lookup 0 per glyph data 1" Atilde dx=0 dy=0 dh=-22 dv=0 dx=0 dy=0 dh=0 dv=0
PairPos2: "'kern' Horizontal Kerning in Latin lookup 0 per glyph data 1" Acircumflex dx=0 dy=0 dh=-22 dv=0 dx=0 dy=0 dh=0 dv=0
PairPos2: "'kern' Horizontal Kerning in Latin lookup 0 per glyph data 1" Aacute dx=0 dy=0 dh=-22 dv=0 dx=0 dy=0 dh=0 dv=0
PairPos2: "'kern' Horizontal Kerning in Latin lookup 0 per glyph data 1" Agrave dx=0 dy=0 dh=-22 dv=0 dx=0 dy=0 dh=0 dv=0
PairPos2: "'kern' Horizontal Kerning in Latin lookup 0 per glyph data 1" s dx=0 dy=0 dh=-22 dv=0 dx=0 dy=0 dh=0 dv=0
PairPos2: "'kern' Horizontal Kerning in Latin lookup 0 per glyph data 1" q dx=0 dy=0 dh=-22 dv=0 dx=0 dy=0 dh=0 dv=0
PairPos2: "'kern' Horizontal Kerning in Latin lookup 0 per glyph data 1" o dx=0 dy=0 dh=-22 dv=0 dx=0 dy=0 dh=0 dv=0
PairPos2: "'kern' Horizontal Kerning in Latin lookup 0 per glyph data 1" e dx=0 dy=0 dh=-22 dv=0 dx=0 dy=0 dh=0 dv=0
PairPos2: "'kern' Horizontal Kerning in Latin lookup 0 per glyph data 1" d dx=0 dy=0 dh=-22 dv=0 dx=0 dy=0 dh=0 dv=0
PairPos2: "'kern' Horizontal Kerning in Latin lookup 0 per glyph data 1" c dx=0 dy=0 dh=-22 dv=0 dx=0 dy=0 dh=0 dv=0
PairPos2: "'kern' Horizontal Kerning in Latin lookup 0 per glyph data 1" A dx=0 dy=0 dh=-22 dv=0 dx=0 dy=0 dh=0 dv=0
PairPos2: "'kern' Horizontal Kerning in Latin lookup 0 per glyph data 1" period dx=0 dy=0 dh=-36 dv=0 dx=0 dy=0 dh=0 dv=0
PairPos2: "'kern' Horizontal Kerning in Latin lookup 0 per glyph data 1" comma dx=0 dy=0 dh=-36 dv=0 dx=0 dy=0 dh=0 dv=0
EndChar

StartChar: W
Encoding: 87 87 58
Width: 578
GlyphClass: 2
Flags: W
LayerCount: 2
Fore
SplineSet
372 0 m 1,0,-1
 289 509 l 1,1,-1
 206 0 l 1,2,-1
 124 0 l 1,3,-1
 19 700 l 1,4,-1
 99 700 l 1,5,-1
 171 164 l 1,6,-1
 259 700 l 1,7,-1
 321 700 l 1,8,-1
 406 165 l 1,9,-1
 479 700 l 1,10,-1
 559 700 l 1,11,-1
 454 0 l 1,12,-1
 372 0 l 1,0,-1
EndSplineSet
PairPos2: "'kern' Horizontal Kerning in Latin lookup 0 per glyph data 1" ellipsis dx=0 dy=0 dh=-29 dv=0 dx=0 dy=0 dh=0 dv=0
PairPos2: "'kern' Horizontal Kerning in Latin lookup 0 per glyph data 1" quotedblbase dx=0 dy=0 dh=-29 dv=0 dx=0 dy=0 dh=0 dv=0
PairPos2: "'kern' Horizontal Kerning in Latin lookup 0 per glyph data 1" quotesinglbase dx=0 dy=0 dh=-29 dv=0 dx=0 dy=0 dh=0 dv=0
PairPos2: "'kern' Horizontal Kerning in Latin lookup 0 per glyph data 1" scaron dx=0 dy=0 dh=-14 dv=0 dx=0 dy=0 dh=0 dv=0
PairPos2: "'kern' Horizontal Kerning in Latin lookup 0 per glyph data 1" oe dx=0 dy=0 dh=-14 dv=0 dx=0 dy=0 dh=0 dv=0
PairPos2: "'kern' Horizontal Kerning in Latin lookup 0 per glyph data 1" oslash dx=0 dy=0 dh=-14 dv=0 dx=0 dy=0 dh=0 dv=0
PairPos2: "'kern' Horizontal Kerning in Latin lookup 0 per glyph data 1" odieresis dx=0 dy=0 dh=-14 dv=0 dx=0 dy=0 dh=0 dv=0
PairPos2: "'kern' Horizontal Kerning in Latin lookup 0 per glyph data 1" otilde dx=0 dy=0 dh=-14 dv=0 dx=0 dy=0 dh=0 dv=0
PairPos2: "'kern' Horizontal Kerning in Latin lookup 0 per glyph data 1" ocircumflex dx=0 dy=0 dh=-14 dv=0 dx=0 dy=0 dh=0 dv=0
PairPos2: "'kern' Horizontal Kerning in Latin lookup 0 per glyph data 1" oacute dx=0 dy=0 dh=-14 dv=0 dx=0 dy=0 dh=0 dv=0
PairPos2: "'kern' Horizontal Kerning in Latin lookup 0 per glyph data 1" ograve dx=0 dy=0 dh=-14 dv=0 dx=0 dy=0 dh=0 dv=0
PairPos2: "'kern' Horizontal Kerning in Latin lookup 0 per glyph data 1" edieresis dx=0 dy=0 dh=-14 dv=0 dx=0 dy=0 dh=0 dv=0
PairPos2: "'kern' Horizontal Kerning in Latin lookup 0 per glyph data 1" ecircumflex dx=0 dy=0 dh=-14 dv=0 dx=0 dy=0 dh=0 dv=0
PairPos2: "'kern' Horizontal Kerning in Latin lookup 0 per glyph data 1" eacute dx=0 dy=0 dh=-14 dv=0 dx=0 dy=0 dh=0 dv=0
PairPos2: "'kern' Horizontal Kerning in Latin lookup 0 per glyph data 1" egrave dx=0 dy=0 dh=-14 dv=0 dx=0 dy=0 dh=0 dv=0
PairPos2: "'kern' Horizontal Kerning in Latin lookup 0 per glyph data 1" ccedilla dx=0 dy=0 dh=-14 dv=0 dx=0 dy=0 dh=0 dv=0
PairPos2: "'kern' Horizontal Kerning in Latin lookup 0 per glyph data 1" AE dx=0 dy=0 dh=-22 dv=0 dx=0 dy=0 dh=0 dv=0
PairPos2: "'kern' Horizontal Kerning in Latin lookup 0 per glyph data 1" Aring dx=0 dy=0 dh=-14 dv=0 dx=0 dy=0 dh=0 dv=0
PairPos2: "'kern' Horizontal Kerning in Latin lookup 0 per glyph data 1" Adieresis dx=0 dy=0 dh=-14 dv=0 dx=0 dy=0 dh=0 dv=0
PairPos2: "'kern' Horizontal Kerning in Latin lookup 0 per glyph data 1" Atilde dx=0 dy=0 dh=-14 dv=0 dx=0 dy=0 dh=0 dv=0
PairPos2: "'kern' Horizontal Kerning in Latin lookup 0 per glyph data 1" Acircumflex dx=0 dy=0 dh=-14 dv=0 dx=0 dy=0 dh=0 dv=0
PairPos2: "'kern' Horizontal Kerning in Latin lookup 0 per glyph data 1" Aacute dx=0 dy=0 dh=-14 dv=0 dx=0 dy=0 dh=0 dv=0
PairPos2: "'kern' Horizontal Kerning in Latin lookup 0 per glyph data 1" Agrave dx=0 dy=0 dh=-14 dv=0 dx=0 dy=0 dh=0 dv=0
PairPos2: "'kern' Horizontal Kerning in Latin lookup 0 per glyph data 1" s dx=0 dy=0 dh=-14 dv=0 dx=0 dy=0 dh=0 dv=0
PairPos2: "'kern' Horizontal Kerning in Latin lookup 0 per glyph data 1" q dx=0 dy=0 dh=-14 dv=0 dx=0 dy=0 dh=0 dv=0
PairPos2: "'kern' Horizontal Kerning in Latin lookup 0 per glyph data 1" o dx=0 dy=0 dh=-14 dv=0 dx=0 dy=0 dh=0 dv=0
PairPos2: "'kern' Horizontal Kerning in Latin lookup 0 per glyph data 1" e dx=0 dy=0 dh=-14 dv=0 dx=0 dy=0 dh=0 dv=0
PairPos2: "'kern' Horizontal Kerning in Latin lookup 0 per glyph data 1" d dx=0 dy=0 dh=-14 dv=0 dx=0 dy=0 dh=0 dv=0
PairPos2: "'kern' Horizontal Kerning in Latin lookup 0 per glyph data 1" c dx=0 dy=0 dh=-14 dv=0 dx=0 dy=0 dh=0 dv=0
PairPos2: "'kern' Horizontal Kerning in Latin lookup 0 per glyph data 1" A dx=0 dy=0 dh=-14 dv=0 dx=0 dy=0 dh=0 dv=0
PairPos2: "'kern' Horizontal Kerning in Latin lookup 0 per glyph data 1" period dx=0 dy=0 dh=-29 dv=0 dx=0 dy=0 dh=0 dv=0
PairPos2: "'kern' Horizontal Kerning in Latin lookup 0 per glyph data 1" comma dx=0 dy=0 dh=-29 dv=0 dx=0 dy=0 dh=0 dv=0
EndChar

StartChar: X
Encoding: 88 88 59
Width: 381
GlyphClass: 2
Flags: W
LayerCount: 2
Fore
SplineSet
102 700 m 1,0,-1
 196 449 l 1,1,-1
 289 700 l 1,2,-1
 365 700 l 1,3,-1
 231 356 l 1,4,-1
 365 0 l 1,5,-1
 287 0 l 1,6,-1
 189 259 l 1,7,-1
 92 0 l 1,8,-1
 16 0 l 1,9,-1
 153 355 l 1,10,-1
 24 700 l 1,11,-1
 102 700 l 1,0,-1
EndSplineSet
EndChar

StartChar: Y
Encoding: 89 89 60
Width: 374
GlyphClass: 2
Flags: W
LayerCount: 2
Fore
SplineSet
226 0 m 1,0,-1
 148 0 l 1,1,-1
 148 234 l 1,2,-1
 16 700 l 1,3,-1
 94 700 l 1,4,-1
 187 339 l 1,5,-1
 279 700 l 1,6,-1
 357 700 l 1,7,-1
 226 234 l 1,8,-1
 226 0 l 1,0,-1
EndSplineSet
EndChar

StartChar: Z
Encoding: 90 90 61
Width: 351
GlyphClass: 2
Flags: W
LayerCount: 2
Fore
SplineSet
23 0 m 1,0,-1
 23 38 l 1,1,-1
 245 636 l 1,2,-1
 42 636 l 1,3,-1
 42 700 l 1,4,-1
 328 700 l 1,5,-1
 328 662 l 1,6,-1
 106 64 l 1,7,-1
 328 64 l 1,8,-1
 328 0 l 1,9,-1
 23 0 l 1,0,-1
EndSplineSet
EndChar

StartChar: bracketleft
Encoding: 91 91 62
Width: 266
GlyphClass: 2
Flags: W
LayerCount: 2
Fore
SplineSet
63 -100 m 1,0,-1
 63 800 l 1,1,-1
 236 800 l 1,2,-1
 236 736 l 1,3,-1
 142 736 l 1,4,-1
 142 -36 l 1,5,-1
 236 -36 l 1,6,-1
 236 -100 l 1,7,-1
 63 -100 l 1,0,-1
EndSplineSet
EndChar

StartChar: backslash
Encoding: 92 92 63
Width: 290
GlyphClass: 2
Flags: W
LayerCount: 2
Fore
SplineSet
65 752 m 1,0,-1
 237 -52 l 1,1,-1
 185 -52 l 1,2,-1
 13 752 l 1,3,-1
 65 752 l 1,0,-1
EndSplineSet
EndChar

StartChar: bracketright
Encoding: 93 93 64
Width: 266
GlyphClass: 2
Flags: W
LayerCount: 2
Fore
SplineSet
183 800 m 1,0,-1
 183 -100 l 1,1,-1
 10 -100 l 1,2,-1
 10 -36 l 1,3,-1
 104 -36 l 1,4,-1
 104 736 l 1,5,-1
 10 736 l 1,6,-1
 10 800 l 1,7,-1
 183 800 l 1,0,-1
EndSplineSet
EndChar

StartChar: asciicircum
Encoding: 94 94 65
Width: 265
GlyphClass: 2
Flags: W
LayerCount: 2
Fore
SplineSet
132 604 m 1,0,-1
 83 320 l 1,1,-1
 21 320 l 1,2,-1
 99 698 l 1,3,-1
 167 698 l 1,4,-1
 245 320 l 1,5,-1
 183 320 l 1,6,-1
 132 604 l 1,0,-1
EndSplineSet
EndChar

StartChar: underscore
Encoding: 95 95 66
Width: 329
GlyphClass: 2
Flags: W
LayerCount: 2
Fore
SplineSet
42 -62 m 1,0,-1
 42 0 l 1,1,-1
 288 0 l 1,2,-1
 288 -62 l 1,3,-1
 42 -62 l 1,0,-1
EndSplineSet
EndChar

StartChar: grave
Encoding: 96 96 67
Width: 245
GlyphClass: 2
Flags: W
LayerCount: 2
Fore
SplineSet
97 756 m 1,0,-1
 227 638 l 1,1,-1
 205 602 l 1,2,-1
 62 689 l 1,3,-1
 97 756 l 1,0,-1
EndSplineSet
EndChar

StartChar: a
Encoding: 97 97 68
Width: 368
GlyphClass: 2
Flags: W
LayerCount: 2
Fore
SplineSet
73 296.5 m 128,-1,1
 101 331 101 331 153 331 c 128,-1,2
 205 331 205 331 235 291 c 1,3,-1
 235 396 l 2,4,5
 235 492 235 492 175 492 c 0,6,7
 124 492 124 492 78 433 c 1,8,-1
 51 489 l 1,9,10
 74 517 74 517 109.5 536 c 128,-1,11
 145 555 145 555 182 555 c 0,12,13
 312 555 312 555 312 379 c 2,14,-1
 312 0 l 1,15,-1
 265 0 l 1,16,-1
 249 65 l 1,17,18
 238 25 238 25 212.5 5 c 128,-1,19
 187 -15 187 -15 155 -15 c 0,20,21
 101 -15 101 -15 73 19.5 c 128,-1,22
 45 54 45 54 45 149 c 2,23,-1
 45 167 l 2,24,0
 45 262 45 262 73 296.5 c 128,-1,1
171 48 m 0,25,26
 200 48 200 48 216.5 69 c 128,-1,27
 233 90 233 90 235 145 c 1,28,-1
 235 172 l 1,29,30
 233 231 233 231 216.5 254 c 128,-1,31
 200 277 200 277 171 277 c 0,32,33
 121 277 121 277 121 182 c 2,34,-1
 121 143 l 2,35,36
 121 48 121 48 171 48 c 0,25,26
EndSplineSet
EndChar

StartChar: b
Encoding: 98 98 69
Width: 390
GlyphClass: 2
Flags: W
LayerCount: 2
Fore
SplineSet
136 740 m 1,0,-1
 136 475 l 1,1,2
 163 555 163 555 232 555 c 0,3,4
 285 555 285 555 313 510 c 128,-1,5
 341 465 341 465 341 345 c 2,6,-1
 341 195 l 2,7,8
 341 75 341 75 313 30 c 128,-1,9
 285 -15 285 -15 232 -15 c 0,10,11
 153 -15 153 -15 132 96 c 1,12,-1
 110 0 l 1,13,-1
 63 0 l 1,14,-1
 63 740 l 1,15,-1
 136 740 l 1,0,-1
136 270 m 2,16,17
 136 180 136 180 147.5 128 c 128,-1,18
 159 76 159 76 174 61.5 c 128,-1,19
 189 47 189 47 214 47 c 0,20,21
 268 47 268 47 268 171 c 2,22,-1
 268 369 l 2,23,24
 268 493 268 493 215 493 c 0,25,26
 192 493 192 493 176.5 479 c 128,-1,27
 161 465 161 465 149 417 c 128,-1,28
 137 369 137 369 136 284 c 1,29,-1
 136 270 l 2,16,17
EndSplineSet
EndChar

StartChar: c
Encoding: 99 99 70
Width: 346
GlyphClass: 2
Flags: W
LayerCount: 2
Fore
SplineSet
275 22.5 m 128,-1,1
 240 -15 240 -15 179.5 -15 c 128,-1,2
 119 -15 119 -15 84 27.5 c 128,-1,3
 49 70 49 70 49 175 c 2,4,-1
 49 345 l 2,5,6
 49 464 49 464 84 509.5 c 128,-1,7
 119 555 119 555 179.5 555 c 128,-1,8
 240 555 240 555 274 522 c 128,-1,9
 308 489 308 489 315 403 c 1,10,-1
 245 384 l 1,11,12
 241 493 241 493 184 493 c 0,13,14
 155 493 155 493 140 467 c 128,-1,15
 125 441 125 441 125 359 c 2,16,-1
 125 168 l 2,17,18
 125 98 125 98 140.5 73 c 128,-1,19
 156 48 156 48 185 48 c 128,-1,20
 214 48 214 48 230 72.5 c 128,-1,21
 246 97 246 97 253 167 c 1,22,-1
 318 157 l 1,23,0
 310 60 310 60 275 22.5 c 128,-1,1
EndSplineSet
EndChar

StartChar: d
Encoding: 100 100 71
Width: 392
GlyphClass: 2
Flags: W
LayerCount: 2
Fore
SplineSet
158 -15 m 0,0,1
 106 -15 106 -15 77.5 30.5 c 128,-1,2
 49 76 49 76 49 195 c 2,3,-1
 49 345 l 2,4,5
 49 464 49 464 77.5 509.5 c 128,-1,6
 106 555 106 555 158 555 c 0,7,8
 230 555 230 555 256 469 c 1,9,-1
 256 740 l 1,10,-1
 329 740 l 1,11,-1
 329 0 l 1,12,-1
 282 0 l 1,13,-1
 258 104 l 1,14,15
 238 -15 238 -15 158 -15 c 0,0,1
253 270 m 128,-1,17
 253 361 253 361 241.5 412.5 c 128,-1,18
 230 464 230 464 214.5 478.5 c 128,-1,19
 199 493 199 493 174 493 c 0,20,21
 123 493 123 493 123 369 c 2,22,-1
 123 171 l 2,23,24
 123 102 123 102 137 74.5 c 128,-1,25
 151 47 151 47 176 47 c 128,-1,26
 201 47 201 47 216 61.5 c 128,-1,27
 231 76 231 76 242 127.5 c 128,-1,16
 253 179 253 179 253 270 c 128,-1,17
EndSplineSet
EndChar

StartChar: e
Encoding: 101 101 72
Width: 379
GlyphClass: 2
Flags: W
LayerCount: 2
Fore
SplineSet
287 19 m 128,-1,1
 253 -15 253 -15 188.5 -15 c 128,-1,2
 124 -15 124 -15 86.5 30.5 c 128,-1,3
 49 76 49 76 49 195 c 2,4,-1
 49 345 l 2,5,6
 49 464 49 464 86.5 509.5 c 128,-1,7
 124 555 124 555 192 555 c 128,-1,8
 260 555 260 555 295 510 c 128,-1,9
 330 465 330 465 330 345 c 2,10,-1
 330 238 l 1,11,-1
 125 238 l 1,12,-1
 125 181 l 2,13,14
 125 47 125 47 189 47 c 0,15,16
 220 47 220 47 237 69 c 128,-1,17
 254 91 254 91 261 151 c 1,18,-1
 328 140 l 1,19,0
 321 53 321 53 287 19 c 128,-1,1
125 359 m 2,20,-1
 125 302 l 1,21,-1
 253 302 l 1,22,-1
 253 359 l 2,23,24
 253 493 253 493 190 493 c 0,25,26
 125 493 125 493 125 359 c 2,20,-1
EndSplineSet
EndChar

StartChar: f
Encoding: 102 102 73
Width: 216
GlyphClass: 2
Flags: W
LayerCount: 2
Fore
SplineSet
222 678 m 1,0,1
 205 688 205 688 184 688 c 0,2,3
 138 688 138 688 138 560 c 2,4,-1
 138 540 l 1,5,-1
 201 540 l 1,6,-1
 201 478 l 1,7,-1
 138 478 l 1,8,-1
 138 0 l 1,9,-1
 62 0 l 1,10,-1
 62 478 l 1,11,-1
 19 478 l 1,12,-1
 19 540 l 1,13,-1
 62 540 l 1,14,-1
 62 545 l 2,15,16
 62 664 62 664 92 709.5 c 128,-1,17
 122 755 122 755 176 755 c 0,18,19
 210 755 210 755 238 743 c 1,20,-1
 222 678 l 1,0,1
EndSplineSet
PairPos2: "'kern' Horizontal Kerning in Latin lookup 0 per glyph data 1" braceright dx=0 dy=0 dh=40 dv=0 dx=0 dy=0 dh=0 dv=0
PairPos2: "'kern' Horizontal Kerning in Latin lookup 0 per glyph data 1" bracketright dx=0 dy=0 dh=40 dv=0 dx=0 dy=0 dh=0 dv=0
PairPos2: "'kern' Horizontal Kerning in Latin lookup 0 per glyph data 1" asterisk dx=0 dy=0 dh=36 dv=0 dx=0 dy=0 dh=0 dv=0
PairPos2: "'kern' Horizontal Kerning in Latin lookup 0 per glyph data 1" parenright dx=0 dy=0 dh=40 dv=0 dx=0 dy=0 dh=0 dv=0
PairPos2: "'kern' Horizontal Kerning in Latin lookup 0 per glyph data 1" quotesingle dx=0 dy=0 dh=36 dv=0 dx=0 dy=0 dh=0 dv=0
PairPos2: "'kern' Horizontal Kerning in Latin lookup 0 per glyph data 1" quotedbl dx=0 dy=0 dh=36 dv=0 dx=0 dy=0 dh=0 dv=0
EndChar

StartChar: g
Encoding: 103 103 74
Width: 373
GlyphClass: 2
Flags: W
LayerCount: 2
Fore
SplineSet
369 555 m 1,0,-1
 369 476 l 1,1,-1
 310 476 l 1,2,3
 327 433 327 433 327 362 c 2,4,-1
 327 353 l 2,5,6
 327 242 327 242 292.5 201 c 128,-1,7
 258 160 258 160 186 160 c 0,8,9
 158 160 158 160 135 166 c 1,10,11
 113 150 113 150 113 116 c 0,12,13
 113 56 113 56 168 56 c 2,14,-1
 230 56 l 2,15,16
 354 56 354 56 354 -69.5 c 128,-1,17
 354 -195 354 -195 230 -195 c 2,18,-1
 142 -195 l 2,19,20
 19 -195 19 -195 19 -69 c 0,21,22
 19 17 19 17 77 44 c 1,23,24
 53 63 53 63 53 113 c 128,-1,25
 53 163 53 163 96 185 c 1,26,27
 47 226 47 226 47 353 c 2,28,-1
 47 362 l 2,29,30
 47 473 47 473 81 514 c 128,-1,31
 115 555 115 555 180.5 555 c 128,-1,32
 246 555 246 555 280 524 c 1,33,-1
 358 555 l 1,34,-1
 369 555 l 1,0,-1
251 335 m 2,35,-1
 251 380 l 2,36,37
 251 448 251 448 234.5 473 c 128,-1,38
 218 498 218 498 187.5 498 c 128,-1,39
 157 498 157 498 140 473 c 128,-1,40
 123 448 123 448 123 380 c 2,41,-1
 123 335 l 2,42,43
 123 267 123 267 140 242 c 128,-1,44
 157 217 157 217 187.5 217 c 128,-1,45
 218 217 218 217 234.5 242 c 128,-1,46
 251 267 251 267 251 335 c 2,35,-1
236 -6 m 2,47,-1
 136 -6 l 2,48,49
 91 -6 91 -6 91 -68.5 c 128,-1,50
 91 -131 91 -131 136 -131 c 2,51,-1
 236 -131 l 2,52,53
 281 -131 281 -131 281 -68.5 c 128,-1,54
 281 -6 281 -6 236 -6 c 2,47,-1
EndSplineSet
EndChar

StartChar: h
Encoding: 104 104 75
Width: 398
GlyphClass: 2
Flags: W
LayerCount: 2
Fore
SplineSet
140 0 m 1,0,-1
 63 0 l 1,1,-1
 63 740 l 1,2,-1
 136 740 l 1,3,-1
 136 476 l 1,4,5
 160 555 160 555 235 555 c 0,6,7
 287 555 287 555 314.5 509 c 128,-1,8
 342 463 342 463 342 341 c 2,9,-1
 342 0 l 1,10,-1
 265 0 l 1,11,-1
 265 368 l 2,12,13
 265 493 265 493 216 493 c 0,14,15
 142 493 142 493 140 279 c 1,16,-1
 140 0 l 1,0,-1
EndSplineSet
EndChar

StartChar: i
Encoding: 105 105 76
Width: 203
GlyphClass: 2
Flags: W
LayerCount: 2
Fore
SplineSet
63 0 m 1,0,-1
 63 540 l 1,1,-1
 140 540 l 1,2,-1
 140 0 l 1,3,-1
 63 0 l 1,0,-1
60 646 m 1,4,-1
 60 740 l 1,5,-1
 143 740 l 1,6,-1
 143 646 l 1,7,-1
 60 646 l 1,4,-1
EndSplineSet
EndChar

StartChar: j
Encoding: 106 106 77
Width: 205
GlyphClass: 2
Flags: W
LayerCount: 2
Fore
SplineSet
-19 -118 m 1,0,1
 -2 -128 -2 -128 18 -128 c 0,2,3
 65 -128 65 -128 65 0 c 2,4,-1
 65 540 l 1,5,-1
 141 540 l 1,6,-1
 141 15 l 2,7,8
 141 -104 141 -104 111 -149.5 c 128,-1,9
 81 -195 81 -195 27 -195 c 0,10,11
 -7 -195 -7 -195 -34 -183 c 1,12,-1
 -19 -118 l 1,0,1
61 646 m 1,13,-1
 61 740 l 1,14,-1
 145 740 l 1,15,-1
 145 646 l 1,16,-1
 61 646 l 1,13,-1
EndSplineSet
EndChar

StartChar: k
Encoding: 107 107 78
Width: 359
GlyphClass: 2
Flags: W
LayerCount: 2
Fore
SplineSet
140 0 m 1,0,-1
 63 0 l 1,1,-1
 63 740 l 1,2,-1
 140 740 l 1,3,-1
 140 327 l 1,4,-1
 262 540 l 1,5,-1
 342 540 l 1,6,-1
 211 323 l 1,7,-1
 359 0 l 1,8,-1
 276 0 l 1,9,-1
 166 248 l 1,10,-1
 140 204 l 1,11,-1
 140 0 l 1,0,-1
EndSplineSet
EndChar

StartChar: l
Encoding: 108 108 79
Width: 203
GlyphClass: 2
Flags: W
LayerCount: 2
Fore
SplineSet
63 0 m 1,0,-1
 63 740 l 1,1,-1
 140 740 l 1,2,-1
 140 0 l 1,3,-1
 63 0 l 1,0,-1
EndSplineSet
EndChar

StartChar: m
Encoding: 109 109 80
Width: 587
GlyphClass: 2
Flags: W
LayerCount: 2
Fore
SplineSet
140 0 m 1,0,-1
 63 0 l 1,1,-1
 63 540 l 1,2,-1
 110 540 l 1,3,-1
 130 455 l 1,4,5
 149 555 149 555 229 555 c 0,6,7
 305 555 305 555 325 457 c 1,8,9
 346 555 346 555 424 555 c 0,10,11
 475 555 475 555 502.5 509 c 128,-1,12
 530 463 530 463 530 341 c 2,13,-1
 530 0 l 1,14,-1
 453 0 l 1,15,-1
 453 368 l 2,16,17
 453 493 453 493 406 493 c 0,18,19
 337 493 337 493 335 279 c 1,20,-1
 335 0 l 1,21,-1
 258 0 l 1,22,-1
 258 368 l 2,23,24
 258 493 258 493 212 493 c 0,25,26
 142 493 142 493 140 279 c 1,27,-1
 140 0 l 1,0,-1
EndSplineSet
EndChar

StartChar: n
Encoding: 110 110 81
Width: 398
GlyphClass: 2
Flags: W
LayerCount: 2
Fore
SplineSet
140 0 m 1,0,-1
 63 0 l 1,1,-1
 63 540 l 1,2,-1
 110 540 l 1,3,-1
 130 454 l 1,4,5
 151 555 151 555 235 555 c 0,6,7
 287 555 287 555 314.5 509 c 128,-1,8
 342 463 342 463 342 341 c 2,9,-1
 342 0 l 1,10,-1
 265 0 l 1,11,-1
 265 368 l 2,12,13
 265 493 265 493 216 493 c 0,14,15
 142 493 142 493 140 279 c 1,16,-1
 140 0 l 1,0,-1
EndSplineSet
EndChar

StartChar: o
Encoding: 111 111 82
Width: 379
GlyphClass: 2
Flags: W
LayerCount: 2
Fore
SplineSet
330 345 m 2,0,-1
 330 195 l 2,1,2
 330 76 330 76 293.5 30.5 c 128,-1,3
 257 -15 257 -15 189.5 -15 c 128,-1,4
 122 -15 122 -15 85.5 30.5 c 128,-1,5
 49 76 49 76 49 195 c 2,6,-1
 49 345 l 2,7,8
 49 464 49 464 85.5 509.5 c 128,-1,9
 122 555 122 555 189.5 555 c 128,-1,10
 257 555 257 555 293.5 509.5 c 128,-1,11
 330 464 330 464 330 345 c 2,0,-1
253 181 m 2,12,-1
 253 359 l 2,13,14
 253 493 253 493 190 493 c 0,15,16
 125 493 125 493 125 359 c 2,17,-1
 125 181 l 2,18,19
 125 47 125 47 190 47 c 0,20,21
 253 47 253 47 253 181 c 2,12,-1
EndSplineSet
EndChar

StartChar: p
Encoding: 112 112 83
Width: 390
GlyphClass: 2
Flags: W
LayerCount: 2
Fore
SplineSet
63 540 m 1,0,-1
 110 540 l 1,1,-1
 130 453 l 1,2,3
 153 555 153 555 232 555 c 0,4,5
 285 555 285 555 313 510 c 128,-1,6
 341 465 341 465 341 345 c 2,7,-1
 341 195 l 2,8,9
 341 75 341 75 313 30 c 128,-1,10
 285 -15 285 -15 232 -15 c 0,11,12
 159 -15 159 -15 136 79 c 1,13,-1
 136 -180 l 1,14,-1
 63 -180 l 1,15,-1
 63 540 l 1,0,-1
136 270 m 2,16,17
 136 180 136 180 147.5 128 c 128,-1,18
 159 76 159 76 174 61.5 c 128,-1,19
 189 47 189 47 214 47 c 0,20,21
 268 47 268 47 268 171 c 2,22,-1
 268 369 l 2,23,24
 268 493 268 493 215 493 c 0,25,26
 192 493 192 493 176.5 479 c 128,-1,27
 161 465 161 465 149 417 c 128,-1,28
 137 369 137 369 136 284 c 1,29,-1
 136 270 l 2,16,17
EndSplineSet
EndChar

StartChar: q
Encoding: 113 113 84
Width: 390
GlyphClass: 2
Flags: W
LayerCount: 2
Fore
SplineSet
326 540 m 1,0,-1
 326 -180 l 1,1,-1
 253 -180 l 1,2,-1
 253 79 l 1,3,4
 229 -15 229 -15 158 -15 c 0,5,6
 106 -15 106 -15 77.5 30.5 c 128,-1,7
 49 76 49 76 49 195 c 2,8,-1
 49 345 l 2,9,10
 49 464 49 464 77.5 509.5 c 128,-1,11
 106 555 106 555 158 555 c 0,12,13
 236 555 236 555 259 456 c 1,14,-1
 279 540 l 1,15,-1
 326 540 l 1,0,-1
174 493 m 0,16,17
 123 493 123 493 123 369 c 2,18,-1
 123 171 l 2,19,20
 123 102 123 102 137 74.5 c 128,-1,21
 151 47 151 47 179 47 c 0,22,23
 195 47 195 47 206.5 55 c 128,-1,24
 218 63 218 63 229 84 c 0,25,26
 251 126 251 126 253 256 c 1,27,-1
 253 284 l 1,28,29
 252 369 252 369 240.5 417 c 128,-1,30
 229 465 229 465 213.5 479 c 128,-1,31
 198 493 198 493 174 493 c 0,16,17
EndSplineSet
EndChar

StartChar: r
Encoding: 114 114 85
Width: 258
GlyphClass: 2
Flags: W
LayerCount: 2
Fore
SplineSet
230 555 m 1,0,-1
 250 554 l 1,1,-1
 244 469 l 1,2,3
 230 476 230 476 217 476 c 0,4,5
 141 476 141 476 140 318 c 1,6,-1
 140 0 l 1,7,-1
 63 0 l 1,8,-1
 63 540 l 1,9,-1
 110 540 l 1,10,-1
 132 448 l 1,11,12
 152 555 152 555 230 555 c 1,0,-1
EndSplineSet
EndChar

StartChar: s
Encoding: 115 115 86
Width: 356
GlyphClass: 2
Flags: W
LayerCount: 2
Fore
SplineSet
241 121 m 0,0,1
 241 178 241 178 199 208 c 2,2,-1
 130 257 l 1,3,4
 53 308 53 308 53 408 c 0,5,6
 53 489 53 489 87.5 522 c 128,-1,7
 122 555 122 555 181 555 c 128,-1,8
 240 555 240 555 273 524 c 128,-1,9
 306 493 306 493 313 411 c 1,10,-1
 244 397 l 1,11,12
 239 494 239 494 182.5 494 c 128,-1,13
 126 494 126 494 126 415 c 0,14,15
 126 351 126 351 168 320 c 1,16,-1
 234 274 l 2,17,18
 259 257 259 257 273.5 243.5 c 128,-1,19
 288 230 288 230 301.5 198.5 c 128,-1,20
 315 167 315 167 315 125 c 0,21,22
 315 48 315 48 279 16.5 c 128,-1,23
 243 -15 243 -15 181.5 -15 c 128,-1,24
 120 -15 120 -15 85 21.5 c 128,-1,25
 50 58 50 58 42 150 c 1,26,-1
 113 163 l 1,27,28
 117 98 117 98 133.5 72 c 128,-1,29
 150 46 150 46 179 46 c 0,30,31
 241 46 241 46 241 121 c 0,0,1
EndSplineSet
EndChar

StartChar: t
Encoding: 116 116 87
Width: 239
GlyphClass: 2
Flags: W
LayerCount: 2
Fore
SplineSet
20 478 m 1,0,-1
 20 540 l 1,1,-1
 73 540 l 1,2,-1
 100 673 l 1,3,-1
 146 673 l 1,4,-1
 146 540 l 1,5,-1
 217 540 l 1,6,-1
 217 478 l 1,7,-1
 146 478 l 1,8,-1
 146 102 l 2,9,10
 146 49 146 49 175 49 c 0,11,12
 194 49 194 49 215 65 c 1,13,-1
 230 6 l 1,14,15
 196 -15 196 -15 160 -15 c 0,16,17
 70 -15 70 -15 70 118 c 2,18,-1
 70 478 l 1,19,-1
 20 478 l 1,0,-1
EndSplineSet
EndChar

StartChar: u
Encoding: 117 117 88
Width: 391
GlyphClass: 2
Flags: W
LayerCount: 2
Fore
SplineSet
251 540 m 1,0,-1
 327 540 l 1,1,-1
 327 0 l 1,2,-1
 280 0 l 1,3,-1
 264 66 l 1,4,5
 241 -15 241 -15 167 -15 c 0,6,7
 112 -15 112 -15 84 19 c 128,-1,8
 56 53 56 53 56 149 c 2,9,-1
 56 540 l 1,10,-1
 132 540 l 1,11,-1
 132 143 l 2,12,13
 132 88 132 88 145.5 68 c 128,-1,14
 159 48 159 48 186 48 c 0,15,16
 247 48 247 48 251 145 c 1,17,-1
 251 540 l 1,0,-1
EndSplineSet
EndChar

StartChar: v
Encoding: 118 118 89
Width: 342
GlyphClass: 2
Flags: W
LayerCount: 2
Fore
SplineSet
94 540 m 1,0,-1
 171 121 l 1,1,-1
 249 540 l 1,2,-1
 326 540 l 1,3,-1
 213 0 l 1,4,-1
 130 0 l 1,5,-1
 16 540 l 1,6,-1
 94 540 l 1,0,-1
EndSplineSet
EndChar

StartChar: w
Encoding: 119 119 90
Width: 544
GlyphClass: 2
Flags: W
LayerCount: 2
Fore
SplineSet
344 0 m 1,0,-1
 272 420 l 1,1,-1
 200 0 l 1,2,-1
 123 0 l 1,3,-1
 24 540 l 1,4,-1
 100 540 l 1,5,-1
 165 136 l 1,6,-1
 233 540 l 1,7,-1
 310 540 l 1,8,-1
 380 137 l 1,9,-1
 445 540 l 1,10,-1
 520 540 l 1,11,-1
 422 0 l 1,12,-1
 344 0 l 1,0,-1
EndSplineSet
EndChar

StartChar: x
Encoding: 120 120 91
Width: 348
GlyphClass: 2
Flags: W
LayerCount: 2
Fore
SplineSet
104 540 m 1,0,-1
 182 355 l 1,1,-1
 249 540 l 1,2,-1
 328 540 l 1,3,-1
 217 272 l 1,4,-1
 332 0 l 1,5,-1
 247 0 l 1,6,-1
 166 190 l 1,7,-1
 97 0 l 1,8,-1
 17 0 l 1,9,-1
 131 274 l 1,10,-1
 19 540 l 1,11,-1
 104 540 l 1,0,-1
EndSplineSet
EndChar

StartChar: y
Encoding: 121 121 92
Width: 349
GlyphClass: 2
Flags: W
LayerCount: 2
Fore
SplineSet
153.5 -166 m 128,-1,1
 125 -195 125 -195 82.5 -195 c 128,-1,2
 40 -195 40 -195 -7 -150 c 1,3,-1
 20 -98 l 1,4,5
 57 -131 57 -131 84 -131 c 0,6,7
 126 -131 126 -131 140 -49 c 2,8,-1
 148 -3 l 1,9,-1
 16 540 l 1,10,-1
 93 540 l 1,11,-1
 179 148 l 1,12,-1
 254 540 l 1,13,-1
 332 540 l 1,14,-1
 194 -82 l 2,15,0
 182 -137 182 -137 153.5 -166 c 128,-1,1
EndSplineSet
EndChar

StartChar: z
Encoding: 122 122 93
Width: 320
GlyphClass: 2
Flags: W
LayerCount: 2
Fore
SplineSet
30 0 m 1,0,-1
 30 41 l 1,1,-1
 207 478 l 1,2,-1
 41 478 l 1,3,-1
 41 540 l 1,4,-1
 291 540 l 1,5,-1
 291 499 l 1,6,-1
 111 62 l 1,7,-1
 292 62 l 1,8,-1
 292 0 l 1,9,-1
 30 0 l 1,0,-1
EndSplineSet
EndChar

StartChar: braceleft
Encoding: 123 123 94
Width: 282
GlyphClass: 2
Flags: W
LayerCount: 2
Fore
SplineSet
85 106 m 2,0,-1
 85 202 l 2,1,2
 85 263 85 263 72.5 292.5 c 128,-1,3
 60 322 60 322 23 322 c 0,4,5
 21 322 21 322 20 322 c 1,6,-1
 20 379 l 1,7,8
 60 379 60 379 72.5 409 c 128,-1,9
 85 439 85 439 85 499 c 2,10,-1
 85 595 l 2,11,12
 85 782 85 782 181 803 c 1,13,-1
 208 806 l 1,14,15
 238 806 238 806 260 793 c 1,16,-1
 245 728 l 1,17,18
 228 738 228 738 211 738 c 0,19,20
 184 738 184 738 173 711 c 128,-1,21
 162 684 162 684 162 616 c 2,22,-1
 162 535 l 2,23,24
 162 401 162 401 116 350 c 1,25,26
 162 299 162 299 162 166 c 2,27,-1
 162 85 l 2,28,29
 162 17 162 17 173 -10 c 128,-1,30
 184 -37 184 -37 211 -37 c 0,31,32
 228 -37 228 -37 245 -27 c 1,33,-1
 260 -92 l 1,34,35
 238 -105 238 -105 208 -105 c 1,36,-1
 181 -102 l 1,37,38
 85 -81 85 -81 85 106 c 2,0,-1
EndSplineSet
EndChar

StartChar: bar
Encoding: 124 124 95
Width: 234
GlyphClass: 2
Flags: W
LayerCount: 2
Fore
SplineSet
91 -52 m 1,0,-1
 91 752 l 1,1,-1
 143 752 l 1,2,-1
 143 -52 l 1,3,-1
 91 -52 l 1,0,-1
EndSplineSet
EndChar

StartChar: braceright
Encoding: 125 125 96
Width: 282
GlyphClass: 2
Flags: W
LayerCount: 2
Fore
SplineSet
53 -37 m 0,0,1
 80 -37 80 -37 91 -10 c 128,-1,2
 102 17 102 17 102 85 c 2,3,-1
 102 166 l 2,4,5
 102 299 102 299 148 350 c 1,6,7
 102 401 102 401 102 535 c 2,8,-1
 102 616 l 2,9,10
 102 684 102 684 91 711 c 128,-1,11
 80 738 80 738 53 738 c 0,12,13
 36 738 36 738 19 728 c 1,14,-1
 4 793 l 1,15,16
 26 806 26 806 56 806 c 1,17,-1
 83 803 l 1,18,19
 179 782 179 782 179 595 c 2,20,-1
 179 499 l 2,21,22
 179 439 179 439 191.5 409 c 128,-1,23
 204 379 204 379 244 379 c 1,24,-1
 244 322 l 1,25,26
 243 322 243 322 241 322 c 0,27,28
 204 322 204 322 191.5 292.5 c 128,-1,29
 179 263 179 263 179 202 c 2,30,-1
 179 106 l 2,31,32
 179 -81 179 -81 83 -102 c 1,33,-1
 56 -105 l 1,34,35
 26 -105 26 -105 4 -92 c 1,36,-1
 19 -27 l 1,37,38
 36 -37 36 -37 53 -37 c 0,0,1
EndSplineSet
EndChar

StartChar: asciitilde
Encoding: 126 126 97
Width: 377
GlyphClass: 2
Flags: W
LayerCount: 2
Fore
SplineSet
56 381 m 1,0,1
 81 364 81 364 109 364 c 128,-1,2
 137 364 137 364 187.5 380.5 c 128,-1,3
 238 397 238 397 267 397 c 128,-1,4
 296 397 296 397 320 381 c 1,5,-1
 320 319 l 1,6,7
 294 336 294 336 266 336 c 128,-1,8
 238 336 238 336 188 318.5 c 128,-1,9
 138 301 138 301 109.5 301 c 128,-1,10
 81 301 81 301 56 319 c 1,11,-1
 56 381 l 1,0,1
EndSplineSet
EndChar

StartChar: exclamdown
Encoding: 161 161 99
Width: 200
GlyphClass: 2
Flags: W
LayerCount: 2
Fore
SplineSet
56 -160 m 1,0,-1
 73 373 l 1,1,-1
 129 373 l 1,2,-1
 144 -160 l 1,3,-1
 56 -160 l 1,0,-1
61 448 m 1,4,-1
 61 540 l 1,5,-1
 140 540 l 1,6,-1
 140 448 l 1,7,-1
 61 448 l 1,4,-1
EndSplineSet
EndChar

StartChar: cent
Encoding: 162 162 100
Width: 351
GlyphClass: 2
Flags: W
LayerCount: 2
Fore
SplineSet
160 -15 m 1,0,-1
 160 86 l 1,1,2
 49 100 49 100 49 275 c 2,3,-1
 49 405 l 2,4,5
 49 512 49 512 78 559 c 128,-1,6
 107 606 107 606 160 613 c 1,7,-1
 160 715 l 1,8,-1
 212 715 l 1,9,-1
 212 613 l 1,10,11
 308 601 308 601 320 463 c 1,12,-1
 251 444 l 1,13,14
 245 553 245 553 187 553 c 0,15,16
 156 553 156 553 140.5 527 c 128,-1,17
 125 501 125 501 125 419 c 2,18,-1
 125 268 l 2,19,20
 125 198 125 198 141 173 c 128,-1,21
 157 148 157 148 187.5 148 c 128,-1,22
 218 148 218 148 234.5 173 c 128,-1,23
 251 198 251 198 257 267 c 1,24,-1
 324 257 l 1,25,26
 310 102 310 102 212 87 c 1,27,-1
 212 -15 l 1,28,-1
 160 -15 l 1,0,-1
EndSplineSet
EndChar

StartChar: sterling
Encoding: 163 163 101
Width: 368
GlyphClass: 2
Flags: W
LayerCount: 2
Fore
SplineSet
149 503 m 2,0,-1
 149 368 l 1,1,-1
 272 368 l 1,2,-1
 272 316 l 1,3,-1
 149 316 l 1,4,-1
 149 64 l 1,5,-1
 352 64 l 1,6,-1
 352 0 l 1,7,-1
 41 0 l 1,8,-1
 41 33 l 1,9,-1
 69 43 l 1,10,-1
 69 316 l 1,11,-1
 30 316 l 1,12,-1
 30 368 l 1,13,-1
 69 368 l 1,14,-1
 69 486 l 2,15,16
 69 616 69 616 107 665.5 c 128,-1,17
 145 715 145 715 209 715 c 128,-1,18
 273 715 273 715 307 680 c 128,-1,19
 341 645 341 645 349 555 c 1,20,-1
 276 537 l 1,21,22
 271 602 271 602 256.5 626 c 128,-1,23
 242 650 242 650 212.5 650 c 128,-1,24
 183 650 183 650 166 618.5 c 128,-1,25
 149 587 149 587 149 503 c 2,0,-1
EndSplineSet
EndChar

StartChar: yen
Encoding: 165 165 102
Width: 388
GlyphClass: 2
Flags: W
LayerCount: 2
Fore
SplineSet
341 364 m 1,0,-1
 341 312 l 1,1,-1
 258 312 l 1,2,-1
 235 234 l 1,3,-1
 235 214 l 1,4,-1
 341 214 l 1,5,-1
 341 162 l 1,6,-1
 235 162 l 1,7,-1
 235 0 l 1,8,-1
 151 0 l 1,9,-1
 151 162 l 1,10,-1
 46 162 l 1,11,-1
 46 214 l 1,12,-1
 151 214 l 1,13,-1
 151 234 l 1,14,-1
 128 312 l 1,15,-1
 46 312 l 1,16,-1
 46 364 l 1,17,-1
 113 364 l 1,18,-1
 16 700 l 1,19,-1
 99 700 l 1,20,-1
 193 346 l 1,21,-1
 288 700 l 1,22,-1
 371 700 l 1,23,-1
 273 364 l 1,24,-1
 341 364 l 1,0,-1
EndSplineSet
EndChar

StartChar: brokenbar
Encoding: 166 166 103
Width: 234
GlyphClass: 2
Flags: W
LayerCount: 2
Fore
SplineSet
91 448 m 1,0,-1
 91 752 l 1,1,-1
 143 752 l 1,2,-1
 143 448 l 1,3,-1
 91 448 l 1,0,-1
91 -52 m 1,4,-1
 91 252 l 1,5,-1
 143 252 l 1,6,-1
 143 -52 l 1,7,-1
 91 -52 l 1,4,-1
EndSplineSet
EndChar

StartChar: section
Encoding: 167 167 104
Width: 340
GlyphClass: 2
Flags: W
LayerCount: 2
Fore
SplineSet
227 -23 m 0,0,1
 227 38 227 38 186 72 c 1,2,-1
 124 119 l 1,3,4
 52 172 52 172 52 269 c 128,-1,5
 52 366 52 366 99 400 c 1,6,7
 53 448 53 448 53 531 c 128,-1,8
 53 614 53 614 86 648 c 128,-1,9
 119 682 119 682 174.5 682 c 128,-1,10
 230 682 230 682 261.5 653.5 c 128,-1,11
 293 625 293 625 299 549 c 1,12,-1
 231 534 l 1,13,14
 227 623 227 623 175 623 c 0,15,16
 125 623 125 623 125 538 c 0,17,18
 125 502 125 502 133 479.5 c 128,-1,19
 141 457 141 457 163 439 c 2,20,-1
 223 392 l 2,21,22
 246 374 246 374 259.5 360.5 c 128,-1,23
 273 347 273 347 286 315 c 128,-1,24
 299 283 299 283 299 241 c 0,25,26
 299 145 299 145 243 114 c 1,27,28
 297 64 297 64 297 -17 c 128,-1,29
 297 -98 297 -98 263 -130 c 128,-1,30
 229 -162 229 -162 171 -162 c 128,-1,31
 113 -162 113 -162 80.5 -129 c 128,-1,32
 48 -96 48 -96 42 -11 c 1,33,-1
 108 0 l 1,34,35
 115 -104 115 -104 167 -104 c 0,36,37
 227 -104 227 -104 227 -23 c 0,0,1
193 154 m 1,38,39
 227 169 227 169 227 234 c 128,-1,40
 227 299 227 299 188 331 c 1,41,-1
 147 361 l 1,42,43
 122 339 122 339 122 278 c 0,44,45
 122 242 122 242 130 220.5 c 128,-1,46
 138 199 138 199 160 180 c 1,47,-1
 193 154 l 1,38,39
EndSplineSet
EndChar

StartChar: dieresis
Encoding: 168 168 105
Width: 328
GlyphClass: 2
Flags: W
LayerCount: 2
Fore
SplineSet
54 646 m 1,0,-1
 54 740 l 1,1,-1
 135 740 l 1,2,-1
 135 646 l 1,3,-1
 54 646 l 1,0,-1
194 646 m 1,4,-1
 194 740 l 1,5,-1
 274 740 l 1,6,-1
 274 646 l 1,7,-1
 194 646 l 1,4,-1
EndSplineSet
EndChar

StartChar: copyright
Encoding: 169 169 106
Width: 527
GlyphClass: 2
Flags: W
LayerCount: 2
Fore
SplineSet
229 364.5 m 128,-1,1
 240 345 240 345 261.5 345 c 128,-1,2
 283 345 283 345 294.5 362 c 128,-1,3
 306 379 306 379 310 426 c 1,4,-1
 360 420 l 1,5,6
 354 354 354 354 329.5 327 c 128,-1,7
 305 300 305 300 260 300 c 128,-1,8
 215 300 215 300 189 332 c 128,-1,9
 163 364 163 364 163 448 c 2,10,-1
 163 607 l 2,11,12
 163 691 163 691 189 723 c 128,-1,13
 215 755 215 755 259 755 c 128,-1,14
 303 755 303 755 326.5 732 c 128,-1,15
 350 709 350 709 356 650 c 1,16,-1
 304 637 l 1,17,18
 300 679 300 679 290 694.5 c 128,-1,19
 280 710 280 710 260 710 c 128,-1,20
 240 710 240 710 229 690 c 128,-1,21
 218 670 218 670 218 617 c 2,22,-1
 218 435 l 2,23,0
 218 384 218 384 229 364.5 c 128,-1,1
471 570 m 2,24,-1
 471 484 l 2,25,26
 471 331 471 331 417 273 c 128,-1,27
 363 215 363 215 263 215 c 128,-1,28
 163 215 163 215 109.5 273 c 128,-1,29
 56 331 56 331 56 484 c 2,30,-1
 56 570 l 2,31,32
 56 723 56 723 109.5 781 c 128,-1,33
 163 839 163 839 263 839 c 128,-1,34
 363 839 363 839 417 781 c 128,-1,35
 471 723 471 723 471 570 c 2,24,-1
438 484 m 2,36,-1
 438 570 l 2,37,38
 438 700 438 700 392.5 749.5 c 128,-1,39
 347 799 347 799 263 799 c 128,-1,40
 179 799 179 799 134 749.5 c 128,-1,41
 89 700 89 700 89 570 c 2,42,-1
 89 484 l 2,43,44
 89 354 89 354 134 304.5 c 128,-1,45
 179 255 179 255 263 255 c 128,-1,46
 347 255 347 255 392.5 304.5 c 128,-1,47
 438 354 438 354 438 484 c 2,36,-1
EndSplineSet
EndChar

StartChar: ordfeminine
Encoding: 170 170 107
Width: 279
GlyphClass: 2
Flags: W
LayerCount: 2
Fore
SplineSet
59.5 533 m 128,-1,1
 79 557 79 557 115 557 c 128,-1,2
 151 557 151 557 171 531 c 1,3,-1
 171 587 l 2,4,5
 171 665 171 665 131 665 c 0,6,7
 98 665 98 665 65 625 c 1,8,-1
 45 668 l 1,9,10
 84 715 84 715 139 715 c 0,11,12
 232 715 232 715 232 582 c 2,13,-1
 232 326 l 1,14,-1
 194 326 l 1,15,-1
 182 371 l 1,16,17
 165 316 165 316 114 316 c 0,18,19
 79 316 79 316 59.5 340 c 128,-1,20
 40 364 40 364 40 430 c 2,21,-1
 40 443 l 2,22,0
 40 509 40 509 59.5 533 c 128,-1,1
171 437 m 2,23,24
 171 515 171 515 130 515 c 0,25,26
 100 515 100 515 100 454 c 2,27,-1
 100 426 l 2,28,29
 100 364 100 364 130 364 c 0,30,31
 168 364 168 364 171 428 c 1,32,-1
 171 437 l 2,23,24
EndSplineSet
EndChar

StartChar: guillemotleft
Encoding: 171 171 108
Width: 341
GlyphClass: 2
Flags: W
LayerCount: 2
Fore
SplineSet
32 287 m 1,0,-1
 32 353 l 1,1,-1
 137 503 l 1,2,-1
 165 477 l 1,3,-1
 97 320 l 1,4,-1
 165 163 l 1,5,-1
 137 137 l 1,6,-1
 32 287 l 1,0,-1
176 287 m 1,7,-1
 176 353 l 1,8,-1
 281 503 l 1,9,-1
 309 477 l 1,10,-1
 241 320 l 1,11,-1
 309 163 l 1,12,-1
 281 137 l 1,13,-1
 176 287 l 1,7,-1
EndSplineSet
EndChar

StartChar: logicalnot
Encoding: 172 172 109
Width: 377
GlyphClass: 2
Flags: W
LayerCount: 2
Fore
SplineSet
56 319 m 1,0,-1
 56 381 l 1,1,-1
 320 381 l 1,2,-1
 320 174 l 1,3,-1
 264 174 l 1,4,-1
 264 319 l 1,5,-1
 56 319 l 1,0,-1
EndSplineSet
EndChar

StartChar: registered
Encoding: 174 174 110
Width: 527
GlyphClass: 2
Flags: W
LayerCount: 2
Fore
SplineSet
471 570 m 2,0,-1
 471 484 l 2,1,2
 471 331 471 331 417 273 c 128,-1,3
 363 215 363 215 263 215 c 128,-1,4
 163 215 163 215 109.5 273 c 128,-1,5
 56 331 56 331 56 484 c 2,6,-1
 56 570 l 2,7,8
 56 723 56 723 109.5 781 c 128,-1,9
 163 839 163 839 263 839 c 128,-1,10
 363 839 363 839 417 781 c 128,-1,11
 471 723 471 723 471 570 c 2,0,-1
438 484 m 2,12,-1
 438 570 l 2,13,14
 438 700 438 700 392.5 749.5 c 128,-1,15
 347 799 347 799 263 799 c 128,-1,16
 179 799 179 799 134 749.5 c 128,-1,17
 89 700 89 700 89 570 c 2,18,-1
 89 484 l 2,19,20
 89 354 89 354 134 304.5 c 128,-1,21
 179 255 179 255 263 255 c 128,-1,22
 347 255 347 255 392.5 304.5 c 128,-1,23
 438 354 438 354 438 484 c 2,12,-1
174 310 m 1,24,-1
 174 745 l 1,25,-1
 258 745 l 2,26,27
 307 745 307 745 333.5 717 c 128,-1,28
 360 689 360 689 360 616 c 2,29,-1
 360 608 l 2,30,31
 360 516 360 516 311 493 c 1,32,-1
 366 310 l 1,33,-1
 308 310 l 1,34,-1
 257 483 l 1,35,-1
 229 483 l 1,36,-1
 229 310 l 1,37,-1
 174 310 l 1,24,-1
305 602 m 2,38,-1
 305 624 l 2,39,40
 305 701 305 701 258 701 c 2,41,-1
 229 701 l 1,42,-1
 229 526 l 1,43,-1
 258 526 l 2,44,45
 305 526 305 526 305 602 c 2,38,-1
EndSplineSet
EndChar

StartChar: macron
Encoding: 175 175 111
Width: 253
GlyphClass: 2
Flags: W
LayerCount: 2
Fore
SplineSet
32 642 m 1,0,-1
 32 708 l 1,1,-1
 222 708 l 1,2,-1
 222 642 l 1,3,-1
 32 642 l 1,0,-1
EndSplineSet
EndChar

StartChar: degree
Encoding: 176 176 112
Width: 321
GlyphClass: 2
Flags: W
LayerCount: 2
Fore
SplineSet
280 568 m 2,0,-1
 280 463 l 2,1,2
 280 379 280 379 249 347.5 c 128,-1,3
 218 316 218 316 160.5 316 c 128,-1,4
 103 316 103 316 72 347.5 c 128,-1,5
 41 379 41 379 41 463 c 2,6,-1
 41 568 l 2,7,8
 41 651 41 651 72 683 c 128,-1,9
 103 715 103 715 160.5 715 c 128,-1,10
 218 715 218 715 249 683 c 128,-1,11
 280 651 280 651 280 568 c 2,0,-1
218 453 m 2,12,-1
 218 577 l 2,13,14
 218 666 218 666 160.5 666 c 128,-1,15
 103 666 103 666 103 577 c 2,16,-1
 103 453 l 2,17,18
 103 403 103 403 118 384 c 128,-1,19
 133 365 133 365 161 365 c 0,20,21
 218 365 218 365 218 453 c 2,12,-1
EndSplineSet
EndChar

StartChar: plusminus
Encoding: 177 177 113
Width: 377
GlyphClass: 2
Flags: W
LayerCount: 2
Fore
SplineSet
56 319 m 1,0,-1
 56 381 l 1,1,-1
 159 381 l 1,2,-1
 159 529 l 1,3,-1
 218 529 l 1,4,-1
 218 381 l 1,5,-1
 320 381 l 1,6,-1
 320 319 l 1,7,-1
 218 319 l 1,8,-1
 218 171 l 1,9,-1
 159 171 l 1,10,-1
 159 319 l 1,11,-1
 56 319 l 1,0,-1
56 0 m 1,12,-1
 56 62 l 1,13,-1
 320 62 l 1,14,-1
 320 0 l 1,15,-1
 56 0 l 1,12,-1
EndSplineSet
EndChar

StartChar: twosuperior
Encoding: 178 178 114
Width: 272
GlyphClass: 2
Flags: W
LayerCount: 2
Fore
SplineSet
67.5 699.5 m 128,-1,1
 93 724 93 724 139 724 c 128,-1,2
 185 724 185 724 211 701 c 128,-1,3
 237 678 237 678 237 621 c 128,-1,4
 237 564 237 564 198 505 c 2,5,-1
 92 344 l 1,6,-1
 234 344 l 1,7,-1
 234 295 l 1,8,-1
 35 295 l 1,9,-1
 35 325 l 2,10,11
 35 379 35 379 85 447 c 1,12,-1
 153 545 l 1,13,14
 175 583 175 583 175 618 c 0,15,16
 175 676 175 676 137 676 c 0,17,18
 118 676 118 676 107.5 660.5 c 128,-1,19
 97 645 97 645 94 603 c 1,20,-1
 36 611 l 1,21,0
 42 675 42 675 67.5 699.5 c 128,-1,1
EndSplineSet
EndChar

StartChar: threesuperior
Encoding: 179 179 115
Width: 276
GlyphClass: 2
Flags: W
LayerCount: 2
Fore
SplineSet
130 329 m 0,0,1
 173 329 173 329 173 391 c 2,2,-1
 173 410 l 2,3,4
 173 452 173 452 162 465.5 c 128,-1,5
 151 479 151 479 128 479 c 2,6,-1
 97 479 l 1,7,-1
 97 524 l 1,8,-1
 132 524 l 2,9,10
 170 524 170 524 170 585 c 2,11,-1
 170 607 l 2,12,13
 170 670 170 670 133 670 c 0,14,15
 113 670 113 670 103 654.5 c 128,-1,16
 93 639 93 639 90 597 c 1,17,-1
 32 605 l 1,18,19
 37 668 37 668 62.5 693 c 128,-1,20
 88 718 88 718 135 718 c 128,-1,21
 182 718 182 718 206.5 692.5 c 128,-1,22
 231 667 231 667 231 601 c 128,-1,23
 231 535 231 535 200 509 c 1,24,25
 237 482 237 482 237 408 c 128,-1,26
 237 334 237 334 208.5 307 c 128,-1,27
 180 280 180 280 132.5 280 c 128,-1,28
 85 280 85 280 61 304.5 c 128,-1,29
 37 329 37 329 31 393 c 1,30,-1
 88 403 l 1,31,32
 92 361 92 361 102 345 c 128,-1,33
 112 329 112 329 130 329 c 0,0,1
EndSplineSet
EndChar

StartChar: acute
Encoding: 180 180 116
Width: 245
GlyphClass: 2
Flags: W
LayerCount: 2
Fore
SplineSet
62 638 m 1,0,-1
 192 756 l 1,1,-1
 227 689 l 1,2,-1
 84 602 l 1,3,-1
 62 638 l 1,0,-1
EndSplineSet
EndChar

StartChar: mu
Encoding: 181 181 117
Width: 398
GlyphClass: 2
Flags: W
LayerCount: 2
Fore
SplineSet
259 540 m 1,0,-1
 335 540 l 1,1,-1
 335 0 l 1,2,-1
 288 0 l 1,3,-1
 273 62 l 1,4,5
 256 -15 256 -15 199 -15 c 0,6,7
 146 -15 146 -15 127 53 c 1,8,-1
 112 -180 l 1,9,-1
 63 -180 l 1,10,-1
 63 540 l 1,11,-1
 140 540 l 1,12,-1
 140 181 l 2,13,14
 140 105 140 105 154.5 76.5 c 128,-1,15
 169 48 169 48 195.5 48 c 128,-1,16
 222 48 222 48 239.5 73.5 c 128,-1,17
 257 99 257 99 259 152 c 1,18,-1
 259 540 l 1,0,-1
EndSplineSet
EndChar

StartChar: paragraph
Encoding: 182 182 118
Width: 345
GlyphClass: 2
Flags: W
LayerCount: 2
Fore
SplineSet
282 700 m 1,0,-1
 282 0 l 1,1,-1
 202 0 l 1,2,-1
 202 436 l 1,3,-1
 47 436 l 1,4,-1
 47 700 l 1,5,-1
 282 700 l 1,0,-1
EndSplineSet
EndChar

StartChar: periodcentered
Encoding: 183 183 119
Width: 163
GlyphClass: 2
Flags: W
LayerCount: 2
Fore
SplineSet
42 260 m 1,0,-1
 42 352 l 1,1,-1
 121 352 l 1,2,-1
 121 260 l 1,3,-1
 42 260 l 1,0,-1
EndSplineSet
EndChar

StartChar: cedilla
Encoding: 184 184 120
Width: 182
GlyphClass: 2
Flags: W
LayerCount: 2
Fore
SplineSet
150 -122 m 0,0,1
 150 -195 150 -195 84 -195 c 0,2,3
 30 -195 30 -195 23 -128 c 1,4,-1
 64 -120 l 1,5,6
 66 -141 66 -141 70.5 -147.5 c 128,-1,7
 75 -154 75 -154 84 -154 c 0,8,9
 103 -154 103 -154 103 -124 c 2,10,-1
 103 -114 l 2,11,12
 103 -100 103 -100 95 -89.5 c 128,-1,13
 87 -79 87 -79 59 -71 c 1,14,-1
 69 0 l 1,15,-1
 100 0 l 1,16,-1
 95 -49 l 1,17,18
 150 -65 150 -65 150 -122 c 0,0,1
EndSplineSet
EndChar

StartChar: onesuperior
Encoding: 185 185 121
Width: 177
GlyphClass: 2
Flags: W
LayerCount: 2
Fore
SplineSet
130 715 m 1,0,-1
 130 295 l 1,1,-1
 67 295 l 1,2,-1
 67 654 l 1,3,-1
 11 654 l 1,4,-1
 11 689 l 1,5,-1
 89 715 l 1,6,-1
 130 715 l 1,0,-1
EndSplineSet
EndChar

StartChar: ordmasculine
Encoding: 186 186 122
Width: 284
GlyphClass: 2
Flags: W
LayerCount: 2
Fore
SplineSet
243 568 m 2,0,-1
 243 463 l 2,1,2
 243 379 243 379 217 347.5 c 128,-1,3
 191 316 191 316 142.5 316 c 128,-1,4
 94 316 94 316 67.5 347.5 c 128,-1,5
 41 379 41 379 41 463 c 2,6,-1
 41 568 l 2,7,8
 41 651 41 651 67.5 683 c 128,-1,9
 94 715 94 715 142.5 715 c 128,-1,10
 191 715 191 715 217 683 c 128,-1,11
 243 651 243 651 243 568 c 2,0,-1
182 453 m 2,12,-1
 182 577 l 2,13,14
 182 666 182 666 142.5 666 c 128,-1,15
 103 666 103 666 103 577 c 2,16,-1
 103 453 l 2,17,18
 103 365 103 365 142.5 365 c 128,-1,19
 182 365 182 365 182 453 c 2,12,-1
EndSplineSet
EndChar

StartChar: guillemotright
Encoding: 187 187 123
Width: 341
GlyphClass: 2
Flags: W
LayerCount: 2
Fore
SplineSet
289 353 m 1,0,-1
 289 287 l 1,1,-1
 184 137 l 1,2,-1
 156 163 l 1,3,-1
 224 320 l 1,4,-1
 156 477 l 1,5,-1
 184 503 l 1,6,-1
 289 353 l 1,0,-1
145 353 m 1,7,-1
 145 287 l 1,8,-1
 40 137 l 1,9,-1
 12 163 l 1,10,-1
 80 320 l 1,11,-1
 12 477 l 1,12,-1
 40 503 l 1,13,-1
 145 353 l 1,7,-1
EndSplineSet
EndChar

StartChar: onequarter
Encoding: 188 188 124
Width: 693
GlyphClass: 2
Flags: W
LayerCount: 2
Fore
SplineSet
196 -15 m 1,0,-1
 379 715 l 1,1,-1
 436 715 l 1,2,-1
 253 -15 l 1,3,-1
 196 -15 l 1,0,-1
170 715 m 1,4,-1
 170 295 l 1,5,-1
 107 295 l 1,6,-1
 107 654 l 1,7,-1
 51 654 l 1,8,-1
 51 689 l 1,9,-1
 129 715 l 1,10,-1
 170 715 l 1,4,-1
541 0 m 1,11,-1
 541 93 l 1,12,-1
 399 93 l 1,13,-1
 399 126 l 1,14,-1
 495 420 l 1,15,-1
 604 420 l 1,16,-1
 604 143 l 1,17,-1
 628 143 l 1,18,-1
 628 93 l 1,19,-1
 604 93 l 1,20,-1
 604 0 l 1,21,-1
 541 0 l 1,11,-1
541 143 m 1,22,-1
 541 378 l 1,23,-1
 465 143 l 1,24,-1
 541 143 l 1,22,-1
EndSplineSet
EndChar

StartChar: onehalf
Encoding: 189 189 125
Width: 693
GlyphClass: 2
Flags: W
LayerCount: 2
Fore
SplineSet
196 -15 m 1,0,-1
 379 715 l 1,1,-1
 436 715 l 1,2,-1
 253 -15 l 1,3,-1
 196 -15 l 1,0,-1
178 715 m 1,4,-1
 178 295 l 1,5,-1
 115 295 l 1,6,-1
 115 654 l 1,7,-1
 59 654 l 1,8,-1
 59 689 l 1,9,-1
 137 715 l 1,10,-1
 178 715 l 1,4,-1
460.5 404.5 m 128,-1,12
 486 429 486 429 532 429 c 128,-1,13
 578 429 578 429 604 406 c 128,-1,14
 630 383 630 383 630 326 c 128,-1,15
 630 269 630 269 591 210 c 2,16,-1
 485 49 l 1,17,-1
 627 49 l 1,18,-1
 627 0 l 1,19,-1
 428 0 l 1,20,-1
 428 30 l 2,21,22
 428 84 428 84 478 152 c 1,23,-1
 546 250 l 1,24,25
 568 288 568 288 568 323 c 0,26,27
 568 381 568 381 530 381 c 0,28,29
 511 381 511 381 500.5 365.5 c 128,-1,30
 490 350 490 350 487 308 c 1,31,-1
 429 316 l 1,32,11
 435 380 435 380 460.5 404.5 c 128,-1,12
EndSplineSet
EndChar

StartChar: threequarters
Encoding: 190 190 126
Width: 693
GlyphClass: 2
Flags: W
LayerCount: 2
Fore
SplineSet
228 -15 m 1,0,-1
 411 715 l 1,1,-1
 468 715 l 1,2,-1
 285 -15 l 1,3,-1
 228 -15 l 1,0,-1
152 329 m 0,4,5
 195 329 195 329 195 391 c 2,6,-1
 195 410 l 2,7,8
 195 452 195 452 184 465.5 c 128,-1,9
 173 479 173 479 150 479 c 2,10,-1
 119 479 l 1,11,-1
 119 524 l 1,12,-1
 154 524 l 2,13,14
 192 524 192 524 192 585 c 2,15,-1
 192 607 l 2,16,17
 192 670 192 670 155 670 c 0,18,19
 135 670 135 670 125 654.5 c 128,-1,20
 115 639 115 639 112 597 c 1,21,-1
 54 605 l 1,22,23
 59 668 59 668 84.5 693 c 128,-1,24
 110 718 110 718 157 718 c 128,-1,25
 204 718 204 718 228.5 692.5 c 128,-1,26
 253 667 253 667 253 601 c 128,-1,27
 253 535 253 535 222 509 c 1,28,29
 259 482 259 482 259 408 c 128,-1,30
 259 334 259 334 230.5 307 c 128,-1,31
 202 280 202 280 154.5 280 c 128,-1,32
 107 280 107 280 83 304.5 c 128,-1,33
 59 329 59 329 53 393 c 1,34,-1
 110 403 l 1,35,36
 114 361 114 361 124 345 c 128,-1,37
 134 329 134 329 152 329 c 0,4,5
551 0 m 1,38,-1
 551 93 l 1,39,-1
 409 93 l 1,40,-1
 409 126 l 1,41,-1
 505 420 l 1,42,-1
 614 420 l 1,43,-1
 614 143 l 1,44,-1
 638 143 l 1,45,-1
 638 93 l 1,46,-1
 614 93 l 1,47,-1
 614 0 l 1,48,-1
 551 0 l 1,38,-1
551 143 m 1,49,-1
 551 378 l 1,50,-1
 475 143 l 1,51,-1
 551 143 l 1,49,-1
EndSplineSet
EndChar

StartChar: questiondown
Encoding: 191 191 127
Width: 359
GlyphClass: 2
Flags: W
LayerCount: 2
Fore
SplineSet
143 372 m 1,0,-1
 203 372 l 1,1,2
 203 253 203 253 155.5 156 c 128,-1,3
 108 59 108 59 108 -3 c 128,-1,4
 108 -65 108 -65 124.5 -87.5 c 128,-1,5
 141 -110 141 -110 171.5 -110 c 128,-1,6
 202 -110 202 -110 218.5 -82.5 c 128,-1,7
 235 -55 235 -55 241 19 c 1,8,-1
 312 8 l 1,9,10
 304 -94 304 -94 268.5 -134.5 c 128,-1,11
 233 -175 233 -175 168 -175 c 128,-1,12
 103 -175 103 -175 66.5 -138 c 128,-1,13
 30 -101 30 -101 30 -12.5 c 128,-1,14
 30 76 30 76 86.5 182.5 c 128,-1,15
 143 289 143 289 143 372 c 1,0,-1
212 540 m 1,16,-1
 212 448 l 1,17,-1
 133 448 l 1,18,-1
 133 540 l 1,19,-1
 212 540 l 1,16,-1
EndSplineSet
EndChar

StartChar: Agrave
Encoding: 192 192 128
Width: 394
GlyphClass: 2
Flags: W
LayerCount: 2
Fore
SplineSet
298 0 m 1,0,-1
 267 182 l 1,1,-1
 126 182 l 1,2,-1
 96 0 l 1,3,-1
 16 0 l 1,4,-1
 144 700 l 1,5,-1
 250 700 l 1,6,-1
 378 0 l 1,7,-1
 298 0 l 1,0,-1
197 599 m 1,8,-1
 137 246 l 1,9,-1
 256 246 l 1,10,-1
 197 599 l 1,8,-1
151 916 m 1,11,-1
 281 798 l 1,12,-1
 259 762 l 1,13,-1
 116 849 l 1,14,-1
 151 916 l 1,11,-1
EndSplineSet
EndChar

StartChar: Aacute
Encoding: 193 193 129
Width: 394
GlyphClass: 2
Flags: W
LayerCount: 2
Fore
SplineSet
298 0 m 1,0,-1
 267 182 l 1,1,-1
 126 182 l 1,2,-1
 96 0 l 1,3,-1
 16 0 l 1,4,-1
 144 700 l 1,5,-1
 250 700 l 1,6,-1
 378 0 l 1,7,-1
 298 0 l 1,0,-1
197 599 m 1,8,-1
 137 246 l 1,9,-1
 256 246 l 1,10,-1
 197 599 l 1,8,-1
116 798 m 1,11,-1
 246 916 l 1,12,-1
 281 849 l 1,13,-1
 138 762 l 1,14,-1
 116 798 l 1,11,-1
EndSplineSet
EndChar

StartChar: Acircumflex
Encoding: 194 194 130
Width: 394
GlyphClass: 2
Flags: W
LayerCount: 2
Fore
SplineSet
298 0 m 1,0,-1
 267 182 l 1,1,-1
 126 182 l 1,2,-1
 96 0 l 1,3,-1
 16 0 l 1,4,-1
 144 700 l 1,5,-1
 250 700 l 1,6,-1
 378 0 l 1,7,-1
 298 0 l 1,0,-1
197 599 m 1,8,-1
 137 246 l 1,9,-1
 256 246 l 1,10,-1
 197 599 l 1,8,-1
206 910 m 1,11,-1
 298 794 l 1,12,-1
 274 760 l 1,13,-1
 197 830 l 1,14,-1
 120 760 l 1,15,-1
 97 794 l 1,16,-1
 187 910 l 1,17,-1
 206 910 l 1,11,-1
EndSplineSet
EndChar

StartChar: Atilde
Encoding: 195 195 131
Width: 394
GlyphClass: 2
Flags: W
LayerCount: 2
Fore
SplineSet
298 0 m 1,0,-1
 267 182 l 1,1,-1
 126 182 l 1,2,-1
 96 0 l 1,3,-1
 16 0 l 1,4,-1
 144 700 l 1,5,-1
 250 700 l 1,6,-1
 378 0 l 1,7,-1
 298 0 l 1,0,-1
197 599 m 1,8,-1
 137 246 l 1,9,-1
 256 246 l 1,10,-1
 197 599 l 1,8,-1
233 789 m 0,11,12
 219 789 219 789 193.5 803.5 c 128,-1,13
 168 818 168 818 156 818 c 0,14,15
 135 818 135 818 111 787 c 1,16,-1
 88 825 l 1,17,18
 121 888 121 888 161 888 c 0,19,20
 175 888 175 888 200.5 874 c 128,-1,21
 226 860 226 860 238 860 c 0,22,23
 260 860 260 860 282 890 c 1,24,-1
 306 852 l 1,25,26
 269 789 269 789 233 789 c 0,11,12
EndSplineSet
EndChar

StartChar: Adieresis
Encoding: 196 196 132
Width: 394
GlyphClass: 2
Flags: W
LayerCount: 2
Fore
SplineSet
298 0 m 1,0,-1
 267 182 l 1,1,-1
 126 182 l 1,2,-1
 96 0 l 1,3,-1
 16 0 l 1,4,-1
 144 700 l 1,5,-1
 250 700 l 1,6,-1
 378 0 l 1,7,-1
 298 0 l 1,0,-1
197 599 m 1,8,-1
 137 246 l 1,9,-1
 256 246 l 1,10,-1
 197 599 l 1,8,-1
88 806 m 1,11,-1
 88 900 l 1,12,-1
 169 900 l 1,13,-1
 169 806 l 1,14,-1
 88 806 l 1,11,-1
228 806 m 1,15,-1
 228 900 l 1,16,-1
 308 900 l 1,17,-1
 308 806 l 1,18,-1
 228 806 l 1,15,-1
EndSplineSet
EndChar

StartChar: Aring
Encoding: 197 197 133
Width: 394
GlyphClass: 2
Flags: W
LayerCount: 2
Fore
SplineSet
298 0 m 1,0,-1
 267 182 l 1,1,-1
 126 182 l 1,2,-1
 96 0 l 1,3,-1
 16 0 l 1,4,-1
 144 700 l 1,5,-1
 250 700 l 1,6,-1
 378 0 l 1,7,-1
 298 0 l 1,0,-1
197 599 m 1,8,-1
 137 246 l 1,9,-1
 256 246 l 1,10,-1
 197 599 l 1,8,-1
274 857 m 2,11,-1
 274 843 l 2,12,13
 274 787 274 787 254 766.5 c 128,-1,14
 234 746 234 746 198 746 c 128,-1,15
 162 746 162 746 142 766.5 c 128,-1,16
 122 787 122 787 122 843 c 2,17,-1
 122 857 l 2,18,19
 122 913 122 913 142 933.5 c 128,-1,20
 162 954 162 954 198 954 c 128,-1,21
 234 954 234 954 254 933.5 c 128,-1,22
 274 913 274 913 274 857 c 2,11,-1
225 837 m 2,23,-1
 225 863 l 2,24,25
 225 912 225 912 198 912 c 128,-1,26
 171 912 171 912 171 863 c 2,27,-1
 171 837 l 2,28,29
 171 788 171 788 198 788 c 128,-1,30
 225 788 225 788 225 837 c 2,23,-1
EndSplineSet
EndChar

StartChar: AE
Encoding: 198 198 134
Width: 591
GlyphClass: 2
Flags: W
LayerCount: 2
Fore
SplineSet
294 0 m 1,0,-1
 294 299 l 1,1,-1
 180 299 l 1,2,-1
 76 0 l 1,3,-1
 -9 0 l 1,4,-1
 236 700 l 1,5,-1
 546 700 l 1,6,-1
 546 636 l 1,7,-1
 373 636 l 1,8,-1
 373 363 l 1,9,-1
 531 363 l 1,10,-1
 531 299 l 1,11,-1
 373 299 l 1,12,-1
 373 64 l 1,13,-1
 549 64 l 1,14,-1
 549 0 l 1,15,-1
 294 0 l 1,0,-1
294 363 m 1,16,-1
 294 625 l 1,17,-1
 202 363 l 1,18,-1
 294 363 l 1,16,-1
EndSplineSet
EndChar

StartChar: Ccedilla
Encoding: 199 199 135
Width: 374
GlyphClass: 2
Flags: W
LayerCount: 2
Fore
SplineSet
258 -122 m 0,0,1
 258 -195 258 -195 192 -195 c 0,2,3
 138 -195 138 -195 131 -128 c 1,4,-1
 172 -120 l 1,5,6
 174 -141 174 -141 178.5 -147.5 c 128,-1,7
 183 -154 183 -154 192 -154 c 0,8,9
 211 -154 211 -154 211 -124 c 2,10,-1
 211 -114 l 2,11,12
 211 -100 211 -100 203 -89.5 c 128,-1,13
 195 -79 195 -79 167 -71 c 1,14,-1
 175 -13 l 1,15,16
 114 -6 114 -6 81.5 45 c 128,-1,17
 49 96 49 96 49 214 c 2,18,-1
 49 486 l 2,19,20
 49 617 49 617 89 666 c 128,-1,21
 129 715 129 715 196.5 715 c 128,-1,22
 264 715 264 715 299.5 680 c 128,-1,23
 335 645 335 645 343 555 c 1,24,-1
 270 537 l 1,25,26
 264 601 264 601 247.5 625.5 c 128,-1,27
 231 650 231 650 198.5 650 c 128,-1,28
 166 650 166 650 147 618.5 c 128,-1,29
 128 587 128 587 128 503 c 2,30,-1
 128 193 l 2,31,32
 128 111 128 111 147 80.5 c 128,-1,33
 166 50 166 50 201 50 c 128,-1,34
 236 50 236 50 253.5 76.5 c 128,-1,35
 271 103 271 103 277 177 c 1,36,-1
 347 168 l 1,37,38
 338 66 338 66 302.5 26 c 128,-1,39
 267 -14 267 -14 206 -15 c 1,40,-1
 203 -49 l 1,41,42
 258 -65 258 -65 258 -122 c 0,0,1
EndSplineSet
EndChar

StartChar: Egrave
Encoding: 200 200 136
Width: 359
GlyphClass: 2
Flags: W
LayerCount: 2
Fore
SplineSet
143 317 m 1,0,-1
 143 64 l 1,1,-1
 317 64 l 1,2,-1
 317 0 l 1,3,-1
 63 0 l 1,4,-1
 63 700 l 1,5,-1
 314 700 l 1,6,-1
 314 636 l 1,7,-1
 143 636 l 1,8,-1
 143 381 l 1,9,-1
 299 381 l 1,10,-1
 299 317 l 1,11,-1
 143 317 l 1,0,-1
133 916 m 1,12,-1
 263 798 l 1,13,-1
 241 762 l 1,14,-1
 98 849 l 1,15,-1
 133 916 l 1,12,-1
EndSplineSet
EndChar

StartChar: Eacute
Encoding: 201 201 137
Width: 359
GlyphClass: 2
Flags: W
LayerCount: 2
Fore
SplineSet
143 317 m 1,0,-1
 143 64 l 1,1,-1
 317 64 l 1,2,-1
 317 0 l 1,3,-1
 63 0 l 1,4,-1
 63 700 l 1,5,-1
 314 700 l 1,6,-1
 314 636 l 1,7,-1
 143 636 l 1,8,-1
 143 381 l 1,9,-1
 299 381 l 1,10,-1
 299 317 l 1,11,-1
 143 317 l 1,0,-1
120 798 m 1,12,-1
 250 916 l 1,13,-1
 285 849 l 1,14,-1
 142 762 l 1,15,-1
 120 798 l 1,12,-1
EndSplineSet
EndChar

StartChar: Ecircumflex
Encoding: 202 202 138
Width: 359
GlyphClass: 2
Flags: W
LayerCount: 2
Fore
SplineSet
143 317 m 1,0,-1
 143 64 l 1,1,-1
 317 64 l 1,2,-1
 317 0 l 1,3,-1
 63 0 l 1,4,-1
 63 700 l 1,5,-1
 314 700 l 1,6,-1
 314 636 l 1,7,-1
 143 636 l 1,8,-1
 143 381 l 1,9,-1
 299 381 l 1,10,-1
 299 317 l 1,11,-1
 143 317 l 1,0,-1
203 910 m 1,12,-1
 295 794 l 1,13,-1
 271 760 l 1,14,-1
 194 830 l 1,15,-1
 117 760 l 1,16,-1
 94 794 l 1,17,-1
 184 910 l 1,18,-1
 203 910 l 1,12,-1
EndSplineSet
EndChar

StartChar: Edieresis
Encoding: 203 203 139
Width: 359
GlyphClass: 2
Flags: W
LayerCount: 2
Fore
SplineSet
143 317 m 1,0,-1
 143 64 l 1,1,-1
 317 64 l 1,2,-1
 317 0 l 1,3,-1
 63 0 l 1,4,-1
 63 700 l 1,5,-1
 314 700 l 1,6,-1
 314 636 l 1,7,-1
 143 636 l 1,8,-1
 143 381 l 1,9,-1
 299 381 l 1,10,-1
 299 317 l 1,11,-1
 143 317 l 1,0,-1
70 806 m 1,12,-1
 70 900 l 1,13,-1
 151 900 l 1,14,-1
 151 806 l 1,15,-1
 70 806 l 1,12,-1
210 806 m 1,16,-1
 210 900 l 1,17,-1
 290 900 l 1,18,-1
 290 806 l 1,19,-1
 210 806 l 1,16,-1
EndSplineSet
EndChar

StartChar: Igrave
Encoding: 204 204 140
Width: 206
GlyphClass: 2
Flags: W
LayerCount: 2
Fore
SplineSet
63 0 m 1,0,-1
 63 700 l 1,1,-1
 143 700 l 1,2,-1
 143 0 l 1,3,-1
 63 0 l 1,0,-1
56 916 m 1,4,-1
 186 798 l 1,5,-1
 164 762 l 1,6,-1
 21 849 l 1,7,-1
 56 916 l 1,4,-1
EndSplineSet
EndChar

StartChar: Iacute
Encoding: 205 205 141
Width: 206
GlyphClass: 2
Flags: W
LayerCount: 2
Fore
SplineSet
63 0 m 1,0,-1
 63 700 l 1,1,-1
 143 700 l 1,2,-1
 143 0 l 1,3,-1
 63 0 l 1,0,-1
21 798 m 1,4,-1
 151 916 l 1,5,-1
 186 849 l 1,6,-1
 43 762 l 1,7,-1
 21 798 l 1,4,-1
EndSplineSet
EndChar

StartChar: Icircumflex
Encoding: 206 206 142
Width: 206
GlyphClass: 2
Flags: W
LayerCount: 2
Fore
SplineSet
63 0 m 1,0,-1
 63 700 l 1,1,-1
 143 700 l 1,2,-1
 143 0 l 1,3,-1
 63 0 l 1,0,-1
112 910 m 1,4,-1
 204 794 l 1,5,-1
 180 760 l 1,6,-1
 103 830 l 1,7,-1
 26 760 l 1,8,-1
 3 794 l 1,9,-1
 93 910 l 1,10,-1
 112 910 l 1,4,-1
EndSplineSet
EndChar

StartChar: Idieresis
Encoding: 207 207 143
Width: 206
GlyphClass: 2
Flags: W
LayerCount: 2
Fore
SplineSet
63 0 m 1,0,-1
 63 700 l 1,1,-1
 143 700 l 1,2,-1
 143 0 l 1,3,-1
 63 0 l 1,0,-1
-6 806 m 1,4,-1
 -6 900 l 1,5,-1
 75 900 l 1,6,-1
 75 806 l 1,7,-1
 -6 806 l 1,4,-1
134 806 m 1,8,-1
 134 900 l 1,9,-1
 214 900 l 1,10,-1
 214 806 l 1,11,-1
 134 806 l 1,8,-1
EndSplineSet
EndChar

StartChar: Eth
Encoding: 208 208 144
Width: 406
GlyphClass: 2
Flags: W
LayerCount: 2
Fore
SplineSet
16 324 m 1,0,-1
 16 376 l 1,1,-1
 63 376 l 1,2,-1
 63 700 l 1,3,-1
 199 700 l 2,4,5
 275 700 275 700 316 651.5 c 128,-1,6
 357 603 357 603 357 476 c 2,7,-1
 357 224 l 2,8,9
 357 97 357 97 316 48.5 c 128,-1,10
 275 0 275 0 199 0 c 2,11,-1
 63 0 l 1,12,-1
 63 324 l 1,13,-1
 16 324 l 1,0,-1
278 206 m 2,14,-1
 278 493 l 2,15,16
 278 636 278 636 199 636 c 2,17,-1
 143 636 l 1,18,-1
 143 376 l 1,19,-1
 221 376 l 1,20,-1
 221 324 l 1,21,-1
 143 324 l 1,22,-1
 143 63 l 1,23,-1
 199 63 l 2,24,25
 278 63 278 63 278 206 c 2,14,-1
EndSplineSet
EndChar

StartChar: Ntilde
Encoding: 209 209 145
Width: 450
GlyphClass: 2
Flags: W
LayerCount: 2
Fore
SplineSet
141 0 m 1,0,-1
 63 0 l 1,1,-1
 63 700 l 1,2,-1
 146 700 l 1,3,-1
 309 188 l 1,4,-1
 309 700 l 1,5,-1
 387 700 l 1,6,-1
 387 0 l 1,7,-1
 304 0 l 1,8,-1
 141 511 l 1,9,-1
 141 0 l 1,0,-1
262 789 m 0,10,11
 248 789 248 789 222.5 803.5 c 128,-1,12
 197 818 197 818 185 818 c 0,13,14
 164 818 164 818 140 787 c 1,15,-1
 117 825 l 1,16,17
 150 888 150 888 190 888 c 0,18,19
 204 888 204 888 229.5 874 c 128,-1,20
 255 860 255 860 267 860 c 0,21,22
 289 860 289 860 311 890 c 1,23,-1
 335 852 l 1,24,25
 298 789 298 789 262 789 c 0,10,11
EndSplineSet
EndChar

StartChar: Ograve
Encoding: 210 210 146
Width: 411
GlyphClass: 2
Flags: W
LayerCount: 2
Fore
SplineSet
362 491 m 2,0,-1
 362 209 l 2,1,2
 362 82 362 82 321.5 33.5 c 128,-1,3
 281 -15 281 -15 205.5 -15 c 128,-1,4
 130 -15 130 -15 89.5 33.5 c 128,-1,5
 49 82 49 82 49 209 c 2,6,-1
 49 491 l 2,7,8
 49 618 49 618 89.5 666.5 c 128,-1,9
 130 715 130 715 205.5 715 c 128,-1,10
 281 715 281 715 321.5 666.5 c 128,-1,11
 362 618 362 618 362 491 c 2,0,-1
283 194 m 2,12,-1
 283 506 l 2,13,14
 283 650 283 650 206 650 c 0,15,16
 169 650 169 650 148.5 619 c 128,-1,17
 128 588 128 588 128 506 c 2,18,-1
 128 194 l 2,19,20
 128 112 128 112 148.5 81 c 128,-1,21
 169 50 169 50 206 50 c 0,22,23
 283 50 283 50 283 194 c 2,12,-1
159 916 m 1,24,-1
 289 798 l 1,25,-1
 267 762 l 1,26,-1
 124 849 l 1,27,-1
 159 916 l 1,24,-1
EndSplineSet
EndChar

StartChar: Oacute
Encoding: 211 211 147
Width: 411
GlyphClass: 2
Flags: W
LayerCount: 2
Fore
SplineSet
362 491 m 2,0,-1
 362 209 l 2,1,2
 362 82 362 82 321.5 33.5 c 128,-1,3
 281 -15 281 -15 205.5 -15 c 128,-1,4
 130 -15 130 -15 89.5 33.5 c 128,-1,5
 49 82 49 82 49 209 c 2,6,-1
 49 491 l 2,7,8
 49 618 49 618 89.5 666.5 c 128,-1,9
 130 715 130 715 205.5 715 c 128,-1,10
 281 715 281 715 321.5 666.5 c 128,-1,11
 362 618 362 618 362 491 c 2,0,-1
283 194 m 2,12,-1
 283 506 l 2,13,14
 283 650 283 650 206 650 c 0,15,16
 169 650 169 650 148.5 619 c 128,-1,17
 128 588 128 588 128 506 c 2,18,-1
 128 194 l 2,19,20
 128 112 128 112 148.5 81 c 128,-1,21
 169 50 169 50 206 50 c 0,22,23
 283 50 283 50 283 194 c 2,12,-1
124 798 m 1,24,-1
 254 916 l 1,25,-1
 289 849 l 1,26,-1
 146 762 l 1,27,-1
 124 798 l 1,24,-1
EndSplineSet
EndChar

StartChar: Ocircumflex
Encoding: 212 212 148
Width: 411
GlyphClass: 2
Flags: W
LayerCount: 2
Fore
SplineSet
362 491 m 2,0,-1
 362 209 l 2,1,2
 362 82 362 82 321.5 33.5 c 128,-1,3
 281 -15 281 -15 205.5 -15 c 128,-1,4
 130 -15 130 -15 89.5 33.5 c 128,-1,5
 49 82 49 82 49 209 c 2,6,-1
 49 491 l 2,7,8
 49 618 49 618 89.5 666.5 c 128,-1,9
 130 715 130 715 205.5 715 c 128,-1,10
 281 715 281 715 321.5 666.5 c 128,-1,11
 362 618 362 618 362 491 c 2,0,-1
283 194 m 2,12,-1
 283 506 l 2,13,14
 283 650 283 650 206 650 c 0,15,16
 169 650 169 650 148.5 619 c 128,-1,17
 128 588 128 588 128 506 c 2,18,-1
 128 194 l 2,19,20
 128 112 128 112 148.5 81 c 128,-1,21
 169 50 169 50 206 50 c 0,22,23
 283 50 283 50 283 194 c 2,12,-1
215 910 m 1,24,-1
 307 794 l 1,25,-1
 283 760 l 1,26,-1
 206 830 l 1,27,-1
 129 760 l 1,28,-1
 106 794 l 1,29,-1
 196 910 l 1,30,-1
 215 910 l 1,24,-1
EndSplineSet
EndChar

StartChar: Otilde
Encoding: 213 213 149
Width: 411
GlyphClass: 2
Flags: W
LayerCount: 2
Fore
SplineSet
362 491 m 2,0,-1
 362 209 l 2,1,2
 362 82 362 82 321.5 33.5 c 128,-1,3
 281 -15 281 -15 205.5 -15 c 128,-1,4
 130 -15 130 -15 89.5 33.5 c 128,-1,5
 49 82 49 82 49 209 c 2,6,-1
 49 491 l 2,7,8
 49 618 49 618 89.5 666.5 c 128,-1,9
 130 715 130 715 205.5 715 c 128,-1,10
 281 715 281 715 321.5 666.5 c 128,-1,11
 362 618 362 618 362 491 c 2,0,-1
283 194 m 2,12,-1
 283 506 l 2,13,14
 283 650 283 650 206 650 c 0,15,16
 169 650 169 650 148.5 619 c 128,-1,17
 128 588 128 588 128 506 c 2,18,-1
 128 194 l 2,19,20
 128 112 128 112 148.5 81 c 128,-1,21
 169 50 169 50 206 50 c 0,22,23
 283 50 283 50 283 194 c 2,12,-1
242 789 m 0,24,25
 228 789 228 789 202.5 803.5 c 128,-1,26
 177 818 177 818 165 818 c 0,27,28
 144 818 144 818 120 787 c 1,29,-1
 97 825 l 1,30,31
 130 888 130 888 170 888 c 0,32,33
 184 888 184 888 209.5 874 c 128,-1,34
 235 860 235 860 247 860 c 0,35,36
 269 860 269 860 291 890 c 1,37,-1
 315 852 l 1,38,39
 278 789 278 789 242 789 c 0,24,25
EndSplineSet
EndChar

StartChar: Odieresis
Encoding: 214 214 150
Width: 411
GlyphClass: 2
Flags: W
LayerCount: 2
Fore
SplineSet
362 491 m 2,0,-1
 362 209 l 2,1,2
 362 82 362 82 321.5 33.5 c 128,-1,3
 281 -15 281 -15 205.5 -15 c 128,-1,4
 130 -15 130 -15 89.5 33.5 c 128,-1,5
 49 82 49 82 49 209 c 2,6,-1
 49 491 l 2,7,8
 49 618 49 618 89.5 666.5 c 128,-1,9
 130 715 130 715 205.5 715 c 128,-1,10
 281 715 281 715 321.5 666.5 c 128,-1,11
 362 618 362 618 362 491 c 2,0,-1
283 194 m 2,12,-1
 283 506 l 2,13,14
 283 650 283 650 206 650 c 0,15,16
 169 650 169 650 148.5 619 c 128,-1,17
 128 588 128 588 128 506 c 2,18,-1
 128 194 l 2,19,20
 128 112 128 112 148.5 81 c 128,-1,21
 169 50 169 50 206 50 c 0,22,23
 283 50 283 50 283 194 c 2,12,-1
96 806 m 1,24,-1
 96 900 l 1,25,-1
 177 900 l 1,26,-1
 177 806 l 1,27,-1
 96 806 l 1,24,-1
236 806 m 1,28,-1
 236 900 l 1,29,-1
 316 900 l 1,30,-1
 316 806 l 1,31,-1
 236 806 l 1,28,-1
EndSplineSet
EndChar

StartChar: multiply
Encoding: 215 215 151
Width: 376
GlyphClass: 2
Flags: W
LayerCount: 2
Fore
SplineSet
101 183 m 1,0,-1
 61 227 l 1,1,-1
 152 350 l 1,2,-1
 61 473 l 1,3,-1
 101 517 l 1,4,-1
 188 399 l 1,5,-1
 275 517 l 1,6,-1
 315 473 l 1,7,-1
 224 350 l 1,8,-1
 315 227 l 1,9,-1
 275 183 l 1,10,-1
 188 301 l 1,11,-1
 101 183 l 1,0,-1
EndSplineSet
EndChar

StartChar: Oslash
Encoding: 216 216 152
Width: 411
GlyphClass: 2
Flags: W
LayerCount: 2
Fore
SplineSet
49 209 m 2,0,-1
 49 491 l 2,1,2
 49 618 49 618 89.5 666.5 c 128,-1,3
 130 715 130 715 206 715 c 0,4,5
 234 715 234 715 256 709 c 1,6,-1
 266 752 l 1,7,-1
 318 752 l 1,8,-1
 303 685 l 1,9,10
 362 634 362 634 362 491 c 2,11,-1
 362 209 l 2,12,13
 362 82 362 82 321.5 33.5 c 128,-1,14
 281 -15 281 -15 206 -15 c 0,15,16
 178 -15 178 -15 155 -9 c 1,17,-1
 146 -52 l 1,18,-1
 94 -52 l 1,19,-1
 108 14 l 1,20,21
 49 62 49 62 49 209 c 2,0,-1
128 194 m 2,22,23
 128 153 128 153 132 129 c 1,24,-1
 242 640 l 1,25,26
 226 650 226 650 206 650 c 0,27,28
 169 650 169 650 148.5 619 c 128,-1,29
 128 588 128 588 128 506 c 2,30,-1
 128 194 l 2,22,23
283 194 m 2,31,-1
 283 506 l 2,32,33
 283 540 283 540 278 568 c 1,34,-1
 169 59 l 1,35,36
 183 50 183 50 206 50 c 0,37,38
 283 50 283 50 283 194 c 2,31,-1
EndSplineSet
EndChar

StartChar: Ugrave
Encoding: 217 217 153
Width: 422
GlyphClass: 2
Flags: W
LayerCount: 2
Fore
SplineSet
287 700 m 1,0,-1
 366 700 l 1,1,-1
 366 209 l 2,2,3
 366 82 366 82 325.5 33.5 c 128,-1,4
 285 -15 285 -15 211 -15 c 128,-1,5
 137 -15 137 -15 96.5 33.5 c 128,-1,6
 56 82 56 82 56 209 c 2,7,-1
 56 700 l 1,8,-1
 135 700 l 1,9,-1
 135 194 l 2,10,11
 135 113 135 113 155 81.5 c 128,-1,12
 175 50 175 50 210.5 50 c 128,-1,13
 246 50 246 50 266.5 81.5 c 128,-1,14
 287 113 287 113 287 194 c 2,15,-1
 287 700 l 1,0,-1
165 916 m 1,16,-1
 295 798 l 1,17,-1
 273 762 l 1,18,-1
 130 849 l 1,19,-1
 165 916 l 1,16,-1
EndSplineSet
EndChar

StartChar: Uacute
Encoding: 218 218 154
Width: 422
GlyphClass: 2
Flags: W
LayerCount: 2
Fore
SplineSet
287 700 m 1,0,-1
 366 700 l 1,1,-1
 366 209 l 2,2,3
 366 82 366 82 325.5 33.5 c 128,-1,4
 285 -15 285 -15 211 -15 c 128,-1,5
 137 -15 137 -15 96.5 33.5 c 128,-1,6
 56 82 56 82 56 209 c 2,7,-1
 56 700 l 1,8,-1
 135 700 l 1,9,-1
 135 194 l 2,10,11
 135 113 135 113 155 81.5 c 128,-1,12
 175 50 175 50 210.5 50 c 128,-1,13
 246 50 246 50 266.5 81.5 c 128,-1,14
 287 113 287 113 287 194 c 2,15,-1
 287 700 l 1,0,-1
130 798 m 1,16,-1
 260 916 l 1,17,-1
 295 849 l 1,18,-1
 152 762 l 1,19,-1
 130 798 l 1,16,-1
EndSplineSet
EndChar

StartChar: Ucircumflex
Encoding: 219 219 155
Width: 422
GlyphClass: 2
Flags: W
LayerCount: 2
Fore
SplineSet
287 700 m 1,0,-1
 366 700 l 1,1,-1
 366 209 l 2,2,3
 366 82 366 82 325.5 33.5 c 128,-1,4
 285 -15 285 -15 211 -15 c 128,-1,5
 137 -15 137 -15 96.5 33.5 c 128,-1,6
 56 82 56 82 56 209 c 2,7,-1
 56 700 l 1,8,-1
 135 700 l 1,9,-1
 135 194 l 2,10,11
 135 113 135 113 155 81.5 c 128,-1,12
 175 50 175 50 210.5 50 c 128,-1,13
 246 50 246 50 266.5 81.5 c 128,-1,14
 287 113 287 113 287 194 c 2,15,-1
 287 700 l 1,0,-1
220 910 m 1,16,-1
 312 794 l 1,17,-1
 288 760 l 1,18,-1
 211 830 l 1,19,-1
 134 760 l 1,20,-1
 111 794 l 1,21,-1
 201 910 l 1,22,-1
 220 910 l 1,16,-1
EndSplineSet
EndChar

StartChar: Udieresis
Encoding: 220 220 156
Width: 422
GlyphClass: 2
Flags: W
LayerCount: 2
Fore
SplineSet
287 700 m 1,0,-1
 366 700 l 1,1,-1
 366 209 l 2,2,3
 366 82 366 82 325.5 33.5 c 128,-1,4
 285 -15 285 -15 211 -15 c 128,-1,5
 137 -15 137 -15 96.5 33.5 c 128,-1,6
 56 82 56 82 56 209 c 2,7,-1
 56 700 l 1,8,-1
 135 700 l 1,9,-1
 135 194 l 2,10,11
 135 113 135 113 155 81.5 c 128,-1,12
 175 50 175 50 210.5 50 c 128,-1,13
 246 50 246 50 266.5 81.5 c 128,-1,14
 287 113 287 113 287 194 c 2,15,-1
 287 700 l 1,0,-1
100 806 m 1,16,-1
 100 900 l 1,17,-1
 181 900 l 1,18,-1
 181 806 l 1,19,-1
 100 806 l 1,16,-1
240 806 m 1,20,-1
 240 900 l 1,21,-1
 320 900 l 1,22,-1
 320 806 l 1,23,-1
 240 806 l 1,20,-1
EndSplineSet
EndChar

StartChar: Yacute
Encoding: 221 221 157
Width: 374
GlyphClass: 2
Flags: W
LayerCount: 2
Fore
SplineSet
226 0 m 1,0,-1
 148 0 l 1,1,-1
 148 234 l 1,2,-1
 16 700 l 1,3,-1
 94 700 l 1,4,-1
 187 339 l 1,5,-1
 279 700 l 1,6,-1
 357 700 l 1,7,-1
 226 234 l 1,8,-1
 226 0 l 1,0,-1
127 798 m 1,9,-1
 257 916 l 1,10,-1
 292 849 l 1,11,-1
 149 762 l 1,12,-1
 127 798 l 1,9,-1
EndSplineSet
EndChar

StartChar: Thorn
Encoding: 222 222 158
Width: 363
GlyphClass: 2
Flags: W
LayerCount: 2
Fore
SplineSet
63 0 m 1,0,-1
 63 700 l 1,1,-1
 143 700 l 1,2,-1
 143 576 l 1,3,-1
 187 576 l 2,4,5
 262 576 262 576 302.5 527.5 c 128,-1,6
 343 479 343 479 343 352 c 2,7,-1
 343 347 l 2,8,9
 343 220 343 220 302.5 172 c 128,-1,10
 262 124 262 124 187 124 c 2,11,-1
 143 124 l 1,12,-1
 143 0 l 1,13,-1
 63 0 l 1,0,-1
264 334 m 2,14,-1
 264 365 l 2,15,16
 264 512 264 512 187 512 c 2,17,-1
 143 512 l 1,18,-1
 143 187 l 1,19,-1
 187 187 l 2,20,21
 264 187 264 187 264 334 c 2,14,-1
EndSplineSet
EndChar

StartChar: germandbls
Encoding: 223 223 159
Width: 408
GlyphClass: 2
Flags: W
LayerCount: 2
Fore
SplineSet
161 127 m 1,0,-1
 222 127 l 1,1,2
 222 46 222 46 265 46 c 0,3,4
 290 46 290 46 301.5 66 c 128,-1,5
 313 86 313 86 313 143.5 c 128,-1,6
 313 201 313 201 296 240.5 c 128,-1,7
 279 280 279 280 234 323 c 2,8,-1
 189 365 l 1,9,-1
 187 365 l 1,10,-1
 187 398 l 1,11,12
 225 413 225 413 240 445 c 128,-1,13
 255 477 255 477 255 535 c 0,14,15
 255 653 255 653 194 653 c 0,16,17
 162 653 162 653 148.5 620.5 c 128,-1,18
 135 588 135 588 135 504 c 2,19,-1
 135 0 l 1,20,-1
 56 0 l 1,21,-1
 56 505 l 2,22,23
 56 621 56 621 90.5 668 c 128,-1,24
 125 715 125 715 193.5 715 c 128,-1,25
 262 715 262 715 298 672.5 c 128,-1,26
 334 630 334 630 334 535 c 0,27,28
 334 424 334 424 257 384 c 1,29,-1
 289 355 l 1,30,31
 342 305 342 305 363.5 257 c 128,-1,32
 385 209 385 209 385 135.5 c 128,-1,33
 385 62 385 62 352.5 23.5 c 128,-1,34
 320 -15 320 -15 270 -15 c 0,35,36
 161 -15 161 -15 161 127 c 1,0,-1
EndSplineSet
EndChar

StartChar: agrave
Encoding: 224 224 160
Width: 368
GlyphClass: 2
Flags: W
LayerCount: 2
Fore
SplineSet
73 296.5 m 128,-1,1
 101 331 101 331 153 331 c 128,-1,2
 205 331 205 331 235 291 c 1,3,-1
 235 396 l 2,4,5
 235 492 235 492 175 492 c 0,6,7
 124 492 124 492 78 433 c 1,8,-1
 51 489 l 1,9,10
 74 517 74 517 109.5 536 c 128,-1,11
 145 555 145 555 182 555 c 0,12,13
 312 555 312 555 312 379 c 2,14,-1
 312 0 l 1,15,-1
 265 0 l 1,16,-1
 249 65 l 1,17,18
 238 25 238 25 212.5 5 c 128,-1,19
 187 -15 187 -15 155 -15 c 0,20,21
 101 -15 101 -15 73 19.5 c 128,-1,22
 45 54 45 54 45 149 c 2,23,-1
 45 167 l 2,24,0
 45 262 45 262 73 296.5 c 128,-1,1
171 48 m 0,25,26
 200 48 200 48 216.5 69 c 128,-1,27
 233 90 233 90 235 145 c 1,28,-1
 235 172 l 1,29,30
 233 231 233 231 216.5 254 c 128,-1,31
 200 277 200 277 171 277 c 0,32,33
 121 277 121 277 121 182 c 2,34,-1
 121 143 l 2,35,36
 121 48 121 48 171 48 c 0,25,26
137 756 m 1,37,-1
 267 638 l 1,38,-1
 245 602 l 1,39,-1
 102 689 l 1,40,-1
 137 756 l 1,37,-1
EndSplineSet
EndChar

StartChar: aacute
Encoding: 225 225 161
Width: 368
GlyphClass: 2
Flags: W
LayerCount: 2
Fore
SplineSet
73 296.5 m 128,-1,1
 101 331 101 331 153 331 c 128,-1,2
 205 331 205 331 235 291 c 1,3,-1
 235 396 l 2,4,5
 235 492 235 492 175 492 c 0,6,7
 124 492 124 492 78 433 c 1,8,-1
 51 489 l 1,9,10
 74 517 74 517 109.5 536 c 128,-1,11
 145 555 145 555 182 555 c 0,12,13
 312 555 312 555 312 379 c 2,14,-1
 312 0 l 1,15,-1
 265 0 l 1,16,-1
 249 65 l 1,17,18
 238 25 238 25 212.5 5 c 128,-1,19
 187 -15 187 -15 155 -15 c 0,20,21
 101 -15 101 -15 73 19.5 c 128,-1,22
 45 54 45 54 45 149 c 2,23,-1
 45 167 l 2,24,0
 45 262 45 262 73 296.5 c 128,-1,1
171 48 m 0,25,26
 200 48 200 48 216.5 69 c 128,-1,27
 233 90 233 90 235 145 c 1,28,-1
 235 172 l 1,29,30
 233 231 233 231 216.5 254 c 128,-1,31
 200 277 200 277 171 277 c 0,32,33
 121 277 121 277 121 182 c 2,34,-1
 121 143 l 2,35,36
 121 48 121 48 171 48 c 0,25,26
124 638 m 1,37,-1
 254 756 l 1,38,-1
 289 689 l 1,39,-1
 146 602 l 1,40,-1
 124 638 l 1,37,-1
EndSplineSet
EndChar

StartChar: acircumflex
Encoding: 226 226 162
Width: 368
GlyphClass: 2
Flags: W
LayerCount: 2
Fore
SplineSet
73 296.5 m 128,-1,1
 101 331 101 331 153 331 c 128,-1,2
 205 331 205 331 235 291 c 1,3,-1
 235 396 l 2,4,5
 235 492 235 492 175 492 c 0,6,7
 124 492 124 492 78 433 c 1,8,-1
 51 489 l 1,9,10
 74 517 74 517 109.5 536 c 128,-1,11
 145 555 145 555 182 555 c 0,12,13
 312 555 312 555 312 379 c 2,14,-1
 312 0 l 1,15,-1
 265 0 l 1,16,-1
 249 65 l 1,17,18
 238 25 238 25 212.5 5 c 128,-1,19
 187 -15 187 -15 155 -15 c 0,20,21
 101 -15 101 -15 73 19.5 c 128,-1,22
 45 54 45 54 45 149 c 2,23,-1
 45 167 l 2,24,0
 45 262 45 262 73 296.5 c 128,-1,1
171 48 m 0,25,26
 200 48 200 48 216.5 69 c 128,-1,27
 233 90 233 90 235 145 c 1,28,-1
 235 172 l 1,29,30
 233 231 233 231 216.5 254 c 128,-1,31
 200 277 200 277 171 277 c 0,32,33
 121 277 121 277 121 182 c 2,34,-1
 121 143 l 2,35,36
 121 48 121 48 171 48 c 0,25,26
193 750 m 1,37,-1
 285 634 l 1,38,-1
 261 600 l 1,39,-1
 184 670 l 1,40,-1
 107 600 l 1,41,-1
 84 634 l 1,42,-1
 174 750 l 1,43,-1
 193 750 l 1,37,-1
EndSplineSet
EndChar

StartChar: atilde
Encoding: 227 227 163
Width: 368
GlyphClass: 2
Flags: W
LayerCount: 2
Fore
SplineSet
73 296.5 m 128,-1,1
 101 331 101 331 153 331 c 128,-1,2
 205 331 205 331 235 291 c 1,3,-1
 235 396 l 2,4,5
 235 492 235 492 175 492 c 0,6,7
 124 492 124 492 78 433 c 1,8,-1
 51 489 l 1,9,10
 74 517 74 517 109.5 536 c 128,-1,11
 145 555 145 555 182 555 c 0,12,13
 312 555 312 555 312 379 c 2,14,-1
 312 0 l 1,15,-1
 265 0 l 1,16,-1
 249 65 l 1,17,18
 238 25 238 25 212.5 5 c 128,-1,19
 187 -15 187 -15 155 -15 c 0,20,21
 101 -15 101 -15 73 19.5 c 128,-1,22
 45 54 45 54 45 149 c 2,23,-1
 45 167 l 2,24,0
 45 262 45 262 73 296.5 c 128,-1,1
171 48 m 0,25,26
 200 48 200 48 216.5 69 c 128,-1,27
 233 90 233 90 235 145 c 1,28,-1
 235 172 l 1,29,30
 233 231 233 231 216.5 254 c 128,-1,31
 200 277 200 277 171 277 c 0,32,33
 121 277 121 277 121 182 c 2,34,-1
 121 143 l 2,35,36
 121 48 121 48 171 48 c 0,25,26
229 629 m 0,37,38
 215 629 215 629 189.5 643.5 c 128,-1,39
 164 658 164 658 152 658 c 0,40,41
 131 658 131 658 107 627 c 1,42,-1
 84 665 l 1,43,44
 117 728 117 728 157 728 c 0,45,46
 171 728 171 728 196.5 714 c 128,-1,47
 222 700 222 700 234 700 c 0,48,49
 256 700 256 700 278 730 c 1,50,-1
 302 692 l 1,51,52
 265 629 265 629 229 629 c 0,37,38
EndSplineSet
EndChar

StartChar: adieresis
Encoding: 228 228 164
Width: 368
GlyphClass: 2
Flags: W
LayerCount: 2
Fore
SplineSet
73 296.5 m 128,-1,1
 101 331 101 331 153 331 c 128,-1,2
 205 331 205 331 235 291 c 1,3,-1
 235 396 l 2,4,5
 235 492 235 492 175 492 c 0,6,7
 124 492 124 492 78 433 c 1,8,-1
 51 489 l 1,9,10
 74 517 74 517 109.5 536 c 128,-1,11
 145 555 145 555 182 555 c 0,12,13
 312 555 312 555 312 379 c 2,14,-1
 312 0 l 1,15,-1
 265 0 l 1,16,-1
 249 65 l 1,17,18
 238 25 238 25 212.5 5 c 128,-1,19
 187 -15 187 -15 155 -15 c 0,20,21
 101 -15 101 -15 73 19.5 c 128,-1,22
 45 54 45 54 45 149 c 2,23,-1
 45 167 l 2,24,0
 45 262 45 262 73 296.5 c 128,-1,1
171 48 m 0,25,26
 200 48 200 48 216.5 69 c 128,-1,27
 233 90 233 90 235 145 c 1,28,-1
 235 172 l 1,29,30
 233 231 233 231 216.5 254 c 128,-1,31
 200 277 200 277 171 277 c 0,32,33
 121 277 121 277 121 182 c 2,34,-1
 121 143 l 2,35,36
 121 48 121 48 171 48 c 0,25,26
75 646 m 1,37,-1
 75 740 l 1,38,-1
 156 740 l 1,39,-1
 156 646 l 1,40,-1
 75 646 l 1,37,-1
215 646 m 1,41,-1
 215 740 l 1,42,-1
 295 740 l 1,43,-1
 295 646 l 1,44,-1
 215 646 l 1,41,-1
EndSplineSet
EndChar

StartChar: aring
Encoding: 229 229 165
Width: 368
GlyphClass: 2
Flags: W
LayerCount: 2
Fore
SplineSet
73 296.5 m 128,-1,1
 101 331 101 331 153 331 c 128,-1,2
 205 331 205 331 235 291 c 1,3,-1
 235 396 l 2,4,5
 235 492 235 492 175 492 c 0,6,7
 124 492 124 492 78 433 c 1,8,-1
 51 489 l 1,9,10
 74 517 74 517 109.5 536 c 128,-1,11
 145 555 145 555 182 555 c 0,12,13
 312 555 312 555 312 379 c 2,14,-1
 312 0 l 1,15,-1
 265 0 l 1,16,-1
 249 65 l 1,17,18
 238 25 238 25 212.5 5 c 128,-1,19
 187 -15 187 -15 155 -15 c 0,20,21
 101 -15 101 -15 73 19.5 c 128,-1,22
 45 54 45 54 45 149 c 2,23,-1
 45 167 l 2,24,0
 45 262 45 262 73 296.5 c 128,-1,1
171 48 m 0,25,26
 200 48 200 48 216.5 69 c 128,-1,27
 233 90 233 90 235 145 c 1,28,-1
 235 172 l 1,29,30
 233 231 233 231 216.5 254 c 128,-1,31
 200 277 200 277 171 277 c 0,32,33
 121 277 121 277 121 182 c 2,34,-1
 121 143 l 2,35,36
 121 48 121 48 171 48 c 0,25,26
275 697 m 2,37,-1
 275 683 l 2,38,39
 275 627 275 627 255 606.5 c 128,-1,40
 235 586 235 586 199 586 c 128,-1,41
 163 586 163 586 143 606.5 c 128,-1,42
 123 627 123 627 123 683 c 2,43,-1
 123 697 l 2,44,45
 123 753 123 753 143 773.5 c 128,-1,46
 163 794 163 794 199 794 c 128,-1,47
 235 794 235 794 255 773.5 c 128,-1,48
 275 753 275 753 275 697 c 2,37,-1
226 677 m 2,49,-1
 226 703 l 2,50,51
 226 752 226 752 199 752 c 128,-1,52
 172 752 172 752 172 703 c 2,53,-1
 172 677 l 2,54,55
 172 628 172 628 199 628 c 128,-1,56
 226 628 226 628 226 677 c 2,49,-1
EndSplineSet
EndChar

StartChar: ae
Encoding: 230 230 166
Width: 567
GlyphClass: 2
Flags: W
LayerCount: 2
Fore
SplineSet
379 -15 m 0,0,1
 282 -15 282 -15 252 68 c 1,2,3
 242 27 242 27 215.5 6 c 128,-1,4
 189 -15 189 -15 155 -15 c 0,5,6
 101 -15 101 -15 73 16.5 c 128,-1,7
 45 48 45 48 45 135 c 2,8,-1
 45 157 l 2,9,10
 45 244 45 244 73 275.5 c 128,-1,11
 101 307 101 307 155 307 c 2,12,-1
 235 307 l 1,13,-1
 235 396 l 2,14,15
 235 492 235 492 175 492 c 0,16,17
 124 492 124 492 78 433 c 1,18,-1
 51 489 l 1,19,20
 74 517 74 517 109.5 536 c 128,-1,21
 145 555 145 555 182 555 c 0,22,23
 245 555 245 555 277 515 c 1,24,25
 312 555 312 555 379.5 555 c 128,-1,26
 447 555 447 555 482.5 510 c 128,-1,27
 518 465 518 465 518 345 c 2,28,-1
 518 243 l 1,29,-1
 312 243 l 1,30,-1
 312 181 l 2,31,32
 312 47 312 47 377 47 c 0,33,34
 407 47 407 47 424 69.5 c 128,-1,35
 441 92 441 92 447 151 c 1,36,-1
 515 140 l 1,37,38
 507 53 507 53 473.5 19 c 128,-1,39
 440 -15 440 -15 379 -15 c 0,0,1
441 359 m 2,40,41
 441 493 441 493 376.5 493 c 128,-1,42
 312 493 312 493 312 359 c 2,43,-1
 312 307 l 1,44,-1
 441 307 l 1,45,-1
 441 359 l 2,40,41
171 243 m 2,46,47
 121 243 121 243 121 163 c 2,48,-1
 121 127 l 2,49,50
 121 48 121 48 171 48 c 0,51,52
 201 48 201 48 218 67.5 c 128,-1,53
 235 87 235 87 235 139 c 2,54,-1
 235 243 l 1,55,-1
 171 243 l 2,46,47
EndSplineSet
EndChar

StartChar: ccedilla
Encoding: 231 231 167
Width: 351
GlyphClass: 2
Flags: W
LayerCount: 2
Fore
SplineSet
247 -122 m 0,0,1
 247 -195 247 -195 181 -195 c 0,2,3
 127 -195 127 -195 120 -128 c 1,4,-1
 161 -120 l 1,5,6
 163 -141 163 -141 167.5 -147.5 c 128,-1,7
 172 -154 172 -154 181 -154 c 0,8,9
 200 -154 200 -154 200 -124 c 2,10,-1
 200 -114 l 2,11,12
 200 -100 200 -100 192 -89.5 c 128,-1,13
 184 -79 184 -79 156 -71 c 1,14,-1
 164 -14 l 1,15,16
 49 -5 49 -5 49 175 c 2,17,-1
 49 345 l 2,18,19
 49 464 49 464 84 509.5 c 128,-1,20
 119 555 119 555 179.5 555 c 128,-1,21
 240 555 240 555 274 522 c 128,-1,22
 308 489 308 489 315 403 c 1,23,-1
 245 384 l 1,24,25
 241 493 241 493 184 493 c 0,26,27
 155 493 155 493 140 467 c 128,-1,28
 125 441 125 441 125 359 c 2,29,-1
 125 168 l 2,30,31
 125 98 125 98 140.5 73 c 128,-1,32
 156 48 156 48 185 48 c 128,-1,33
 214 48 214 48 230 72.5 c 128,-1,34
 246 97 246 97 253 167 c 1,35,-1
 318 157 l 1,36,37
 310 67 310 67 279 28.5 c 128,-1,38
 248 -10 248 -10 195 -14 c 1,39,-1
 192 -49 l 1,40,41
 247 -65 247 -65 247 -122 c 0,0,1
EndSplineSet
EndChar

StartChar: egrave
Encoding: 232 232 168
Width: 379
GlyphClass: 2
Flags: W
LayerCount: 2
Fore
SplineSet
287 19 m 128,-1,1
 253 -15 253 -15 188.5 -15 c 128,-1,2
 124 -15 124 -15 86.5 30.5 c 128,-1,3
 49 76 49 76 49 195 c 2,4,-1
 49 345 l 2,5,6
 49 464 49 464 86.5 509.5 c 128,-1,7
 124 555 124 555 192 555 c 128,-1,8
 260 555 260 555 295 510 c 128,-1,9
 330 465 330 465 330 345 c 2,10,-1
 330 238 l 1,11,-1
 125 238 l 1,12,-1
 125 181 l 2,13,14
 125 47 125 47 189 47 c 0,15,16
 220 47 220 47 237 69 c 128,-1,17
 254 91 254 91 261 151 c 1,18,-1
 328 140 l 1,19,0
 321 53 321 53 287 19 c 128,-1,1
125 359 m 2,20,-1
 125 302 l 1,21,-1
 253 302 l 1,22,-1
 253 359 l 2,23,24
 253 493 253 493 190 493 c 0,25,26
 125 493 125 493 125 359 c 2,20,-1
143 756 m 1,27,-1
 273 638 l 1,28,-1
 251 602 l 1,29,-1
 108 689 l 1,30,-1
 143 756 l 1,27,-1
EndSplineSet
EndChar

StartChar: eacute
Encoding: 233 233 169
Width: 379
GlyphClass: 2
Flags: W
LayerCount: 2
Fore
SplineSet
287 19 m 128,-1,1
 253 -15 253 -15 188.5 -15 c 128,-1,2
 124 -15 124 -15 86.5 30.5 c 128,-1,3
 49 76 49 76 49 195 c 2,4,-1
 49 345 l 2,5,6
 49 464 49 464 86.5 509.5 c 128,-1,7
 124 555 124 555 192 555 c 128,-1,8
 260 555 260 555 295 510 c 128,-1,9
 330 465 330 465 330 345 c 2,10,-1
 330 238 l 1,11,-1
 125 238 l 1,12,-1
 125 181 l 2,13,14
 125 47 125 47 189 47 c 0,15,16
 220 47 220 47 237 69 c 128,-1,17
 254 91 254 91 261 151 c 1,18,-1
 328 140 l 1,19,0
 321 53 321 53 287 19 c 128,-1,1
125 359 m 2,20,-1
 125 302 l 1,21,-1
 253 302 l 1,22,-1
 253 359 l 2,23,24
 253 493 253 493 190 493 c 0,25,26
 125 493 125 493 125 359 c 2,20,-1
115 638 m 1,27,-1
 245 756 l 1,28,-1
 280 689 l 1,29,-1
 137 602 l 1,30,-1
 115 638 l 1,27,-1
EndSplineSet
EndChar

StartChar: ecircumflex
Encoding: 234 234 170
Width: 379
GlyphClass: 2
Flags: W
LayerCount: 2
Fore
SplineSet
287 19 m 128,-1,1
 253 -15 253 -15 188.5 -15 c 128,-1,2
 124 -15 124 -15 86.5 30.5 c 128,-1,3
 49 76 49 76 49 195 c 2,4,-1
 49 345 l 2,5,6
 49 464 49 464 86.5 509.5 c 128,-1,7
 124 555 124 555 192 555 c 128,-1,8
 260 555 260 555 295 510 c 128,-1,9
 330 465 330 465 330 345 c 2,10,-1
 330 238 l 1,11,-1
 125 238 l 1,12,-1
 125 181 l 2,13,14
 125 47 125 47 189 47 c 0,15,16
 220 47 220 47 237 69 c 128,-1,17
 254 91 254 91 261 151 c 1,18,-1
 328 140 l 1,19,0
 321 53 321 53 287 19 c 128,-1,1
125 359 m 2,20,-1
 125 302 l 1,21,-1
 253 302 l 1,22,-1
 253 359 l 2,23,24
 253 493 253 493 190 493 c 0,25,26
 125 493 125 493 125 359 c 2,20,-1
199 750 m 1,27,-1
 291 634 l 1,28,-1
 267 600 l 1,29,-1
 190 670 l 1,30,-1
 113 600 l 1,31,-1
 90 634 l 1,32,-1
 180 750 l 1,33,-1
 199 750 l 1,27,-1
EndSplineSet
EndChar

StartChar: edieresis
Encoding: 235 235 171
Width: 379
GlyphClass: 2
Flags: W
LayerCount: 2
Fore
SplineSet
287 19 m 128,-1,1
 253 -15 253 -15 188.5 -15 c 128,-1,2
 124 -15 124 -15 86.5 30.5 c 128,-1,3
 49 76 49 76 49 195 c 2,4,-1
 49 345 l 2,5,6
 49 464 49 464 86.5 509.5 c 128,-1,7
 124 555 124 555 192 555 c 128,-1,8
 260 555 260 555 295 510 c 128,-1,9
 330 465 330 465 330 345 c 2,10,-1
 330 238 l 1,11,-1
 125 238 l 1,12,-1
 125 181 l 2,13,14
 125 47 125 47 189 47 c 0,15,16
 220 47 220 47 237 69 c 128,-1,17
 254 91 254 91 261 151 c 1,18,-1
 328 140 l 1,19,0
 321 53 321 53 287 19 c 128,-1,1
125 359 m 2,20,-1
 125 302 l 1,21,-1
 253 302 l 1,22,-1
 253 359 l 2,23,24
 253 493 253 493 190 493 c 0,25,26
 125 493 125 493 125 359 c 2,20,-1
80 646 m 1,27,-1
 80 740 l 1,28,-1
 161 740 l 1,29,-1
 161 646 l 1,30,-1
 80 646 l 1,27,-1
220 646 m 1,31,-1
 220 740 l 1,32,-1
 300 740 l 1,33,-1
 300 646 l 1,34,-1
 220 646 l 1,31,-1
EndSplineSet
EndChar

StartChar: igrave
Encoding: 236 236 172
Width: 203
GlyphClass: 2
Flags: W
LayerCount: 2
Fore
SplineSet
63 0 m 1,0,-1
 63 540 l 1,1,-1
 140 540 l 1,2,-1
 140 0 l 1,3,-1
 63 0 l 1,0,-1
54 756 m 1,4,-1
 184 638 l 1,5,-1
 162 602 l 1,6,-1
 19 689 l 1,7,-1
 54 756 l 1,4,-1
EndSplineSet
EndChar

StartChar: iacute
Encoding: 237 237 173
Width: 203
GlyphClass: 2
Flags: W
LayerCount: 2
Fore
SplineSet
63 0 m 1,0,-1
 63 540 l 1,1,-1
 140 540 l 1,2,-1
 140 0 l 1,3,-1
 63 0 l 1,0,-1
27 638 m 1,4,-1
 157 756 l 1,5,-1
 192 689 l 1,6,-1
 49 602 l 1,7,-1
 27 638 l 1,4,-1
EndSplineSet
EndChar

StartChar: icircumflex
Encoding: 238 238 174
Width: 203
GlyphClass: 2
Flags: W
LayerCount: 2
Fore
SplineSet
63 0 m 1,0,-1
 63 540 l 1,1,-1
 140 540 l 1,2,-1
 140 0 l 1,3,-1
 63 0 l 1,0,-1
111 750 m 1,4,-1
 203 634 l 1,5,-1
 179 600 l 1,6,-1
 102 670 l 1,7,-1
 25 600 l 1,8,-1
 2 634 l 1,9,-1
 92 750 l 1,10,-1
 111 750 l 1,4,-1
EndSplineSet
EndChar

StartChar: idieresis
Encoding: 239 239 175
Width: 203
GlyphClass: 2
Flags: W
LayerCount: 2
Fore
SplineSet
63 0 m 1,0,-1
 63 540 l 1,1,-1
 140 540 l 1,2,-1
 140 0 l 1,3,-1
 63 0 l 1,0,-1
-8 646 m 1,4,-1
 -8 740 l 1,5,-1
 73 740 l 1,6,-1
 73 646 l 1,7,-1
 -8 646 l 1,4,-1
132 646 m 1,8,-1
 132 740 l 1,9,-1
 212 740 l 1,10,-1
 212 646 l 1,11,-1
 132 646 l 1,8,-1
EndSplineSet
EndChar

StartChar: eth
Encoding: 240 240 176
Width: 379
GlyphClass: 2
Flags: W
LayerCount: 2
Fore
SplineSet
330 413 m 2,0,-1
 330 195 l 2,1,2
 330 76 330 76 293.5 30.5 c 128,-1,3
 257 -15 257 -15 189.5 -15 c 128,-1,4
 122 -15 122 -15 85.5 30.5 c 128,-1,5
 49 76 49 76 49 195 c 2,6,-1
 49 325 l 2,7,8
 49 535 49 535 172 535 c 0,9,10
 230 535 230 535 257 480 c 1,11,12
 254 574 254 574 239 640 c 1,13,-1
 153 598 l 1,14,-1
 153 649 l 1,15,-1
 225 684 l 1,16,17
 211 717 211 717 189 735 c 128,-1,18
 167 753 167 753 148.5 756.5 c 128,-1,19
 130 760 130 760 102 760 c 1,20,-1
 93 822 l 1,21,22
 162 822 162 822 209 800.5 c 128,-1,23
 256 779 256 779 286 713 c 1,24,-1
 358 748 l 1,25,-1
 358 698 l 1,26,-1
 301 670 l 1,27,28
 330 575 330 575 330 413 c 2,0,-1
253 181 m 2,29,-1
 253 339 l 2,30,31
 253 473 253 473 190 473 c 0,32,33
 125 473 125 473 125 339 c 2,34,-1
 125 181 l 2,35,36
 125 47 125 47 190 47 c 0,37,38
 253 47 253 47 253 181 c 2,29,-1
EndSplineSet
EndChar

StartChar: ntilde
Encoding: 241 241 177
Width: 398
GlyphClass: 2
Flags: W
LayerCount: 2
Fore
SplineSet
140 0 m 1,0,-1
 63 0 l 1,1,-1
 63 540 l 1,2,-1
 110 540 l 1,3,-1
 130 454 l 1,4,5
 151 555 151 555 235 555 c 0,6,7
 287 555 287 555 314.5 509 c 128,-1,8
 342 463 342 463 342 341 c 2,9,-1
 342 0 l 1,10,-1
 265 0 l 1,11,-1
 265 368 l 2,12,13
 265 493 265 493 216 493 c 0,14,15
 142 493 142 493 140 279 c 1,16,-1
 140 0 l 1,0,-1
244 629 m 0,17,18
 230 629 230 629 204.5 643.5 c 128,-1,19
 179 658 179 658 167 658 c 0,20,21
 146 658 146 658 122 627 c 1,22,-1
 99 665 l 1,23,24
 132 728 132 728 172 728 c 0,25,26
 186 728 186 728 211.5 714 c 128,-1,27
 237 700 237 700 249 700 c 0,28,29
 271 700 271 700 293 730 c 1,30,-1
 317 692 l 1,31,32
 280 629 280 629 244 629 c 0,17,18
EndSplineSet
EndChar

StartChar: ograve
Encoding: 242 242 178
Width: 379
GlyphClass: 2
Flags: W
LayerCount: 2
Fore
SplineSet
330 345 m 2,0,-1
 330 195 l 2,1,2
 330 76 330 76 293.5 30.5 c 128,-1,3
 257 -15 257 -15 189.5 -15 c 128,-1,4
 122 -15 122 -15 85.5 30.5 c 128,-1,5
 49 76 49 76 49 195 c 2,6,-1
 49 345 l 2,7,8
 49 464 49 464 85.5 509.5 c 128,-1,9
 122 555 122 555 189.5 555 c 128,-1,10
 257 555 257 555 293.5 509.5 c 128,-1,11
 330 464 330 464 330 345 c 2,0,-1
253 181 m 2,12,-1
 253 359 l 2,13,14
 253 493 253 493 190 493 c 0,15,16
 125 493 125 493 125 359 c 2,17,-1
 125 181 l 2,18,19
 125 47 125 47 190 47 c 0,20,21
 253 47 253 47 253 181 c 2,12,-1
143 756 m 1,22,-1
 273 638 l 1,23,-1
 251 602 l 1,24,-1
 108 689 l 1,25,-1
 143 756 l 1,22,-1
EndSplineSet
EndChar

StartChar: oacute
Encoding: 243 243 179
Width: 379
GlyphClass: 2
Flags: W
LayerCount: 2
Fore
SplineSet
330 345 m 2,0,-1
 330 195 l 2,1,2
 330 76 330 76 293.5 30.5 c 128,-1,3
 257 -15 257 -15 189.5 -15 c 128,-1,4
 122 -15 122 -15 85.5 30.5 c 128,-1,5
 49 76 49 76 49 195 c 2,6,-1
 49 345 l 2,7,8
 49 464 49 464 85.5 509.5 c 128,-1,9
 122 555 122 555 189.5 555 c 128,-1,10
 257 555 257 555 293.5 509.5 c 128,-1,11
 330 464 330 464 330 345 c 2,0,-1
253 181 m 2,12,-1
 253 359 l 2,13,14
 253 493 253 493 190 493 c 0,15,16
 125 493 125 493 125 359 c 2,17,-1
 125 181 l 2,18,19
 125 47 125 47 190 47 c 0,20,21
 253 47 253 47 253 181 c 2,12,-1
115 638 m 1,22,-1
 245 756 l 1,23,-1
 280 689 l 1,24,-1
 137 602 l 1,25,-1
 115 638 l 1,22,-1
EndSplineSet
EndChar

StartChar: ocircumflex
Encoding: 244 244 180
Width: 379
GlyphClass: 2
Flags: W
LayerCount: 2
Fore
SplineSet
330 345 m 2,0,-1
 330 195 l 2,1,2
 330 76 330 76 293.5 30.5 c 128,-1,3
 257 -15 257 -15 189.5 -15 c 128,-1,4
 122 -15 122 -15 85.5 30.5 c 128,-1,5
 49 76 49 76 49 195 c 2,6,-1
 49 345 l 2,7,8
 49 464 49 464 85.5 509.5 c 128,-1,9
 122 555 122 555 189.5 555 c 128,-1,10
 257 555 257 555 293.5 509.5 c 128,-1,11
 330 464 330 464 330 345 c 2,0,-1
253 181 m 2,12,-1
 253 359 l 2,13,14
 253 493 253 493 190 493 c 0,15,16
 125 493 125 493 125 359 c 2,17,-1
 125 181 l 2,18,19
 125 47 125 47 190 47 c 0,20,21
 253 47 253 47 253 181 c 2,12,-1
199 750 m 1,22,-1
 291 634 l 1,23,-1
 267 600 l 1,24,-1
 190 670 l 1,25,-1
 113 600 l 1,26,-1
 90 634 l 1,27,-1
 180 750 l 1,28,-1
 199 750 l 1,22,-1
EndSplineSet
EndChar

StartChar: otilde
Encoding: 245 245 181
Width: 379
GlyphClass: 2
Flags: W
LayerCount: 2
Fore
SplineSet
330 345 m 2,0,-1
 330 195 l 2,1,2
 330 76 330 76 293.5 30.5 c 128,-1,3
 257 -15 257 -15 189.5 -15 c 128,-1,4
 122 -15 122 -15 85.5 30.5 c 128,-1,5
 49 76 49 76 49 195 c 2,6,-1
 49 345 l 2,7,8
 49 464 49 464 85.5 509.5 c 128,-1,9
 122 555 122 555 189.5 555 c 128,-1,10
 257 555 257 555 293.5 509.5 c 128,-1,11
 330 464 330 464 330 345 c 2,0,-1
253 181 m 2,12,-1
 253 359 l 2,13,14
 253 493 253 493 190 493 c 0,15,16
 125 493 125 493 125 359 c 2,17,-1
 125 181 l 2,18,19
 125 47 125 47 190 47 c 0,20,21
 253 47 253 47 253 181 c 2,12,-1
227 629 m 0,22,23
 213 629 213 629 187.5 643.5 c 128,-1,24
 162 658 162 658 150 658 c 0,25,26
 129 658 129 658 105 627 c 1,27,-1
 82 665 l 1,28,29
 115 728 115 728 155 728 c 0,30,31
 169 728 169 728 194.5 714 c 128,-1,32
 220 700 220 700 232 700 c 0,33,34
 254 700 254 700 276 730 c 1,35,-1
 300 692 l 1,36,37
 263 629 263 629 227 629 c 0,22,23
EndSplineSet
EndChar

StartChar: odieresis
Encoding: 246 246 182
Width: 379
GlyphClass: 2
Flags: W
LayerCount: 2
Fore
SplineSet
330 345 m 2,0,-1
 330 195 l 2,1,2
 330 76 330 76 293.5 30.5 c 128,-1,3
 257 -15 257 -15 189.5 -15 c 128,-1,4
 122 -15 122 -15 85.5 30.5 c 128,-1,5
 49 76 49 76 49 195 c 2,6,-1
 49 345 l 2,7,8
 49 464 49 464 85.5 509.5 c 128,-1,9
 122 555 122 555 189.5 555 c 128,-1,10
 257 555 257 555 293.5 509.5 c 128,-1,11
 330 464 330 464 330 345 c 2,0,-1
253 181 m 2,12,-1
 253 359 l 2,13,14
 253 493 253 493 190 493 c 0,15,16
 125 493 125 493 125 359 c 2,17,-1
 125 181 l 2,18,19
 125 47 125 47 190 47 c 0,20,21
 253 47 253 47 253 181 c 2,12,-1
80 646 m 1,22,-1
 80 740 l 1,23,-1
 161 740 l 1,24,-1
 161 646 l 1,25,-1
 80 646 l 1,22,-1
220 646 m 1,26,-1
 220 740 l 1,27,-1
 300 740 l 1,28,-1
 300 646 l 1,29,-1
 220 646 l 1,26,-1
EndSplineSet
EndChar

StartChar: divide
Encoding: 247 247 183
Width: 377
GlyphClass: 2
Flags: W
LayerCount: 2
Fore
SplineSet
154 137 m 1,0,-1
 154 215 l 1,1,-1
 221 215 l 1,2,-1
 221 137 l 1,3,-1
 154 137 l 1,0,-1
154 485 m 1,4,-1
 154 563 l 1,5,-1
 221 563 l 1,6,-1
 221 485 l 1,7,-1
 154 485 l 1,4,-1
56 319 m 1,8,-1
 56 381 l 1,9,-1
 320 381 l 1,10,-1
 320 319 l 1,11,-1
 56 319 l 1,8,-1
EndSplineSet
EndChar

StartChar: oslash
Encoding: 248 248 184
Width: 379
GlyphClass: 2
Flags: W
LayerCount: 2
Fore
SplineSet
49 195 m 2,0,-1
 49 345 l 2,1,2
 49 464 49 464 85.5 509.5 c 128,-1,3
 122 555 122 555 190 555 c 0,4,5
 208 555 208 555 223 552 c 1,6,-1
 249 672 l 1,7,-1
 301 672 l 1,8,-1
 271 532 l 1,9,10
 330 488 330 488 330 345 c 2,11,-1
 330 195 l 2,12,13
 330 76 330 76 293.5 30.5 c 128,-1,14
 257 -15 257 -15 190 -15 c 0,15,16
 170 -15 170 -15 154 -12 c 1,17,-1
 129 -132 l 1,18,-1
 77 -132 l 1,19,-1
 107 8 l 1,20,21
 49 53 49 53 49 195 c 2,0,-1
253 181 m 2,22,-1
 253 359 l 2,23,24
 253 395 253 395 248 425 c 1,25,-1
 168 51 l 1,26,27
 177 47 177 47 190 47 c 0,28,29
 253 47 253 47 253 181 c 2,22,-1
125 181 m 2,30,31
 125 145 125 145 130 115 c 1,32,-1
 210 489 l 1,33,34
 201 493 201 493 190 493 c 0,35,36
 125 493 125 493 125 359 c 2,37,-1
 125 181 l 2,30,31
EndSplineSet
EndChar

StartChar: ugrave
Encoding: 249 249 185
Width: 391
GlyphClass: 2
Flags: W
LayerCount: 2
Fore
SplineSet
251 540 m 1,0,-1
 327 540 l 1,1,-1
 327 0 l 1,2,-1
 280 0 l 1,3,-1
 264 66 l 1,4,5
 241 -15 241 -15 167 -15 c 0,6,7
 112 -15 112 -15 84 19 c 128,-1,8
 56 53 56 53 56 149 c 2,9,-1
 56 540 l 1,10,-1
 132 540 l 1,11,-1
 132 143 l 2,12,13
 132 88 132 88 145.5 68 c 128,-1,14
 159 48 159 48 186 48 c 0,15,16
 247 48 247 48 251 145 c 1,17,-1
 251 540 l 1,0,-1
148 756 m 1,18,-1
 278 638 l 1,19,-1
 256 602 l 1,20,-1
 113 689 l 1,21,-1
 148 756 l 1,18,-1
EndSplineSet
EndChar

StartChar: uacute
Encoding: 250 250 186
Width: 391
GlyphClass: 2
Flags: W
LayerCount: 2
Fore
SplineSet
251 540 m 1,0,-1
 327 540 l 1,1,-1
 327 0 l 1,2,-1
 280 0 l 1,3,-1
 264 66 l 1,4,5
 241 -15 241 -15 167 -15 c 0,6,7
 112 -15 112 -15 84 19 c 128,-1,8
 56 53 56 53 56 149 c 2,9,-1
 56 540 l 1,10,-1
 132 540 l 1,11,-1
 132 143 l 2,12,13
 132 88 132 88 145.5 68 c 128,-1,14
 159 48 159 48 186 48 c 0,15,16
 247 48 247 48 251 145 c 1,17,-1
 251 540 l 1,0,-1
120 638 m 1,18,-1
 250 756 l 1,19,-1
 285 689 l 1,20,-1
 142 602 l 1,21,-1
 120 638 l 1,18,-1
EndSplineSet
EndChar

StartChar: ucircumflex
Encoding: 251 251 187
Width: 391
GlyphClass: 2
Flags: W
LayerCount: 2
Fore
SplineSet
251 540 m 1,0,-1
 327 540 l 1,1,-1
 327 0 l 1,2,-1
 280 0 l 1,3,-1
 264 66 l 1,4,5
 241 -15 241 -15 167 -15 c 0,6,7
 112 -15 112 -15 84 19 c 128,-1,8
 56 53 56 53 56 149 c 2,9,-1
 56 540 l 1,10,-1
 132 540 l 1,11,-1
 132 143 l 2,12,13
 132 88 132 88 145.5 68 c 128,-1,14
 159 48 159 48 186 48 c 0,15,16
 247 48 247 48 251 145 c 1,17,-1
 251 540 l 1,0,-1
204 750 m 1,18,-1
 296 634 l 1,19,-1
 272 600 l 1,20,-1
 195 670 l 1,21,-1
 118 600 l 1,22,-1
 95 634 l 1,23,-1
 185 750 l 1,24,-1
 204 750 l 1,18,-1
EndSplineSet
EndChar

StartChar: udieresis
Encoding: 252 252 188
Width: 391
GlyphClass: 2
Flags: W
LayerCount: 2
Fore
SplineSet
251 540 m 1,0,-1
 327 540 l 1,1,-1
 327 0 l 1,2,-1
 280 0 l 1,3,-1
 264 66 l 1,4,5
 241 -15 241 -15 167 -15 c 0,6,7
 112 -15 112 -15 84 19 c 128,-1,8
 56 53 56 53 56 149 c 2,9,-1
 56 540 l 1,10,-1
 132 540 l 1,11,-1
 132 143 l 2,12,13
 132 88 132 88 145.5 68 c 128,-1,14
 159 48 159 48 186 48 c 0,15,16
 247 48 247 48 251 145 c 1,17,-1
 251 540 l 1,0,-1
85 646 m 1,18,-1
 85 740 l 1,19,-1
 166 740 l 1,20,-1
 166 646 l 1,21,-1
 85 646 l 1,18,-1
225 646 m 1,22,-1
 225 740 l 1,23,-1
 305 740 l 1,24,-1
 305 646 l 1,25,-1
 225 646 l 1,22,-1
EndSplineSet
EndChar

StartChar: yacute
Encoding: 253 253 189
Width: 349
GlyphClass: 2
Flags: W
LayerCount: 2
Fore
SplineSet
153.5 -166 m 128,-1,1
 125 -195 125 -195 82.5 -195 c 128,-1,2
 40 -195 40 -195 -7 -150 c 1,3,-1
 20 -98 l 1,4,5
 57 -131 57 -131 84 -131 c 0,6,7
 126 -131 126 -131 140 -49 c 2,8,-1
 148 -3 l 1,9,-1
 16 540 l 1,10,-1
 93 540 l 1,11,-1
 179 148 l 1,12,-1
 254 540 l 1,13,-1
 332 540 l 1,14,-1
 194 -82 l 2,15,0
 182 -137 182 -137 153.5 -166 c 128,-1,1
114 638 m 1,16,-1
 244 756 l 1,17,-1
 279 689 l 1,18,-1
 136 602 l 1,19,-1
 114 638 l 1,16,-1
EndSplineSet
EndChar

StartChar: thorn
Encoding: 254 254 190
Width: 390
GlyphClass: 2
Flags: W
LayerCount: 2
Fore
SplineSet
136 741 m 1,0,-1
 136 475 l 1,1,2
 163 555 163 555 232 555 c 0,3,4
 285 555 285 555 313 510 c 128,-1,5
 341 465 341 465 341 345 c 2,6,-1
 341 195 l 2,7,8
 341 75 341 75 313 30 c 128,-1,9
 285 -15 285 -15 232 -15 c 0,10,11
 159 -15 159 -15 136 79 c 1,12,-1
 136 -180 l 1,13,-1
 63 -180 l 1,14,-1
 63 741 l 1,15,-1
 136 741 l 1,0,-1
136 270 m 2,16,17
 136 180 136 180 147.5 128 c 128,-1,18
 159 76 159 76 174 61.5 c 128,-1,19
 189 47 189 47 214 47 c 0,20,21
 268 47 268 47 268 171 c 2,22,-1
 268 369 l 2,23,24
 268 493 268 493 215 493 c 0,25,26
 192 493 192 493 176.5 479 c 128,-1,27
 161 465 161 465 149 417 c 128,-1,28
 137 369 137 369 136 284 c 1,29,-1
 136 270 l 2,16,17
EndSplineSet
EndChar

StartChar: ydieresis
Encoding: 255 255 191
Width: 349
GlyphClass: 2
Flags: W
LayerCount: 2
Fore
SplineSet
153.5 -166 m 128,-1,1
 125 -195 125 -195 82.5 -195 c 128,-1,2
 40 -195 40 -195 -7 -150 c 1,3,-1
 20 -98 l 1,4,5
 57 -131 57 -131 84 -131 c 0,6,7
 126 -131 126 -131 140 -49 c 2,8,-1
 148 -3 l 1,9,-1
 16 540 l 1,10,-1
 93 540 l 1,11,-1
 179 148 l 1,12,-1
 254 540 l 1,13,-1
 332 540 l 1,14,-1
 194 -82 l 2,15,0
 182 -137 182 -137 153.5 -166 c 128,-1,1
72 646 m 1,16,-1
 72 740 l 1,17,-1
 153 740 l 1,18,-1
 153 646 l 1,19,-1
 72 646 l 1,16,-1
212 646 m 1,20,-1
 212 740 l 1,21,-1
 292 740 l 1,22,-1
 292 646 l 1,23,-1
 212 646 l 1,20,-1
EndSplineSet
EndChar

StartChar: dotlessi
Encoding: 305 305 192
Width: 203
GlyphClass: 2
Flags: W
LayerCount: 2
Fore
SplineSet
63 0 m 1,0,-1
 63 540 l 1,1,-1
 140 540 l 1,2,-1
 140 0 l 1,3,-1
 63 0 l 1,0,-1
EndSplineSet
EndChar

StartChar: Lslash
Encoding: 321 321 193
Width: 313
GlyphClass: 2
Flags: W
LayerCount: 2
Fore
SplineSet
63 700 m 1,0,-1
 143 700 l 1,1,-1
 143 396 l 1,2,-1
 223 435 l 1,3,-1
 223 381 l 1,4,-1
 143 342 l 1,5,-1
 143 64 l 1,6,-1
 298 64 l 1,7,-1
 298 0 l 1,8,-1
 63 0 l 1,9,-1
 63 303 l 1,10,-1
 18 281 l 1,11,-1
 18 336 l 1,12,-1
 63 357 l 1,13,-1
 63 700 l 1,0,-1
EndSplineSet
EndChar

StartChar: lslash
Encoding: 322 322 194
Width: 203
GlyphClass: 2
Flags: W
LayerCount: 2
Fore
SplineSet
63 740 m 1,0,-1
 140 740 l 1,1,-1
 140 404 l 1,2,-1
 204 435 l 1,3,-1
 204 381 l 1,4,-1
 140 349 l 1,5,-1
 140 0 l 1,6,-1
 63 0 l 1,7,-1
 63 312 l 1,8,-1
 -1 281 l 1,9,-1
 -1 336 l 1,10,-1
 63 367 l 1,11,-1
 63 740 l 1,0,-1
EndSplineSet
EndChar

StartChar: OE
Encoding: 338 338 195
Width: 580
GlyphClass: 2
Flags: W
LayerCount: 2
Fore
SplineSet
362 491 m 2,0,-1
 362 381 l 1,1,-1
 519 381 l 1,2,-1
 519 317 l 1,3,-1
 362 317 l 1,4,-1
 362 209 l 2,5,6
 362 115 362 115 339 64 c 1,7,-1
 537 64 l 1,8,-1
 537 0 l 1,9,-1
 281 0 l 1,10,11
 251 -15 251 -15 206 -15 c 0,12,13
 130 -15 130 -15 89.5 33.5 c 128,-1,14
 49 82 49 82 49 209 c 2,15,-1
 49 491 l 2,16,17
 49 618 49 618 89.5 666.5 c 128,-1,18
 130 715 130 715 206 715 c 0,19,20
 251 715 251 715 281 700 c 1,21,-1
 533 700 l 1,22,-1
 533 636 l 1,23,-1
 339 636 l 1,24,25
 362 584 362 584 362 491 c 2,0,-1
283 194 m 2,26,-1
 283 506 l 2,27,28
 283 650 283 650 206 650 c 0,29,30
 169 650 169 650 148.5 619 c 128,-1,31
 128 588 128 588 128 506 c 2,32,-1
 128 194 l 2,33,34
 128 112 128 112 148.5 81 c 128,-1,35
 169 50 169 50 206 50 c 0,36,37
 283 50 283 50 283 194 c 2,26,-1
EndSplineSet
EndChar

StartChar: oe
Encoding: 339 339 196
Width: 585
GlyphClass: 2
Flags: W
LayerCount: 2
Fore
SplineSet
493 19 m 128,-1,1
 459 -15 459 -15 393 -15 c 128,-1,2
 327 -15 327 -15 293 30 c 1,3,4
 260 -15 260 -15 191 -15 c 128,-1,5
 122 -15 122 -15 85.5 30.5 c 128,-1,6
 49 76 49 76 49 195 c 2,7,-1
 49 345 l 2,8,9
 49 464 49 464 85.5 509.5 c 128,-1,10
 122 555 122 555 191 555 c 128,-1,11
 260 555 260 555 293 510 c 1,12,13
 327 555 327 555 396.5 555 c 128,-1,14
 466 555 466 555 501 510 c 128,-1,15
 536 465 536 465 536 345 c 2,16,-1
 536 238 l 1,17,-1
 331 238 l 1,18,-1
 331 181 l 2,19,20
 331 47 331 47 395 47 c 0,21,22
 426 47 426 47 443 69 c 128,-1,23
 460 91 460 91 467 151 c 1,24,-1
 534 140 l 1,25,0
 527 53 527 53 493 19 c 128,-1,1
253 181 m 2,26,-1
 253 359 l 2,27,28
 253 493 253 493 190 493 c 0,29,30
 125 493 125 493 125 359 c 2,31,-1
 125 181 l 2,32,33
 125 47 125 47 190 47 c 0,34,35
 253 47 253 47 253 181 c 2,26,-1
331 359 m 2,36,-1
 331 302 l 1,37,-1
 459 302 l 1,38,-1
 459 359 l 2,39,40
 459 493 459 493 396 493 c 0,41,42
 331 493 331 493 331 359 c 2,36,-1
EndSplineSet
EndChar

StartChar: Scaron
Encoding: 352 352 197
Width: 398
GlyphClass: 2
Flags: W
LayerCount: 2
Fore
SplineSet
278 157 m 0,0,1
 278 237 278 237 224 280 c 1,2,-1
 144 339 l 1,3,4
 54 403 54 403 54 528 c 0,5,6
 54 632 54 632 93.5 673.5 c 128,-1,7
 133 715 133 715 201.5 715 c 128,-1,8
 270 715 270 715 308 676.5 c 128,-1,9
 346 638 346 638 354 537 c 1,10,-1
 278 520 l 1,11,12
 274 648 274 648 203.5 648 c 128,-1,13
 133 648 133 648 133 539 c 0,14,15
 133 491 133 491 143.5 461 c 128,-1,16
 154 431 154 431 184 407 c 1,17,-1
 263 348 l 2,18,19
 291 328 291 328 308 310 c 128,-1,20
 325 292 325 292 340.5 252.5 c 128,-1,21
 356 213 356 213 356 159 c 0,22,23
 356 63 356 63 314.5 24 c 128,-1,24
 273 -15 273 -15 202 -15 c 128,-1,25
 131 -15 131 -15 91 31 c 128,-1,26
 51 77 51 77 42 195 c 1,27,-1
 117 208 l 1,28,29
 121 123 121 123 141.5 87 c 128,-1,30
 162 51 162 51 199 51 c 0,31,32
 278 51 278 51 278 157 c 0,0,1
196 760 m 1,33,-1
 106 875 l 1,34,-1
 129 910 l 1,35,-1
 206 840 l 1,36,-1
 283 910 l 1,37,-1
 307 875 l 1,38,-1
 215 760 l 1,39,-1
 196 760 l 1,33,-1
EndSplineSet
EndChar

StartChar: scaron
Encoding: 353 353 198
Width: 356
GlyphClass: 2
Flags: W
LayerCount: 2
Fore
SplineSet
241 121 m 0,0,1
 241 178 241 178 199 208 c 2,2,-1
 130 257 l 1,3,4
 53 308 53 308 53 408 c 0,5,6
 53 489 53 489 87.5 522 c 128,-1,7
 122 555 122 555 181 555 c 128,-1,8
 240 555 240 555 273 524 c 128,-1,9
 306 493 306 493 313 411 c 1,10,-1
 244 397 l 1,11,12
 239 494 239 494 182.5 494 c 128,-1,13
 126 494 126 494 126 415 c 0,14,15
 126 351 126 351 168 320 c 1,16,-1
 234 274 l 2,17,18
 259 257 259 257 273.5 243.5 c 128,-1,19
 288 230 288 230 301.5 198.5 c 128,-1,20
 315 167 315 167 315 125 c 0,21,22
 315 48 315 48 279 16.5 c 128,-1,23
 243 -15 243 -15 181.5 -15 c 128,-1,24
 120 -15 120 -15 85 21.5 c 128,-1,25
 50 58 50 58 42 150 c 1,26,-1
 113 163 l 1,27,28
 117 98 117 98 133.5 72 c 128,-1,29
 150 46 150 46 179 46 c 0,30,31
 241 46 241 46 241 121 c 0,0,1
175 600 m 1,32,-1
 85 715 l 1,33,-1
 108 750 l 1,34,-1
 185 680 l 1,35,-1
 262 750 l 1,36,-1
 286 715 l 1,37,-1
 194 600 l 1,38,-1
 175 600 l 1,32,-1
EndSplineSet
EndChar

StartChar: Ydieresis
Encoding: 376 376 199
Width: 374
GlyphClass: 2
Flags: W
LayerCount: 2
Fore
SplineSet
226 0 m 1,0,-1
 148 0 l 1,1,-1
 148 234 l 1,2,-1
 16 700 l 1,3,-1
 94 700 l 1,4,-1
 187 339 l 1,5,-1
 279 700 l 1,6,-1
 357 700 l 1,7,-1
 226 234 l 1,8,-1
 226 0 l 1,0,-1
77 806 m 1,9,-1
 77 900 l 1,10,-1
 158 900 l 1,11,-1
 158 806 l 1,12,-1
 77 806 l 1,9,-1
217 806 m 1,13,-1
 217 900 l 1,14,-1
 297 900 l 1,15,-1
 297 806 l 1,16,-1
 217 806 l 1,13,-1
EndSplineSet
EndChar

StartChar: Zcaron
Encoding: 381 381 200
Width: 351
GlyphClass: 2
Flags: W
LayerCount: 2
Fore
SplineSet
23 0 m 1,0,-1
 23 38 l 1,1,-1
 245 636 l 1,2,-1
 42 636 l 1,3,-1
 42 700 l 1,4,-1
 328 700 l 1,5,-1
 328 662 l 1,6,-1
 106 64 l 1,7,-1
 328 64 l 1,8,-1
 328 0 l 1,9,-1
 23 0 l 1,0,-1
179 760 m 1,10,-1
 89 875 l 1,11,-1
 112 910 l 1,12,-1
 189 840 l 1,13,-1
 266 910 l 1,14,-1
 290 875 l 1,15,-1
 198 760 l 1,16,-1
 179 760 l 1,10,-1
EndSplineSet
EndChar

StartChar: zcaron
Encoding: 382 382 201
Width: 320
GlyphClass: 2
Flags: W
LayerCount: 2
Fore
SplineSet
30 0 m 1,0,-1
 30 41 l 1,1,-1
 207 478 l 1,2,-1
 41 478 l 1,3,-1
 41 540 l 1,4,-1
 291 540 l 1,5,-1
 291 499 l 1,6,-1
 111 62 l 1,7,-1
 292 62 l 1,8,-1
 292 0 l 1,9,-1
 30 0 l 1,0,-1
164 600 m 1,10,-1
 74 715 l 1,11,-1
 97 750 l 1,12,-1
 174 680 l 1,13,-1
 251 750 l 1,14,-1
 275 715 l 1,15,-1
 183 600 l 1,16,-1
 164 600 l 1,10,-1
EndSplineSet
EndChar

StartChar: florin
Encoding: 402 402 202
Width: 219
GlyphClass: 2
Flags: W
LayerCount: 2
Fore
SplineSet
191 688 m 0,0,1
 165 688 165 688 152.5 660.5 c 128,-1,2
 140 633 140 633 140 560 c 2,3,-1
 140 466 l 1,4,-1
 203 466 l 1,5,-1
 203 414 l 1,6,-1
 140 414 l 1,7,-1
 140 15 l 2,8,9
 140 -104 140 -104 109.5 -149.5 c 128,-1,10
 79 -195 79 -195 24 -195 c 0,11,12
 -10 -195 -10 -195 -37 -183 c 1,13,-1
 -22 -118 l 1,14,15
 -3 -128 -3 -128 12 -128 c 0,16,17
 37 -128 37 -128 50 -100.5 c 128,-1,18
 63 -73 63 -73 63 0 c 2,19,-1
 63 414 l 1,20,-1
 12 414 l 1,21,-1
 12 466 l 1,22,-1
 63 466 l 1,23,-1
 63 545 l 2,24,25
 63 664 63 664 93.5 709.5 c 128,-1,26
 124 755 124 755 179 755 c 0,27,28
 213 755 213 755 240 743 c 1,29,-1
 225 678 l 1,30,31
 206 688 206 688 191 688 c 0,0,1
EndSplineSet
EndChar

StartChar: circumflex
Encoding: 710 710 203
Width: 263
GlyphClass: 2
Flags: W
LayerCount: 2
Fore
SplineSet
140 750 m 1,0,-1
 232 634 l 1,1,-1
 208 600 l 1,2,-1
 131 670 l 1,3,-1
 54 600 l 1,4,-1
 31 634 l 1,5,-1
 121 750 l 1,6,-1
 140 750 l 1,0,-1
EndSplineSet
EndChar

StartChar: caron
Encoding: 711 711 204
Width: 263
GlyphClass: 2
Flags: W
LayerCount: 2
Fore
SplineSet
121 600 m 1,0,-1
 31 715 l 1,1,-1
 54 750 l 1,2,-1
 131 680 l 1,3,-1
 208 750 l 1,4,-1
 232 715 l 1,5,-1
 140 600 l 1,6,-1
 121 600 l 1,0,-1
EndSplineSet
EndChar

StartChar: breve
Encoding: 728 728 205
Width: 269
GlyphClass: 2
Flags: W
LayerCount: 2
Fore
SplineSet
144 613 m 2,0,-1
 125 613 l 2,1,2
 76 613 76 613 59 642.5 c 128,-1,3
 42 672 42 672 42 728 c 1,4,-1
 83 728 l 1,5,6
 83 704 83 704 92 692.5 c 128,-1,7
 101 681 101 681 128 681 c 2,8,-1
 142 681 l 2,9,10
 186 681 186 681 186 728 c 1,11,-1
 228 728 l 1,12,13
 228 672 228 672 210.5 642.5 c 128,-1,14
 193 613 193 613 144 613 c 2,0,-1
EndSplineSet
EndChar

StartChar: dotaccent
Encoding: 729 729 206
Width: 203
GlyphClass: 2
Flags: W
LayerCount: 2
Fore
SplineSet
60 646 m 1,0,-1
 60 740 l 1,1,-1
 143 740 l 1,2,-1
 143 646 l 1,3,-1
 60 646 l 1,0,-1
EndSplineSet
EndChar

StartChar: ring
Encoding: 730 730 207
Width: 200
GlyphClass: 2
Flags: W
LayerCount: 2
Fore
SplineSet
176 697 m 2,0,-1
 176 683 l 2,1,2
 176 627 176 627 156 606.5 c 128,-1,3
 136 586 136 586 100 586 c 128,-1,4
 64 586 64 586 44 606.5 c 128,-1,5
 24 627 24 627 24 683 c 2,6,-1
 24 697 l 2,7,8
 24 753 24 753 44 773.5 c 128,-1,9
 64 794 64 794 100 794 c 128,-1,10
 136 794 136 794 156 773.5 c 128,-1,11
 176 753 176 753 176 697 c 2,0,-1
127 677 m 2,12,-1
 127 703 l 2,13,14
 127 752 127 752 100 752 c 128,-1,15
 73 752 73 752 73 703 c 2,16,-1
 73 677 l 2,17,18
 73 628 73 628 100 628 c 128,-1,19
 127 628 127 628 127 677 c 2,12,-1
EndSplineSet
EndChar

StartChar: ogonek
Encoding: 731 731 208
Width: 245
GlyphClass: 2
Flags: W
LayerCount: 2
Fore
SplineSet
111 -198 m 0,0,1
 42 -198 42 -198 42 -117 c 0,2,3
 42 -59 42 -59 101 0 c 1,4,-1
 149 0 l 1,5,6
 101 -55 101 -55 101 -108 c 0,7,8
 101 -144 101 -144 118 -144 c 0,9,10
 144 -144 144 -144 162 -81 c 1,11,-1
 203 -90 l 1,12,13
 178 -198 178 -198 111 -198 c 0,0,1
EndSplineSet
EndChar

StartChar: tilde
Encoding: 732 732 209
Width: 300
GlyphClass: 2
Flags: W
LayerCount: 2
Fore
SplineSet
186 629 m 0,0,1
 172 629 172 629 146.5 643.5 c 128,-1,2
 121 658 121 658 109 658 c 0,3,4
 88 658 88 658 64 627 c 1,5,-1
 41 665 l 1,6,7
 74 728 74 728 114 728 c 0,8,9
 128 728 128 728 153.5 714 c 128,-1,10
 179 700 179 700 191 700 c 0,11,12
 213 700 213 700 235 730 c 1,13,-1
 259 692 l 1,14,15
 222 629 222 629 186 629 c 0,0,1
EndSplineSet
EndChar

StartChar: hungarumlaut
Encoding: 733 733 210
Width: 358
GlyphClass: 2
Flags: W
LayerCount: 2
Fore
SplineSet
63 634 m 1,0,-1
 157 758 l 1,1,-1
 201 698 l 1,2,-1
 92 602 l 1,3,-1
 63 634 l 1,0,-1
200 634 m 1,4,-1
 294 758 l 1,5,-1
 338 698 l 1,6,-1
 229 602 l 1,7,-1
 200 634 l 1,4,-1
EndSplineSet
EndChar

StartChar: pi
Encoding: 960 960 211
Width: 480
GlyphClass: 2
Flags: W
LayerCount: 2
Fore
SplineSet
272 0 m 1,0,-1
 272 477 l 1,1,-1
 164 477 l 1,2,-1
 164 0 l 1,3,-1
 85 0 l 1,4,-1
 85 477 l 1,5,-1
 35 477 l 1,6,-1
 35 541 l 1,7,-1
 402 541 l 1,8,-1
 402 477 l 1,9,-1
 351 477 l 1,10,-1
 351 0 l 1,11,-1
 272 0 l 1,0,-1
EndSplineSet
EndChar

StartChar: endash
Encoding: 8211 8211 212
Width: 401
GlyphClass: 2
Flags: W
LayerCount: 2
Fore
SplineSet
42 274 m 1,0,-1
 42 336 l 1,1,-1
 360 336 l 1,2,-1
 360 274 l 1,3,-1
 42 274 l 1,0,-1
EndSplineSet
EndChar

StartChar: emdash
Encoding: 8212 8212 213
Width: 492
GlyphClass: 2
Flags: W
LayerCount: 2
Fore
SplineSet
42 274 m 1,0,-1
 42 336 l 1,1,-1
 450 336 l 1,2,-1
 450 274 l 1,3,-1
 42 274 l 1,0,-1
EndSplineSet
EndChar

StartChar: quoteleft
Encoding: 8216 8216 214
Width: 163
GlyphClass: 2
Flags: W
LayerCount: 2
Fore
SplineSet
121 638 m 1,0,-1
 121 546 l 1,1,-1
 42 546 l 1,2,-1
 42 634 l 1,3,-1
 80 758 l 1,4,-1
 112 752 l 1,5,-1
 100 638 l 1,6,-1
 121 638 l 1,0,-1
EndSplineSet
EndChar

StartChar: quoteright
Encoding: 8217 8217 215
Width: 163
GlyphClass: 2
Flags: W
LayerCount: 2
Fore
SplineSet
42 654 m 1,0,-1
 42 746 l 1,1,-1
 121 746 l 1,2,-1
 121 658 l 1,3,-1
 82 534 l 1,4,-1
 52 540 l 1,5,-1
 64 654 l 1,6,-1
 42 654 l 1,0,-1
EndSplineSet
EndChar

StartChar: quotesinglbase
Encoding: 8218 8218 216
Width: 163
GlyphClass: 2
Flags: W
LayerCount: 2
Fore
SplineSet
42 0 m 1,0,-1
 42 92 l 1,1,-1
 121 92 l 1,2,-1
 121 4 l 1,3,-1
 82 -120 l 1,4,-1
 52 -114 l 1,5,-1
 64 0 l 1,6,-1
 42 0 l 1,0,-1
EndSplineSet
EndChar

StartChar: quotedblleft
Encoding: 8220 8220 217
Width: 276
GlyphClass: 2
Flags: W
LayerCount: 2
Fore
SplineSet
121 638 m 1,0,-1
 121 546 l 1,1,-1
 42 546 l 1,2,-1
 42 634 l 1,3,-1
 80 758 l 1,4,-1
 112 752 l 1,5,-1
 100 638 l 1,6,-1
 121 638 l 1,0,-1
235 638 m 1,7,-1
 235 546 l 1,8,-1
 156 546 l 1,9,-1
 156 634 l 1,10,-1
 194 758 l 1,11,-1
 226 752 l 1,12,-1
 214 638 l 1,13,-1
 235 638 l 1,7,-1
EndSplineSet
EndChar

StartChar: quotedblright
Encoding: 8221 8221 218
Width: 276
GlyphClass: 2
Flags: W
LayerCount: 2
Fore
SplineSet
156 654 m 1,0,-1
 156 746 l 1,1,-1
 235 746 l 1,2,-1
 235 658 l 1,3,-1
 196 534 l 1,4,-1
 166 540 l 1,5,-1
 178 654 l 1,6,-1
 156 654 l 1,0,-1
42 654 m 1,7,-1
 42 746 l 1,8,-1
 121 746 l 1,9,-1
 121 658 l 1,10,-1
 82 534 l 1,11,-1
 52 540 l 1,12,-1
 64 654 l 1,13,-1
 42 654 l 1,7,-1
EndSplineSet
EndChar

StartChar: quotedblbase
Encoding: 8222 8222 219
Width: 276
GlyphClass: 2
Flags: W
LayerCount: 2
Fore
SplineSet
156 0 m 1,0,-1
 156 92 l 1,1,-1
 235 92 l 1,2,-1
 235 4 l 1,3,-1
 196 -120 l 1,4,-1
 166 -114 l 1,5,-1
 178 0 l 1,6,-1
 156 0 l 1,0,-1
42 0 m 1,7,-1
 42 92 l 1,8,-1
 121 92 l 1,9,-1
 121 4 l 1,10,-1
 82 -120 l 1,11,-1
 52 -114 l 1,12,-1
 64 0 l 1,13,-1
 42 0 l 1,7,-1
EndSplineSet
EndChar

StartChar: dagger
Encoding: 8224 8224 220
Width: 414
GlyphClass: 2
Flags: W
LayerCount: 2
Fore
SplineSet
361 636 m 1,0,-1
 245 636 l 1,1,-1
 245 0 l 1,2,-1
 170 0 l 1,3,-1
 170 636 l 1,4,-1
 53 636 l 1,5,-1
 53 700 l 1,6,-1
 170 700 l 1,7,-1
 170 883 l 1,8,-1
 245 883 l 1,9,-1
 245 700 l 1,10,-1
 361 700 l 1,11,-1
 361 636 l 1,0,-1
EndSplineSet
EndChar

StartChar: daggerdbl
Encoding: 8225 8225 221
Width: 414
GlyphClass: 2
Flags: W
LayerCount: 2
Fore
SplineSet
361 183 m 1,0,-1
 245 183 l 1,1,-1
 245 0 l 1,2,-1
 170 0 l 1,3,-1
 170 183 l 1,4,-1
 53 183 l 1,5,-1
 53 247 l 1,6,-1
 170 247 l 1,7,-1
 170 636 l 1,8,-1
 53 636 l 1,9,-1
 53 700 l 1,10,-1
 170 700 l 1,11,-1
 170 883 l 1,12,-1
 245 883 l 1,13,-1
 245 700 l 1,14,-1
 361 700 l 1,15,-1
 361 636 l 1,16,-1
 245 636 l 1,17,-1
 245 247 l 1,18,-1
 361 247 l 1,19,-1
 361 183 l 1,0,-1
EndSplineSet
EndChar

StartChar: bullet
Encoding: 8226 8226 222
Width: 202
GlyphClass: 2
Flags: W
LayerCount: 2
Fore
SplineSet
100 265 m 1,0,-1
 27 350 l 1,1,-1
 100 435 l 1,2,-1
 175 350 l 1,3,-1
 100 265 l 1,0,-1
EndSplineSet
EndChar

StartChar: ellipsis
Encoding: 8230 8230 223
Width: 451
GlyphClass: 2
Flags: W
LayerCount: 2
Fore
SplineSet
42 0 m 1,0,-1
 42 92 l 1,1,-1
 121 92 l 1,2,-1
 121 0 l 1,3,-1
 42 0 l 1,0,-1
186 0 m 1,4,-1
 186 92 l 1,5,-1
 265 92 l 1,6,-1
 265 0 l 1,7,-1
 186 0 l 1,4,-1
330 0 m 1,8,-1
 330 92 l 1,9,-1
 409 92 l 1,10,-1
 409 0 l 1,11,-1
 330 0 l 1,8,-1
EndSplineSet
EndChar

StartChar: perthousand
Encoding: 8240 8240 224
Width: 959
GlyphClass: 2
Flags: W
LayerCount: 2
Fore
SplineSet
220 -15 m 1,0,-1
 403 715 l 1,1,-1
 460 715 l 1,2,-1
 277 -15 l 1,3,-1
 220 -15 l 1,0,-1
251 581 m 2,4,-1
 251 411 l 2,5,6
 251 335 251 335 223.5 306 c 128,-1,7
 196 277 196 277 145 277 c 128,-1,8
 94 277 94 277 66.5 306 c 128,-1,9
 39 335 39 335 39 411 c 2,10,-1
 39 581 l 2,11,12
 39 657 39 657 66.5 686 c 128,-1,13
 94 715 94 715 145 715 c 128,-1,14
 196 715 196 715 223.5 686 c 128,-1,15
 251 657 251 657 251 581 c 2,4,-1
187 402 m 2,16,-1
 187 590 l 2,17,18
 187 666 187 666 144.5 666 c 128,-1,19
 102 666 102 666 102 590 c 2,20,-1
 102 402 l 2,21,22
 102 326 102 326 144.5 326 c 128,-1,23
 187 326 187 326 187 402 c 2,16,-1
654 289 m 2,24,-1
 654 119 l 2,25,26
 654 43 654 43 626.5 14 c 128,-1,27
 599 -15 599 -15 548 -15 c 128,-1,28
 497 -15 497 -15 469.5 14 c 128,-1,29
 442 43 442 43 442 119 c 2,30,-1
 442 289 l 2,31,32
 442 365 442 365 469.5 394 c 128,-1,33
 497 423 497 423 548 423 c 128,-1,34
 599 423 599 423 626.5 394 c 128,-1,35
 654 365 654 365 654 289 c 2,24,-1
590 110 m 2,36,-1
 590 298 l 2,37,38
 590 374 590 374 547.5 374 c 128,-1,39
 505 374 505 374 505 298 c 2,40,-1
 505 110 l 2,41,42
 505 34 505 34 547.5 34 c 128,-1,43
 590 34 590 34 590 110 c 2,36,-1
921 289 m 2,44,-1
 921 119 l 2,45,46
 921 43 921 43 893.5 14 c 128,-1,47
 866 -15 866 -15 815 -15 c 128,-1,48
 764 -15 764 -15 736.5 14 c 128,-1,49
 709 43 709 43 709 119 c 2,50,-1
 709 289 l 2,51,52
 709 365 709 365 736.5 394 c 128,-1,53
 764 423 764 423 815 423 c 128,-1,54
 866 423 866 423 893.5 394 c 128,-1,55
 921 365 921 365 921 289 c 2,44,-1
857 110 m 2,56,-1
 857 298 l 2,57,58
 857 374 857 374 814.5 374 c 128,-1,59
 772 374 772 374 772 298 c 2,60,-1
 772 110 l 2,61,62
 772 34 772 34 814.5 34 c 128,-1,63
 857 34 857 34 857 110 c 2,56,-1
EndSplineSet
EndChar

StartChar: guilsinglleft
Encoding: 8249 8249 225
Width: 197
GlyphClass: 2
Flags: W
LayerCount: 2
Fore
SplineSet
32 287 m 1,0,-1
 32 353 l 1,1,-1
 137 503 l 1,2,-1
 165 477 l 1,3,-1
 97 320 l 1,4,-1
 165 163 l 1,5,-1
 137 137 l 1,6,-1
 32 287 l 1,0,-1
EndSplineSet
EndChar

StartChar: guilsinglright
Encoding: 8250 8250 226
Width: 197
GlyphClass: 2
Flags: W
LayerCount: 2
Fore
SplineSet
145 353 m 1,0,-1
 145 287 l 1,1,-1
 40 137 l 1,2,-1
 12 163 l 1,3,-1
 80 320 l 1,4,-1
 12 477 l 1,5,-1
 40 503 l 1,6,-1
 145 353 l 1,0,-1
EndSplineSet
EndChar

StartChar: fraction
Encoding: 8260 8260 227
Width: 292
GlyphClass: 2
Flags: W
LayerCount: 2
Fore
SplineSet
26 -15 m 1,0,-1
 209 715 l 1,1,-1
 266 715 l 1,2,-1
 83 -15 l 1,3,-1
 26 -15 l 1,0,-1
EndSplineSet
EndChar

StartChar: zeroinferior
Encoding: 8320 8320 228
Width: 290
GlyphClass: 2
Flags: W
LayerCount: 2
Fore
SplineSet
251 289 m 2,0,-1
 251 119 l 2,1,2
 251 43 251 43 223.5 14 c 128,-1,3
 196 -15 196 -15 145 -15 c 128,-1,4
 94 -15 94 -15 66.5 14 c 128,-1,5
 39 43 39 43 39 119 c 2,6,-1
 39 289 l 2,7,8
 39 365 39 365 66.5 394 c 128,-1,9
 94 423 94 423 145 423 c 128,-1,10
 196 423 196 423 223.5 394 c 128,-1,11
 251 365 251 365 251 289 c 2,0,-1
187 110 m 2,12,-1
 187 298 l 2,13,14
 187 374 187 374 144.5 374 c 128,-1,15
 102 374 102 374 102 298 c 2,16,-1
 102 110 l 2,17,18
 102 34 102 34 144.5 34 c 128,-1,19
 187 34 187 34 187 110 c 2,12,-1
EndSplineSet
EndChar

StartChar: oneinferior
Encoding: 8321 8321 229
Width: 177
GlyphClass: 2
Flags: W
LayerCount: 2
Fore
SplineSet
130 420 m 1,0,-1
 130 0 l 1,1,-1
 67 0 l 1,2,-1
 67 359 l 1,3,-1
 11 359 l 1,4,-1
 11 394 l 1,5,-1
 89 420 l 1,6,-1
 130 420 l 1,0,-1
EndSplineSet
EndChar

StartChar: twoinferior
Encoding: 8322 8322 230
Width: 272
GlyphClass: 2
Flags: W
LayerCount: 2
Fore
SplineSet
67.5 404.5 m 128,-1,1
 93 429 93 429 139 429 c 128,-1,2
 185 429 185 429 211 406 c 128,-1,3
 237 383 237 383 237 326 c 128,-1,4
 237 269 237 269 198 210 c 2,5,-1
 92 49 l 1,6,-1
 234 49 l 1,7,-1
 234 0 l 1,8,-1
 35 0 l 1,9,-1
 35 30 l 2,10,11
 35 84 35 84 85 152 c 1,12,-1
 153 250 l 1,13,14
 175 288 175 288 175 323 c 0,15,16
 175 381 175 381 137 381 c 0,17,18
 118 381 118 381 107.5 365.5 c 128,-1,19
 97 350 97 350 94 308 c 1,20,-1
 36 316 l 1,21,0
 42 380 42 380 67.5 404.5 c 128,-1,1
EndSplineSet
EndChar

StartChar: threeinferior
Encoding: 8323 8323 231
Width: 276
GlyphClass: 2
Flags: W
LayerCount: 2
Fore
SplineSet
130 34 m 0,0,1
 173 34 173 34 173 96 c 2,2,-1
 173 115 l 2,3,4
 173 157 173 157 162 170.5 c 128,-1,5
 151 184 151 184 128 184 c 2,6,-1
 97 184 l 1,7,-1
 97 229 l 1,8,-1
 132 229 l 2,9,10
 170 229 170 229 170 290 c 2,11,-1
 170 312 l 2,12,13
 170 375 170 375 133 375 c 0,14,15
 113 375 113 375 103 359.5 c 128,-1,16
 93 344 93 344 90 302 c 1,17,-1
 32 310 l 1,18,19
 37 373 37 373 62.5 398 c 128,-1,20
 88 423 88 423 135 423 c 128,-1,21
 182 423 182 423 206.5 397.5 c 128,-1,22
 231 372 231 372 231 306 c 128,-1,23
 231 240 231 240 200 214 c 1,24,25
 237 187 237 187 237 113 c 128,-1,26
 237 39 237 39 208.5 12 c 128,-1,27
 180 -15 180 -15 132.5 -15 c 128,-1,28
 85 -15 85 -15 61 9.5 c 128,-1,29
 37 34 37 34 31 98 c 1,30,-1
 88 108 l 1,31,32
 92 66 92 66 102 50 c 128,-1,33
 112 34 112 34 130 34 c 0,0,1
EndSplineSet
EndChar

StartChar: fourinferior
Encoding: 8324 8324 232
Width: 269
GlyphClass: 2
Flags: W
LayerCount: 2
Fore
SplineSet
155 0 m 1,0,-1
 155 93 l 1,1,-1
 13 93 l 1,2,-1
 13 126 l 1,3,-1
 109 420 l 1,4,-1
 218 420 l 1,5,-1
 218 143 l 1,6,-1
 242 143 l 1,7,-1
 242 93 l 1,8,-1
 218 93 l 1,9,-1
 218 0 l 1,10,-1
 155 0 l 1,0,-1
155 143 m 1,11,-1
 155 378 l 1,12,-1
 79 143 l 1,13,-1
 155 143 l 1,11,-1
EndSplineSet
EndChar

StartChar: fiveinferior
Encoding: 8325 8325 233
Width: 268
GlyphClass: 2
Flags: W
LayerCount: 2
Fore
SplineSet
48 192 m 1,0,-1
 48 414 l 1,1,-1
 228 414 l 1,2,-1
 228 365 l 1,3,-1
 109 365 l 1,4,-1
 109 238 l 1,5,-1
 132 238 l 2,6,7
 184 238 184 238 211 213 c 128,-1,8
 238 188 238 188 238 115.5 c 128,-1,9
 238 43 238 43 210.5 14 c 128,-1,10
 183 -15 183 -15 136 -15 c 128,-1,11
 89 -15 89 -15 65 9.5 c 128,-1,12
 41 34 41 34 35 98 c 1,13,-1
 93 108 l 1,14,15
 96 66 96 66 106 50 c 128,-1,16
 116 34 116 34 133 34 c 0,17,18
 175 34 175 34 175 110 c 2,19,-1
 175 127 l 2,20,21
 175 164 175 164 164.5 178 c 128,-1,22
 154 192 154 192 132 192 c 2,23,-1
 48 192 l 1,0,-1
EndSplineSet
EndChar

StartChar: sixinferior
Encoding: 8326 8326 234
Width: 286
GlyphClass: 2
Flags: W
LayerCount: 2
Fore
SplineSet
251 113 m 0,0,1
 251 40 251 40 222.5 12.5 c 128,-1,2
 194 -15 194 -15 143.5 -15 c 128,-1,3
 93 -15 93 -15 66 12.5 c 128,-1,4
 39 40 39 40 39 113 c 2,5,-1
 39 291 l 2,6,7
 39 366 39 366 67 394.5 c 128,-1,8
 95 423 95 423 141 423 c 128,-1,9
 187 423 187 423 212 401 c 128,-1,10
 237 379 237 379 242 324 c 1,11,-1
 182 307 l 1,12,13
 179 345 179 345 170 359.5 c 128,-1,14
 161 374 161 374 144 374 c 0,15,16
 102 374 102 374 102 300 c 2,17,-1
 102 217 l 1,18,19
 124 242 124 242 153 242 c 0,20,21
 251 242 251 242 251 113 c 0,0,1
190 105 m 2,22,-1
 190 124 l 2,23,24
 190 196 190 196 146 196 c 128,-1,25
 102 196 102 196 102 127 c 2,26,-1
 102 105 l 2,27,28
 102 33 102 33 146 33 c 128,-1,29
 190 33 190 33 190 105 c 2,22,-1
EndSplineSet
EndChar

StartChar: seveninferior
Encoding: 8327 8327 235
Width: 226
GlyphClass: 2
Flags: W
LayerCount: 2
Fore
SplineSet
16 371 m 1,0,-1
 16 420 l 1,1,-1
 211 420 l 1,2,-1
 211 387 l 1,3,-1
 109 0 l 1,4,-1
 43 0 l 1,5,-1
 144 371 l 1,6,-1
 16 371 l 1,0,-1
EndSplineSet
EndChar

StartChar: eightinferior
Encoding: 8328 8328 236
Width: 283
GlyphClass: 2
Flags: W
LayerCount: 2
Fore
SplineSet
239 313 m 0,0,1
 239 231 239 231 193 210 c 1,2,3
 248 190 248 190 248 101 c 0,4,5
 248 35 248 35 220.5 10 c 128,-1,6
 193 -15 193 -15 141.5 -15 c 128,-1,7
 90 -15 90 -15 62.5 10 c 128,-1,8
 35 35 35 35 35 101 c 0,9,10
 35 191 35 191 90 210 c 1,11,12
 42 231 42 231 42 313 c 0,13,14
 42 375 42 375 68 399 c 128,-1,15
 94 423 94 423 141 423 c 128,-1,16
 188 423 188 423 213.5 399 c 128,-1,17
 239 375 239 375 239 313 c 0,0,1
184 99 m 2,18,-1
 184 119 l 2,19,20
 184 185 184 185 142 185 c 0,21,22
 97 185 97 185 97 119 c 2,23,-1
 97 99 l 2,24,25
 97 33 97 33 142 33 c 0,26,27
 184 33 184 33 184 99 c 2,18,-1
180 289 m 2,28,-1
 180 319 l 2,29,30
 180 375 180 375 141.5 375 c 128,-1,31
 103 375 103 375 103 319 c 2,32,-1
 103 289 l 2,33,34
 103 233 103 233 141.5 233 c 128,-1,35
 180 233 180 233 180 289 c 2,28,-1
EndSplineSet
EndChar

StartChar: nineinferior
Encoding: 8329 8329 237
Width: 286
GlyphClass: 2
Flags: W
LayerCount: 2
Fore
SplineSet
219 13.5 m 128,-1,1
 191 -15 191 -15 143 -15 c 128,-1,2
 95 -15 95 -15 69.5 10.5 c 128,-1,3
 44 36 44 36 39 100 c 1,4,-1
 95 109 l 1,5,6
 99 66 99 66 110 50 c 128,-1,7
 121 34 121 34 141 34 c 128,-1,8
 161 34 161 34 172 50 c 128,-1,9
 183 66 183 66 183 108 c 2,10,-1
 183 188 l 1,11,12
 158 166 158 166 133 166 c 0,13,14
 35 166 35 166 35 295 c 0,15,16
 35 368 35 368 63 395.5 c 128,-1,17
 91 423 91 423 141.5 423 c 128,-1,18
 192 423 192 423 219.5 395.5 c 128,-1,19
 247 368 247 368 247 295 c 2,20,-1
 247 117 l 2,21,0
 247 42 247 42 219 13.5 c 128,-1,1
96 303 m 2,22,-1
 96 284 l 2,23,24
 96 212 96 212 139.5 212 c 128,-1,25
 183 212 183 212 183 284 c 2,26,-1
 183 303 l 2,27,28
 183 375 183 375 139.5 375 c 128,-1,29
 96 375 96 375 96 303 c 2,22,-1
EndSplineSet
EndChar

StartChar: Euro
Encoding: 8364 8364 238
Width: 384
GlyphClass: 2
Flags: W
LayerCount: 2
Fore
SplineSet
12 404 m 1,0,-1
 12 456 l 1,1,-1
 51 456 l 1,2,-1
 51 486 l 2,3,4
 51 617 51 617 91.5 666 c 128,-1,5
 132 715 132 715 200 715 c 128,-1,6
 268 715 268 715 304 683 c 128,-1,7
 340 651 340 651 348 569 c 1,8,-1
 274 558 l 1,9,10
 268 611 268 611 252 630.5 c 128,-1,11
 236 650 236 650 203 650 c 128,-1,12
 170 650 170 650 149.5 618.5 c 128,-1,13
 129 587 129 587 129 503 c 2,14,-1
 129 456 l 1,15,-1
 249 456 l 1,16,-1
 249 404 l 1,17,-1
 129 404 l 1,18,-1
 129 306 l 1,19,-1
 249 306 l 1,20,-1
 249 254 l 1,21,-1
 129 254 l 1,22,-1
 129 193 l 2,23,24
 129 112 129 112 149.5 81 c 128,-1,25
 170 50 170 50 205 50 c 128,-1,26
 240 50 240 50 257.5 73 c 128,-1,27
 275 96 275 96 281 161 c 1,28,-1
 354 155 l 1,29,30
 346 60 346 60 309 22.5 c 128,-1,31
 272 -15 272 -15 202 -15 c 128,-1,32
 132 -15 132 -15 91.5 34 c 128,-1,33
 51 83 51 83 51 214 c 2,34,-1
 51 254 l 1,35,-1
 12 254 l 1,36,-1
 12 306 l 1,37,-1
 51 306 l 1,38,-1
 51 404 l 1,39,-1
 12 404 l 1,0,-1
EndSplineSet
EndChar

StartChar: trademark
Encoding: 8482 8482 239
Width: 544
GlyphClass: 2
Flags: W
LayerCount: 2
Fore
SplineSet
282 300 m 1,0,-1
 228 300 l 1,1,-1
 228 755 l 1,2,-1
 311 755 l 1,3,-1
 363 412 l 1,4,-1
 415 755 l 1,5,-1
 499 755 l 1,6,-1
 499 300 l 1,7,-1
 444 300 l 1,8,-1
 444 702 l 1,9,-1
 390 365 l 1,10,-1
 335 365 l 1,11,-1
 282 703 l 1,12,-1
 282 300 l 1,0,-1
14 711 m 1,13,-1
 14 755 l 1,14,-1
 190 755 l 1,15,-1
 190 711 l 1,16,-1
 129 711 l 1,17,-1
 129 300 l 1,18,-1
 74 300 l 1,19,-1
 74 711 l 1,20,-1
 14 711 l 1,13,-1
EndSplineSet
EndChar

StartChar: Omega
Encoding: 8486 8486 240
Width: 465
GlyphClass: 2
Flags: W
LayerCount: 2
Fore
SplineSet
256 0 m 1,0,-1
 256 223 l 1,1,2
 338 235 338 235 338 366 c 2,3,-1
 338 506 l 2,4,5
 338 587 338 587 310.5 618.5 c 128,-1,6
 283 650 283 650 233 650 c 128,-1,7
 183 650 183 650 155 618.5 c 128,-1,8
 127 587 127 587 127 506 c 2,9,-1
 127 366 l 2,10,11
 127 238 127 238 201 223 c 1,12,-1
 207 223 l 1,13,-1
 207 0 l 1,14,-1
 46 0 l 1,15,-1
 46 64 l 1,16,-1
 138 64 l 1,17,-1
 138 175 l 1,18,19
 49 218 49 218 49 381 c 2,20,-1
 49 491 l 2,21,22
 49 618 49 618 96.5 666.5 c 128,-1,23
 144 715 144 715 232.5 715 c 128,-1,24
 321 715 321 715 368.5 666.5 c 128,-1,25
 416 618 416 618 416 491 c 2,26,-1
 416 381 l 2,27,28
 416 218 416 218 326 175 c 1,29,-1
 326 64 l 1,30,-1
 416 64 l 1,31,-1
 416 0 l 1,32,-1
 256 0 l 1,0,-1
EndSplineSet
EndChar

StartChar: partialdiff
Encoding: 8706 8706 241
Width: 386
GlyphClass: 2
Flags: W
LayerCount: 2
Fore
SplineSet
272 463 m 1,0,-1
 273 520 l 2,1,2
 273 528 273 528 273 558 c 128,-1,3
 273 588 273 588 266.5 629.5 c 128,-1,4
 260 671 260 671 249 694.5 c 128,-1,5
 238 718 238 718 219 730.5 c 128,-1,6
 200 743 200 743 184.5 745.5 c 128,-1,7
 169 748 169 748 145 748 c 1,8,-1
 145 803 l 1,9,10
 182 803 182 803 207 799 c 128,-1,11
 232 795 232 795 260 779.5 c 128,-1,12
 288 764 288 764 305 736 c 0,13,14
 344 673 344 673 344 538 c 0,15,16
 344 499 344 499 313 195 c 0,17,18
 301 76 301 76 261 30.5 c 128,-1,19
 221 -15 221 -15 159.5 -15 c 128,-1,20
 98 -15 98 -15 67 18.5 c 128,-1,21
 36 52 36 52 36 140 c 0,22,23
 36 165 36 165 39 195 c 2,24,-1
 52 325 l 2,25,26
 73 535 73 535 193 535 c 0,27,28
 251 535 251 535 272 463 c 1,0,-1
203 473 m 0,29,30
 174 473 174 473 155.5 443.5 c 128,-1,31
 137 414 137 414 130 339 c 0,32,33
 112 141 112 141 112 134 c 0,34,35
 113 47 113 47 164 47 c 0,36,37
 192 47 192 47 210.5 76.5 c 128,-1,38
 229 106 229 106 236 181 c 0,39,40
 254 367 254 367 254 386 c 0,41,42
 253 473 253 473 203 473 c 0,29,30
EndSplineSet
EndChar

StartChar: Delta
Encoding: 8710 8710 242
Width: 394
GlyphClass: 2
Flags: W
LayerCount: 2
Fore
SplineSet
250 700 m 1,0,-1
 378 0 l 1,1,-1
 16 0 l 1,2,-1
 144 700 l 1,3,-1
 250 700 l 1,0,-1
196 588 m 1,4,-1
 107 64 l 1,5,-1
 285 64 l 1,6,-1
 196 588 l 1,4,-1
EndSplineSet
EndChar

StartChar: product
Encoding: 8719 8719 243
Width: 480
GlyphClass: 2
Flags: W
LayerCount: 2
Fore
SplineSet
308 -100 m 1,0,-1
 308 636 l 1,1,-1
 171 636 l 1,2,-1
 171 -100 l 1,3,-1
 92 -100 l 1,4,-1
 92 636 l 1,5,-1
 35 636 l 1,6,-1
 35 700 l 1,7,-1
 445 700 l 1,8,-1
 445 636 l 1,9,-1
 387 636 l 1,10,-1
 387 -100 l 1,11,-1
 308 -100 l 1,0,-1
EndSplineSet
EndChar

StartChar: summation
Encoding: 8721 8721 244
Width: 353
GlyphClass: 2
Flags: W
LayerCount: 2
Fore
SplineSet
330 700 m 1,0,-1
 330 636 l 1,1,-1
 113 636 l 1,2,-1
 241 300 l 1,3,-1
 113 -36 l 1,4,-1
 337 -36 l 1,5,-1
 337 -100 l 1,6,-1
 16 -100 l 1,7,-1
 165 300 l 1,8,-1
 16 700 l 1,9,-1
 330 700 l 1,0,-1
EndSplineSet
EndChar

StartChar: minus
Encoding: 8722 8722 245
Width: 377
GlyphClass: 2
Flags: W
LayerCount: 2
Fore
SplineSet
56 319 m 1,0,-1
 56 381 l 1,1,-1
 320 381 l 1,2,-1
 320 319 l 1,3,-1
 56 319 l 1,0,-1
EndSplineSet
EndChar

StartChar: radical
Encoding: 8730 8730 246
Width: 462
GlyphClass: 2
Flags: W
LayerCount: 2
Fore
SplineSet
520 822 m 1,0,-1
 520 758 l 1,1,-1
 415 758 l 1,2,-1
 245 -180 l 1,3,-1
 147 -180 l 1,4,-1
 52 324 l 1,5,-1
 132 324 l 1,6,-1
 196 -56 l 1,7,-1
 347 822 l 1,8,-1
 520 822 l 1,0,-1
EndSplineSet
EndChar

StartChar: infinity
Encoding: 8734 8734 247
Width: 484
GlyphClass: 2
Flags: W
LayerCount: 2
Fore
SplineSet
66 484.5 m 128,-1,1
 95 522 95 522 154.5 522 c 128,-1,2
 214 522 214 522 240 465 c 1,3,4
 264 522 264 522 326.5 522 c 128,-1,5
 389 522 389 522 418 484.5 c 128,-1,6
 447 447 447 447 447 350.5 c 128,-1,7
 447 254 447 254 418 216.5 c 128,-1,8
 389 179 389 179 329.5 179 c 128,-1,9
 270 179 270 179 244 233 c 1,10,11
 218 179 218 179 156.5 179 c 128,-1,12
 95 179 95 179 66 216.5 c 128,-1,13
 37 254 37 254 37 350.5 c 128,-1,0
 37 447 37 447 66 484.5 c 128,-1,1
326 241 m 0,14,15
 389 241 389 241 389 350 c 128,-1,16
 389 459 389 459 326 459 c 0,17,18
 300 459 300 459 287.5 438.5 c 128,-1,19
 275 418 275 418 270 372 c 2,20,-1
 264 323 l 1,21,22
 277 241 277 241 326 241 c 0,14,15
157 459 m 0,23,24
 96 459 96 459 96 350 c 128,-1,25
 96 241 96 241 157 241 c 0,26,27
 184 241 184 241 196.5 260.5 c 128,-1,28
 209 280 209 280 214 324 c 2,29,-1
 220 376 l 1,30,31
 207 459 207 459 157 459 c 0,23,24
EndSplineSet
EndChar

StartChar: integral
Encoding: 8747 8747 248
Width: 234
GlyphClass: 2
Flags: W
LayerCount: 2
Fore
SplineSet
241 638 m 1,0,1
 222 648 222 648 202 648 c 0,2,3
 156 648 156 648 156 520 c 2,4,-1
 156 15 l 2,5,6
 156 -104 156 -104 125.5 -149.5 c 128,-1,7
 95 -195 95 -195 40 -195 c 0,8,9
 5 -195 5 -195 -22 -183 c 1,10,-1
 -6 -118 l 1,11,12
 11 -128 11 -128 32 -128 c 0,13,14
 78 -128 78 -128 78 0 c 2,15,-1
 78 505 l 2,16,17
 78 624 78 624 109 669.5 c 128,-1,18
 140 715 140 715 194 715 c 0,19,20
 229 715 229 715 256 703 c 1,21,-1
 241 638 l 1,0,1
EndSplineSet
EndChar

StartChar: approxequal
Encoding: 8776 8776 249
Width: 377
GlyphClass: 2
Flags: W
LayerCount: 2
Fore
SplineSet
56 481 m 1,0,1
 82 464 82 464 109.5 464 c 128,-1,2
 137 464 137 464 187.5 480.5 c 128,-1,3
 238 497 238 497 267 497 c 128,-1,4
 296 497 296 497 320 481 c 1,5,-1
 320 419 l 1,6,7
 294 436 294 436 266 436 c 128,-1,8
 238 436 238 436 188 418.5 c 128,-1,9
 138 401 138 401 109.5 401 c 128,-1,10
 81 401 81 401 56 419 c 1,11,-1
 56 481 l 1,0,1
56 281 m 1,12,13
 81 264 81 264 109 264 c 128,-1,14
 137 264 137 264 187.5 280.5 c 128,-1,15
 238 297 238 297 267 297 c 128,-1,16
 296 297 296 297 320 281 c 1,17,-1
 320 219 l 1,18,19
 294 236 294 236 266 236 c 128,-1,20
 238 236 238 236 188 218.5 c 128,-1,21
 138 201 138 201 109.5 201 c 128,-1,22
 81 201 81 201 56 219 c 1,23,-1
 56 281 l 1,12,13
EndSplineSet
EndChar

StartChar: notequal
Encoding: 8800 8800 250
Width: 377
GlyphClass: 2
Flags: W
LayerCount: 2
Fore
SplineSet
56 419 m 1,0,-1
 56 481 l 1,1,-1
 193 481 l 1,2,-1
 252 715 l 1,3,-1
 309 715 l 1,4,-1
 250 481 l 1,5,-1
 320 481 l 1,6,-1
 320 419 l 1,7,-1
 234 419 l 1,8,-1
 200 281 l 1,9,-1
 320 281 l 1,10,-1
 320 219 l 1,11,-1
 184 219 l 1,12,-1
 126 -15 l 1,13,-1
 69 -15 l 1,14,-1
 127 219 l 1,15,-1
 56 219 l 1,16,-1
 56 281 l 1,17,-1
 143 281 l 1,18,-1
 177 419 l 1,19,-1
 56 419 l 1,0,-1
EndSplineSet
EndChar

StartChar: lessequal
Encoding: 8804 8804 251
Width: 377
GlyphClass: 2
Flags: W
LayerCount: 2
Fore
SplineSet
56 317 m 1,0,-1
 56 383 l 1,1,-1
 322 533 l 1,2,-1
 322 467 l 1,3,-1
 126 350 l 1,4,-1
 322 233 l 1,5,-1
 322 167 l 1,6,-1
 56 317 l 1,0,-1
56 0 m 1,7,-1
 56 62 l 1,8,-1
 320 62 l 1,9,-1
 320 0 l 1,10,-1
 56 0 l 1,7,-1
EndSplineSet
EndChar

StartChar: greaterequal
Encoding: 8805 8805 252
Width: 377
GlyphClass: 2
Flags: W
LayerCount: 2
Fore
SplineSet
322 383 m 1,0,-1
 322 317 l 1,1,-1
 56 167 l 1,2,-1
 56 233 l 1,3,-1
 253 350 l 1,4,-1
 56 467 l 1,5,-1
 56 533 l 1,6,-1
 322 383 l 1,0,-1
56 0 m 1,7,-1
 56 62 l 1,8,-1
 320 62 l 1,9,-1
 320 0 l 1,10,-1
 56 0 l 1,7,-1
EndSplineSet
EndChar

StartChar: lozenge
Encoding: 9674 9674 253
Width: 394
GlyphClass: 2
Flags: W
LayerCount: 2
Fore
SplineSet
250 700 m 1,0,-1
 364 350 l 1,1,-1
 250 0 l 1,2,-1
 144 0 l 1,3,-1
 31 350 l 1,4,-1
 144 700 l 1,5,-1
 250 700 l 1,0,-1
110 350 m 1,6,-1
 196 63 l 1,7,-1
 282 350 l 1,8,-1
 196 636 l 1,9,-1
 110 350 l 1,6,-1
EndSplineSet
EndChar

StartChar: fi
Encoding: 64257 64257 254
Width: 401
GlyphClass: 2
Flags: W
LayerCount: 2
Fore
SplineSet
222 678 m 1,0,1
 205 688 205 688 184 688 c 0,2,3
 138 688 138 688 138 560 c 2,4,-1
 138 540 l 1,5,-1
 201 540 l 1,6,-1
 201 478 l 1,7,-1
 138 478 l 1,8,-1
 138 0 l 1,9,-1
 62 0 l 1,10,-1
 62 478 l 1,11,-1
 19 478 l 1,12,-1
 19 540 l 1,13,-1
 62 540 l 1,14,-1
 62 545 l 2,15,16
 62 664 62 664 92 709.5 c 128,-1,17
 122 755 122 755 176 755 c 0,18,19
 210 755 210 755 238 743 c 1,20,-1
 222 678 l 1,0,1
259 0 m 1,21,-1
 259 540 l 1,22,-1
 336 540 l 1,23,-1
 336 0 l 1,24,-1
 259 0 l 1,21,-1
256 646 m 1,25,-1
 256 740 l 1,26,-1
 339 740 l 1,27,-1
 339 646 l 1,28,-1
 256 646 l 1,25,-1
EndSplineSet
EndChar

StartChar: fl
Encoding: 64258 64258 255
Width: 401
GlyphClass: 2
Flags: W
LayerCount: 2
Fore
SplineSet
222 678 m 1,0,1
 205 688 205 688 184 688 c 0,2,3
 138 688 138 688 138 560 c 2,4,-1
 138 540 l 1,5,-1
 201 540 l 1,6,-1
 201 478 l 1,7,-1
 138 478 l 1,8,-1
 138 0 l 1,9,-1
 62 0 l 1,10,-1
 62 478 l 1,11,-1
 19 478 l 1,12,-1
 19 540 l 1,13,-1
 62 540 l 1,14,-1
 62 545 l 2,15,16
 62 664 62 664 92 709.5 c 128,-1,17
 122 755 122 755 176 755 c 0,18,19
 210 755 210 755 238 743 c 1,20,-1
 222 678 l 1,0,1
259 0 m 1,21,-1
 259 740 l 1,22,-1
 336 740 l 1,23,-1
 336 0 l 1,24,-1
 259 0 l 1,21,-1
EndSplineSet
EndChar

StartChar: apple
Encoding: 65539 -1 256
Width: 831
GlyphClass: 2
Flags: W
LayerCount: 2
Fore
SplineSet
530 -80 m 2,0,-1
 509 -79 l 2,1,2
 499 -79 499 -79 482 -90 c 128,-1,3
 465 -101 465 -101 457 -101 c 1,4,-1
 416 -92 l 1,5,6
 408 -92 408 -92 394.5 -97.5 c 128,-1,7
 381 -103 381 -103 373 -103 c 128,-1,8
 365 -103 365 -103 350.5 -91.5 c 128,-1,9
 336 -80 336 -80 325 -80 c 2,10,-1
 303 -82 l 1,11,12
 289 -82 289 -82 274 -66.5 c 128,-1,13
 259 -51 259 -51 253 -47.5 c 128,-1,14
 247 -44 247 -44 235 -43 c 128,-1,15
 223 -42 223 -42 215 -37.5 c 128,-1,16
 207 -33 207 -33 200.5 -16.5 c 128,-1,17
 194 0 194 0 189.5 3.5 c 128,-1,18
 185 7 185 7 172 12 c 128,-1,19
 159 17 159 17 154 25 c 128,-1,20
 149 33 149 33 147 46 c 128,-1,21
 145 59 145 59 141.5 64.5 c 128,-1,22
 138 70 138 70 130 77 c 0,23,24
 110 93 110 93 110 112 c 1,25,-1
 112 134 l 2,26,27
 112 142 112 142 101 158 c 128,-1,28
 90 174 90 174 90 182 c 128,-1,29
 90 190 90 190 95.5 203 c 128,-1,30
 101 216 101 216 101 223.5 c 128,-1,31
 101 231 101 231 95.5 242.5 c 128,-1,32
 90 254 90 254 90 262.5 c 128,-1,33
 90 271 90 271 101 289.5 c 128,-1,34
 112 308 112 308 112 316 c 2,35,-1
 112 338 l 2,36,37
 112 351 112 351 126.5 364.5 c 128,-1,38
 141 378 141 378 143.5 382.5 c 128,-1,39
 146 387 146 387 148 401 c 128,-1,40
 150 415 150 415 153.5 421 c 128,-1,41
 157 427 157 427 171 432.5 c 128,-1,42
 185 438 185 438 189.5 442 c 128,-1,43
 194 446 194 446 200.5 460 c 128,-1,44
 207 474 207 474 211 479 c 1,45,46
 218 485 218 485 234.5 488 c 128,-1,47
 251 491 251 491 256.5 494 c 128,-1,48
 262 497 262 497 275 512 c 128,-1,49
 288 527 288 527 301 528 c 1,50,-1
 325 526 l 2,51,52
 336 526 336 526 350.5 536.5 c 128,-1,53
 365 547 365 547 374 547 c 1,54,-1
 414 536 l 1,55,-1
 454 547 l 1,56,57
 466 547 466 547 480.5 536 c 128,-1,58
 495 525 495 525 506 525 c 2,59,-1
 531 527 l 1,60,61
 545 527 545 527 557 512.5 c 128,-1,62
 569 498 569 498 574.5 495 c 128,-1,63
 580 492 580 492 594 489 c 128,-1,64
 608 486 608 486 614.5 481.5 c 128,-1,65
 621 477 621 477 625.5 464 c 128,-1,66
 630 451 630 451 634.5 447 c 128,-1,67
 639 443 639 443 657 433.5 c 128,-1,68
 675 424 675 424 679.5 416.5 c 128,-1,69
 684 409 684 409 684.5 394.5 c 128,-1,70
 685 380 685 380 687.5 376 c 128,-1,71
 690 372 690 372 705 359.5 c 128,-1,72
 720 347 720 347 720 332 c 2,73,-1
 719 310 l 2,74,75
 719 298 719 298 730 281 c 128,-1,76
 741 264 741 264 741 256 c 128,-1,77
 741 248 741 248 736 236.5 c 128,-1,78
 731 225 731 225 731 220 c 1,79,-1
 741 180 l 1,80,81
 740 172 740 172 729 160.5 c 128,-1,82
 718 149 718 149 718 137 c 2,83,-1
 720 108 l 1,84,85
 720 93 720 93 705.5 81.5 c 128,-1,86
 691 70 691 70 688.5 66 c 128,-1,87
 686 62 686 62 682.5 44.5 c 128,-1,88
 679 27 679 27 674 21.5 c 128,-1,89
 669 16 669 16 657.5 10.5 c 128,-1,90
 646 5 646 5 641.5 0.5 c 128,-1,91
 637 -4 637 -4 629 -19 c 128,-1,92
 621 -34 621 -34 615 -38 c 128,-1,93
 609 -42 609 -42 593 -46.5 c 128,-1,94
 577 -51 577 -51 572.5 -53.5 c 128,-1,95
 568 -56 568 -56 556 -68 c 128,-1,96
 544 -80 544 -80 530 -80 c 2,0,-1
416 -5 m 1,97,-1
 445 -12 l 1,98,99
 451 -12 451 -12 462 -5 c 0,100,101
 475 4 475 4 485 4 c 2,102,-1
 499 3 l 2,103,104
 509 3 509 3 517 12 c 128,-1,105
 525 21 525 21 528.5 22.5 c 128,-1,106
 532 24 532 24 544 27.5 c 128,-1,107
 556 31 556 31 560.5 34 c 128,-1,108
 565 37 565 37 570.5 47.5 c 128,-1,109
 576 58 576 58 579.5 61 c 128,-1,110
 583 64 583 64 591.5 68 c 128,-1,111
 600 72 600 72 603 76.5 c 128,-1,112
 606 81 606 81 609 93 c 128,-1,113
 612 105 612 105 614 108.5 c 128,-1,114
 616 112 616 112 626 120.5 c 128,-1,115
 636 129 636 129 636 141 c 2,116,-1
 635 159 l 2,117,118
 635 168 635 168 643 177.5 c 128,-1,119
 651 187 651 187 652 192 c 1,120,-1
 644 220 l 1,121,-1
 652 246 l 1,122,123
 652 253 652 253 643.5 265.5 c 128,-1,124
 635 278 635 278 635 286 c 2,125,-1
 636 301 l 2,126,127
 636 312 636 312 625.5 321 c 128,-1,128
 615 330 615 330 613 334 c 128,-1,129
 611 338 611 338 610.5 348.5 c 128,-1,130
 610 359 610 359 607 363.5 c 128,-1,131
 604 368 604 368 591.5 374.5 c 128,-1,132
 579 381 579 381 575 384.5 c 128,-1,133
 571 388 571 388 568 397.5 c 128,-1,134
 565 407 565 407 560 410.5 c 128,-1,135
 555 414 555 414 545 415.5 c 128,-1,136
 535 417 535 417 531 419.5 c 128,-1,137
 527 422 527 422 518 433 c 128,-1,138
 509 444 509 444 499 444 c 1,139,-1
 481 442 l 2,140,141
 472 442 472 442 463 450 c 128,-1,142
 454 458 454 458 445 458 c 1,143,-1
 415 450 l 1,144,-1
 386 458 l 1,145,146
 379 458 379 458 368 450.5 c 128,-1,147
 357 443 357 443 348 443 c 2,148,-1
 333 444 l 2,149,150
 323 444 323 444 313.5 432.5 c 128,-1,151
 304 421 304 421 300.5 419 c 128,-1,152
 297 417 297 417 284.5 415 c 128,-1,153
 272 413 272 413 268 409 c 128,-1,154
 264 405 264 405 259 395 c 128,-1,155
 254 385 254 385 251 381.5 c 128,-1,156
 248 378 248 378 238 374 c 128,-1,157
 228 370 228 370 225 366 c 128,-1,158
 222 362 222 362 221 352 c 128,-1,159
 220 342 220 342 218.5 339 c 128,-1,160
 217 336 217 336 205.5 326 c 128,-1,161
 194 316 194 316 194 306 c 2,162,-1
 195 292 l 2,163,164
 195 284 195 284 187.5 271 c 128,-1,165
 180 258 180 258 180 250 c 1,166,-1
 187 223 l 1,167,-1
 180 193 l 1,168,169
 180 186 180 186 187.5 175 c 128,-1,170
 195 164 195 164 195 157 c 2,171,-1
 193 142 l 1,172,173
 193 132 193 132 204 122 c 2,174,-1
 216 111 l 1,175,176
 220 105 220 105 221.5 95 c 128,-1,177
 223 85 223 85 226 79 c 128,-1,178
 229 73 229 73 238.5 70 c 128,-1,179
 248 67 248 67 251.5 64 c 128,-1,180
 255 61 255 61 260 49 c 128,-1,181
 265 37 265 37 270.5 33.5 c 128,-1,182
 276 30 276 30 284.5 29.5 c 128,-1,183
 293 29 293 29 298 26.5 c 128,-1,184
 303 24 303 24 313.5 13 c 128,-1,185
 324 2 324 2 334 2 c 2,186,-1
 347 3 l 2,187,188
 356 3 356 3 367 -5 c 128,-1,189
 378 -13 378 -13 383 -14 c 1,190,-1
 416 -5 l 1,97,-1
307.5 330.5 m 128,-1,192
 352 375 352 375 415.5 375 c 128,-1,193
 479 375 479 375 524 330.5 c 128,-1,194
 569 286 569 286 569 222.5 c 128,-1,195
 569 159 569 159 524 114 c 128,-1,196
 479 69 479 69 415.5 69 c 128,-1,197
 352 69 352 69 307.5 114 c 128,-1,198
 263 159 263 159 263 222.5 c 128,-1,191
 263 286 263 286 307.5 330.5 c 128,-1,192
454 263 m 1,199,-1
 501 263 l 1,200,-1
 501 324 l 1,201,-1
 329 324 l 1,202,-1
 329 263 l 1,203,-1
 378 263 l 1,204,-1
 378 105 l 1,205,-1
 454 105 l 1,206,-1
 454 263 l 1,199,-1
EndSplineSet
EndChar
